JosefinSans-ThinItalic.ufo
<glyph name="exclam" format="2">
  <advance width="199"/>
  <unicode hex="0021"/>
  <outline>
    <contour>
      <point x="158.833" y="717.167" type="line"/>
      <point x="87" y="134" type="line"/>
      <point x="105.833" y="134" type="line"/>
      <point x="177.667" y="717.167" type="line"/>
    </contour>
    <contour>
      <point x="68.333" y="16.667" type="curve" smooth="yes"/>
      <point x="70.333" y="8.833"/>
      <point x="75.833" y="0.333"/>
      <point x="89.333" y="2.333" type="curve" smooth="yes"/>
      <point x="101" y="4.167"/>
      <point x="110.333" y="15.167"/>
      <point x="108.333" y="26.833" type="curve" smooth="yes"/>
      <point x="106.167" y="36.5"/>
      <point x="96.833" y="42.833"/>
      <point x="87" y="41" type="curve" smooth="yes"/>
      <point x="75.333" y="39"/>
      <point x="66.167" y="28.167"/>
    </contour>
  </outline>
</glyph>
<glyph name="quotedbl" format="2">
  <advance width="296"/>
  <unicode hex="0022"/>
  <outline>
    <contour>
      <point x="173.667" y="720.667" type="curve"/>
      <point x="151.167" y="720.667" type="line"/>
      <point x="121.167" y="472.333" type="line"/>
      <point x="139.667" y="472.333" type="line"/>
      <point x="150.667" y="555.5"/>
      <point x="162.667" y="637.5"/>
    </contour>
    <contour>
      <point x="306.833" y="720.667" type="curve"/>
      <point x="284.333" y="720.667" type="line"/>
      <point x="254.167" y="472.333" type="line"/>
      <point x="272.833" y="472.333" type="line"/>
      <point x="283.833" y="555.5"/>
      <point x="295.833" y="637.5"/>
    </contour>
  </outline>
</glyph>
<glyph name="numbersign" format="2">
  <advance width="571.5"/>
  <unicode hex="0023"/>
  <outline>
    <contour>
      <point x="293.5" y="643.5" type="curve"/>
      <point x="274.5" y="643.5" type="line"/>
      <point x="256.667" y="570.167"/>
      <point x="238.833" y="497"/>
      <point x="220.833" y="423.5" type="curve"/>
      <point x="105.5" y="423.5" type="line"/>
      <point x="104.167" y="417"/>
      <point x="102.833" y="411.333"/>
      <point x="101.5" y="404.833" type="curve"/>
      <point x="215.833" y="404.833" type="line"/>
      <point x="202.167" y="350.333"/>
      <point x="190.5" y="295.833"/>
      <point x="176.833" y="241.333" type="curve"/>
      <point x="60.667" y="241.333" type="line"/>
      <point x="59.333" y="234.833"/>
      <point x="57.833" y="229.167"/>
      <point x="56.5" y="222.5" type="curve"/>
      <point x="171.833" y="222.5" type="line"/>
      <point x="154" y="148.333"/>
      <point x="137" y="74.167"/>
      <point x="118.333" y="0" type="curve"/>
      <point x="137.333" y="0" type="line"/>
      <point x="156" y="74.167"/>
      <point x="173" y="148.333"/>
      <point x="190.667" y="222.5" type="curve"/>
      <point x="356" y="222.5" type="line"/>
      <point x="338.167" y="148.333"/>
      <point x="321.167" y="74.167"/>
      <point x="302.5" y="0" type="curve"/>
      <point x="321.5" y="0" type="line"/>
      <point x="340.167" y="74.167"/>
      <point x="357.167" y="148.333"/>
      <point x="374.833" y="222.5" type="curve"/>
      <point x="508.667" y="222.5" type="line"/>
      <point x="510" y="229.167"/>
      <point x="511.333" y="234.833"/>
      <point x="512.833" y="241.333" type="curve"/>
      <point x="380" y="241.333" type="line"/>
      <point x="393.667" y="295.833"/>
      <point x="405.333" y="350.333"/>
      <point x="419" y="404.833" type="curve"/>
      <point x="553.667" y="404.833" type="line"/>
      <point x="555" y="411.333"/>
      <point x="556.333" y="417"/>
      <point x="557.667" y="423.5" type="curve"/>
      <point x="424" y="423.5" type="line"/>
      <point x="441.833" y="497"/>
      <point x="459.667" y="570.167"/>
      <point x="477.667" y="643.5" type="curve"/>
      <point x="458.667" y="643.5" type="line"/>
      <point x="440.833" y="570.167"/>
      <point x="422.833" y="497"/>
      <point x="405" y="423.5" type="curve"/>
      <point x="239.833" y="423.5" type="line"/>
      <point x="257.667" y="497"/>
      <point x="275.5" y="570.167"/>
    </contour>
    <contour>
      <point x="234.833" y="404.833" type="curve"/>
      <point x="400" y="404.833" type="line"/>
      <point x="386.333" y="350.333"/>
      <point x="374.667" y="295.833"/>
      <point x="361" y="241.333" type="curve"/>
      <point x="195.833" y="241.333" type="line"/>
      <point x="209.5" y="295.833"/>
      <point x="221.167" y="350.333"/>
    </contour>
  </outline>
</glyph>
<glyph name="dollar" format="2">
  <advance width="567.83333"/>
  <unicode hex="0024"/>
  <outline>
    <contour>
      <point x="254.333" y="-68" type="line"/>
      <point x="271.5" y="-68" type="line"/>
      <point x="325.167" y="371.833" type="line"/>
      <point x="325.667" y="380.5" type="line"/>
      <point x="372.833" y="765.833" type="line"/>
      <point x="355.667" y="765.833" type="line"/>
      <point x="309.5" y="388" type="line"/>
      <point x="309" y="378.833" type="line"/>
    </contour>
    <component base="S"/>
  </outline>
</glyph>
<glyph name="ampersand" format="2">
  <advance width="700.83333"/>
  <unicode hex="0026"/>
  <outline>
    <contour>
      <point x="559" y="0" type="curve"/>
      <point x="239.5" y="518" type="line" smooth="yes"/>
      <point x="226.833" y="538.5"/>
      <point x="213.5" y="566.167"/>
      <point x="213.667" y="590.333" type="curve" smooth="yes"/>
      <point x="213.833" y="667.333"/>
      <point x="265.5" y="730.833"/>
      <point x="368.833" y="730.833" type="curve" smooth="yes"/>
      <point x="411.5" y="730.833"/>
      <point x="451.167" y="714.333"/>
      <point x="488.167" y="690.333" type="curve"/>
      <point x="499.5" y="704.167" type="line"/>
      <point x="468.333" y="725.667"/>
      <point x="423.167" y="748.667"/>
      <point x="369.333" y="748.667" type="curve" smooth="yes"/>
      <point x="259.5" y="748.667"/>
      <point x="192.167" y="686.333"/>
      <point x="191.833" y="589.167" type="curve" smooth="yes"/>
      <point x="191.5" y="561.5"/>
      <point x="201.5" y="532.833"/>
      <point x="219.5" y="504.833" type="curve" smooth="yes"/>
      <point x="534.333" y="0" type="line"/>
      <point x="534.333" y="0"/>
      <point x="557.333" y="0"/>
    </contour>
    <contour>
      <point x="305.833" y="367.333" type="curve"/>
      <point x="304.5" y="386.667" type="line"/>
      <point x="185" y="389.833"/>
      <point x="60.167" y="303.667"/>
      <point x="59.333" y="179.333" type="curve" smooth="yes"/>
      <point x="58.667" y="77.833"/>
      <point x="147" y="-6.833"/>
      <point x="278.333" y="-7.167" type="curve" smooth="yes"/>
      <point x="368.5" y="-7.5"/>
      <point x="450.5" y="32.833"/>
      <point x="488.833" y="90.333" type="curve"/>
      <point x="478.333" y="108.333" type="line"/>
      <point x="446.833" y="55"/>
      <point x="365.833" y="10.667"/>
      <point x="280" y="10.833" type="curve" smooth="yes"/>
      <point x="171" y="11"/>
      <point x="81.833" y="80.833"/>
      <point x="82.333" y="177.333" type="curve" smooth="yes"/>
      <point x="82.5" y="300.333"/>
      <point x="209.333" y="372.333"/>
    </contour>
    <contour>
      <point x="619.667" y="386.833" type="line"/>
      <point x="482.167" y="108.167" type="line"/>
      <point x="494" y="92" type="line"/>
      <point x="641.667" y="386.833" type="line"/>
    </contour>
  </outline>
</glyph>
<glyph name="quotesingle" format="2">
  <advance width="148"/>
  <unicode hex="0027"/>
  <outline>
    <contour>
      <point x="176" y="720.667" type="curve"/>
      <point x="153.333" y="720.667" type="line"/>
      <point x="123.333" y="472.333" type="line"/>
      <point x="142" y="472.333" type="line"/>
      <point x="153" y="555.5"/>
      <point x="165" y="637.5"/>
    </contour>
  </outline>
</glyph>
<glyph name="parenleft" format="2">
  <advance width="324"/>
  <unicode hex="0028"/>
  <outline>
    <contour>
      <point x="108" y="221.833" type="curve" smooth="yes"/>
      <point x="108" y="221.833" type="line" smooth="yes"/>
      <point x="106.833" y="56"/>
      <point x="160.333" y="-87.333"/>
      <point x="222.833" y="-163.333" type="curve"/>
      <point x="233.833" y="-143" type="line"/>
      <point x="177.333" y="-68.167"/>
      <point x="127.833" y="69"/>
      <point x="128.667" y="225.333" type="curve" smooth="yes"/>
      <point x="129.667" y="447.5"/>
      <point x="239.167" y="626.333"/>
      <point x="339.5" y="726.667" type="curve"/>
      <point x="334.833" y="747.5" type="line"/>
      <point x="226.5" y="646.167"/>
      <point x="109.167" y="455.5"/>
    </contour>
  </outline>
</glyph>
<glyph name="asterisk" format="2">
  <advance width="335"/>
  <unicode hex="002A"/>
  <outline>
    <contour>
      <point x="225.333" y="558.5" type="curve"/>
      <point x="209.667" y="434" type="line"/>
      <point x="226.667" y="434" type="line"/>
      <point x="233.5" y="476.167"/>
      <point x="238.333" y="517.333"/>
      <point x="244.167" y="559.333" type="curve"/>
      <point x="277.667" y="537.833"/>
      <point x="311.833" y="516.167"/>
      <point x="345.333" y="494.667" type="curve"/>
      <point x="349.833" y="500.5"/>
      <point x="353.5" y="506.333"/>
      <point x="358" y="512.167" type="curve"/>
      <point x="323.667" y="532.833"/>
      <point x="289.333" y="554.333"/>
      <point x="256" y="575" type="curve"/>
      <point x="256" y="575" type="line"/>
      <point x="295.333" y="596.5"/>
      <point x="334.5" y="618.167"/>
      <point x="374.833" y="639.667" type="curve"/>
      <point x="372.333" y="644.5"/>
      <point x="370" y="649.333"/>
      <point x="367.667" y="654.167" type="curve"/>
      <point x="328.333" y="633.667"/>
      <point x="288.167" y="612"/>
      <point x="248" y="591.5" type="curve"/>
      <point x="254.833" y="634.667"/>
      <point x="259.833" y="676.833"/>
      <point x="265.667" y="720" type="curve"/>
      <point x="244.667" y="720" type="line"/>
      <point x="229" y="591.5" type="line"/>
      <point x="195.667" y="613"/>
      <point x="161.333" y="633.667"/>
      <point x="127" y="655.167" type="curve"/>
      <point x="124.333" y="650.333"/>
      <point x="119.833" y="645.5"/>
      <point x="117.333" y="640.667" type="curve"/>
      <point x="150.667" y="619.167"/>
      <point x="184" y="597.5"/>
      <point x="218.167" y="576" type="curve"/>
      <point x="179" y="555.5"/>
      <point x="140.833" y="534.833"/>
      <point x="101.5" y="514.333" type="curve"/>
      <point x="104" y="508.5"/>
      <point x="107.333" y="502.5"/>
      <point x="109.667" y="496.667" type="curve"/>
      <point x="148.833" y="517.333"/>
      <point x="186.167" y="537.833"/>
    </contour>
  </outline>
</glyph>
<glyph name="plus" format="2">
  <advance width="544"/>
  <unicode hex="002B"/>
  <outline>
    <contour>
      <point x="307.833" y="411.333" type="line"/>
      <point x="287" y="241.5" type="line"/>
      <point x="116.333" y="241.5" type="line"/>
      <point x="113.833" y="222.833" type="line"/>
      <point x="284.5" y="222.833" type="line"/>
      <point x="263.667" y="51" type="line"/>
      <point x="282.667" y="51" type="line"/>
      <point x="303.5" y="222.833" type="line"/>
      <point x="474.167" y="222.833" type="line"/>
      <point x="476.667" y="241.5" type="line"/>
      <point x="306" y="241.5" type="line"/>
      <point x="326.667" y="411.333" type="line"/>
    </contour>
  </outline>
</glyph>
<glyph name="comma" format="2">
  <advance width="200.16667"/>
  <unicode hex="002C"/>
  <outline>
    <contour>
      <point x="18.5" y="-181.5" type="line"/>
      <point x="74.667" y="-155.833"/>
      <point x="90.667" y="-99.5"/>
      <point x="91" y="-47.167" type="curve"/>
      <point x="69.5" y="-46.167" type="line"/>
      <point x="69.833" y="-102.833"/>
      <point x="50.167" y="-147.5"/>
      <point x="9.667" y="-171.667" type="curve"/>
    </contour>
  </outline>
</glyph>
<glyph name="period" format="2">
  <advance width="163"/>
  <unicode hex="002E"/>
  <outline>
    <contour>
      <point x="66" y="20" type="curve" smooth="yes"/>
      <point x="66" y="20" type="line" smooth="yes"/>
      <point x="66" y="8.833"/>
      <point x="75" y="0"/>
      <point x="86" y="0" type="curve" smooth="yes"/>
      <point x="99" y="0"/>
      <point x="111.5" y="11"/>
      <point x="111.5" y="24.5" type="curve" smooth="yes"/>
      <point x="111.5" y="35.667"/>
      <point x="102.5" y="44.667"/>
      <point x="91.667" y="44.667" type="curve" smooth="yes"/>
      <point x="78.5" y="44.667"/>
      <point x="66" y="33.5"/>
    </contour>
  </outline>
</glyph>
<glyph name="slash" format="2">
  <advance width="326.33333"/>
  <unicode hex="002F"/>
  <outline>
    <contour>
      <point x="405.333" y="736.667" type="curve"/>
      <point x="386.333" y="736.667" type="line"/>
      <point x="262.167" y="484.5"/>
      <point x="139.167" y="233.167"/>
      <point x="15" y="-19" type="curve"/>
      <point x="34" y="-19" type="line"/>
      <point x="158" y="233.167"/>
      <point x="281.167" y="484.5"/>
    </contour>
  </outline>
</glyph>
<glyph name="zero" format="2">
  <advance width="618.83333"/>
  <unicode hex="0030"/>
  <outline>
    <contour>
      <point x="286.333" y="-4.667" type="curve"/>
      <point x="467.167" y="-16.167"/>
      <point x="576.667" y="143"/>
      <point x="597.167" y="310.667" type="curve"/>
      <point x="617.333" y="479.667"/>
      <point x="543" y="644.167"/>
      <point x="365.5" y="653.667" type="curve"/>
      <point x="180.167" y="665.167"/>
      <point x="74.333" y="500.333"/>
      <point x="55.167" y="338.833" type="curve"/>
      <point x="35.167" y="170.333"/>
      <point x="108.5" y="4.833"/>
    </contour>
    <contour>
      <point x="288" y="13.833" type="curve"/>
      <point x="149.667" y="20.5"/>
      <point x="52.5" y="143"/>
      <point x="74.5" y="337.5" type="curve"/>
      <point x="99.333" y="530.333"/>
      <point x="223.333" y="644.833"/>
      <point x="363.5" y="635.167" type="curve"/>
      <point x="501.833" y="628.5"/>
      <point x="599.167" y="506"/>
      <point x="577.167" y="311.5" type="curve"/>
      <point x="552.333" y="118.667"/>
      <point x="428.333" y="4.167"/>
    </contour>
  </outline>
</glyph>
<glyph name="one" format="2">
  <advance width="310.16667"/>
  <unicode hex="0031"/>
  <outline>
    <contour>
      <point x="117.5" y="650.5" type="line"/>
      <point x="114.833" y="631" type="line"/>
      <point x="225.167" y="631" type="line"/>
      <point x="147.833" y="0" type="line"/>
      <point x="167.667" y="0" type="line"/>
      <point x="247.833" y="650.5" type="line"/>
    </contour>
  </outline>
</glyph>
<glyph name="two" format="2">
  <advance width="537"/>
  <unicode hex="0032"/>
  <outline>
    <contour>
      <point x="69.167" y="0" type="curve"/>
      <point x="468.833" y="0" type="line"/>
      <point x="471.5" y="18.667" type="line"/>
      <point x="105" y="18.667" type="line"/>
      <point x="109" y="12" type="line"/>
      <point x="387" y="254.667"/>
      <point x="462" y="362.833"/>
      <point x="462.333" y="476.5" type="curve" smooth="yes"/>
      <point x="462.833" y="596"/>
      <point x="385.167" y="658.5"/>
      <point x="284.833" y="658.5" type="curve" smooth="yes"/>
      <point x="147.667" y="658.5"/>
      <point x="83.167" y="550"/>
      <point x="83.167" y="458.667" type="curve" smooth="yes"/>
      <point x="83.167" y="413.833"/>
      <point x="95.5" y="381.5"/>
      <point x="116" y="351.5" type="curve"/>
      <point x="128.833" y="362.667" type="line"/>
      <point x="109.833" y="388.333"/>
      <point x="102.833" y="421"/>
      <point x="102.833" y="460.667" type="curve" smooth="yes"/>
      <point x="102.833" y="534.167"/>
      <point x="157.5" y="640"/>
      <point x="282.833" y="640" type="curve" smooth="yes"/>
      <point x="364.5" y="640"/>
      <point x="442.333" y="593.167"/>
      <point x="442.333" y="471.667" type="curve" smooth="yes"/>
      <point x="442.333" y="389.333"/>
      <point x="405.5" y="288.333"/>
    </contour>
  </outline>
</glyph>
<glyph name="three" format="2">
  <advance width="510.5"/>
  <unicode hex="0033"/>
  <outline>
    <contour>
      <point x="436.167" y="650.5" type="line"/>
      <point x="115.333" y="650.5" type="line"/>
      <point x="112.667" y="632" type="line"/>
      <point x="403.833" y="632" type="line"/>
      <point x="401.5" y="638.5" type="line"/>
      <point x="167.333" y="367.833" type="line"/>
      <point x="171.333" y="363.833" type="line"/>
      <point x="195.667" y="376.5"/>
      <point x="236.167" y="384.5"/>
      <point x="271.833" y="382.5" type="curve" smooth="yes"/>
      <point x="372" y="376.833"/>
      <point x="431" y="317.333"/>
      <point x="431" y="226.333" type="curve" smooth="yes"/>
      <point x="431" y="154.833"/>
      <point x="390.167" y="13.333"/>
      <point x="222.333" y="12.667" type="curve" smooth="yes"/>
      <point x="168.667" y="12.333"/>
      <point x="107.333" y="28.833"/>
      <point x="68.833" y="83.333" type="curve"/>
      <point x="56.833" y="70.5" type="line"/>
      <point x="100.667" y="11.5"/>
      <point x="162.333" y="-6.5"/>
      <point x="222.833" y="-6" type="curve" smooth="yes"/>
      <point x="408.333" y="-4.5"/>
      <point x="451" y="147.5"/>
      <point x="451" y="225.333" type="curve" smooth="yes"/>
      <point x="451" y="333.333"/>
      <point x="380.167" y="398.333"/>
      <point x="279" y="399.5" type="curve"/>
      <point x="245" y="401.5"/>
      <point x="212.333" y="397"/>
      <point x="184.667" y="383" type="curve"/>
      <point x="201.167" y="379.833" type="line"/>
    </contour>
  </outline>
</glyph>
<glyph name="four" format="2">
  <advance width="504.83333"/>
  <unicode hex="0034"/>
  <outline>
    <contour>
      <point x="32.833" y="181.333" type="line"/>
      <point x="381.5" y="181.333" type="line"/>
      <point x="359.667" y="0" type="line"/>
      <point x="379.5" y="0" type="line"/>
      <point x="401.333" y="181.333" type="line"/>
      <point x="497.5" y="181.333" type="line"/>
      <point x="500" y="198.667" type="line"/>
      <point x="403.833" y="198.667" type="line"/>
      <point x="459.5" y="658.5" type="line"/>
      <point x="458.5" y="658.5" type="line"/>
      <point x="32.833" y="182.333" type="line"/>
    </contour>
    <contour>
      <point x="437.833" y="610.833" type="line"/>
      <point x="434.667" y="616.167" type="line"/>
      <point x="384" y="198.667" type="line"/>
      <point x="60.667" y="198.667" type="line"/>
      <point x="64.833" y="192" type="line"/>
    </contour>
  </outline>
</glyph>
<glyph name="five" format="2">
  <advance width="542.16667"/>
  <unicode hex="0035"/>
  <outline>
    <contour>
      <point x="231.667" y="-6.167" type="curve" smooth="yes"/>
      <point x="355.5" y="-12.5"/>
      <point x="448" y="84.5"/>
      <point x="459.667" y="188.5" type="curve" smooth="yes"/>
      <point x="471.333" y="301.5"/>
      <point x="388.333" y="393.5"/>
      <point x="279.167" y="399.333" type="curve" smooth="yes"/>
      <point x="244.667" y="401.167"/>
      <point x="201.667" y="393.5"/>
      <point x="175.333" y="379" type="curve"/>
      <point x="175.667" y="366.333" type="line"/>
      <point x="208.5" y="632" type="line"/>
      <point x="478.833" y="632" type="line"/>
      <point x="481.5" y="650.5" type="line"/>
      <point x="193" y="650.5" type="line"/>
      <point x="154" y="348.333" type="line"/>
      <point x="158.833" y="347.333" type="line"/>
      <point x="185" y="368.833"/>
      <point x="227" y="384.5"/>
      <point x="272.5" y="381.667" type="curve" smooth="yes"/>
      <point x="374.333" y="375"/>
      <point x="450.5" y="290.5"/>
      <point x="439.667" y="188.833" type="curve" smooth="yes"/>
      <point x="428.833" y="90.5"/>
      <point x="340" y="7.667"/>
      <point x="231.5" y="12.667" type="curve" smooth="yes"/>
      <point x="185.333" y="15.167"/>
      <point x="139.5" y="34.167"/>
      <point x="109.167" y="72.5" type="curve"/>
      <point x="94.833" y="60" type="line"/>
      <point x="131.167" y="18.833"/>
      <point x="182.333" y="-2.833"/>
    </contour>
  </outline>
</glyph>
<glyph name="seven" format="2">
  <advance width="467.66667"/>
  <unicode hex="0037"/>
  <outline>
    <contour>
      <point x="476.167" y="650.5" type="line"/>
      <point x="73" y="650.5" type="line"/>
      <point x="70.333" y="632" type="line"/>
      <point x="458.833" y="632" type="line"/>
      <point x="447" y="641.333" type="line"/>
      <point x="80.5" y="0" type="line"/>
      <point x="106.167" y="0" type="line"/>
    </contour>
  </outline>
</glyph>
<glyph name="eight" format="2">
  <advance width="512"/>
  <unicode hex="0038"/>
  <outline>
    <contour>
      <point x="52.167" y="204.667" type="curve" smooth="yes"/>
      <point x="40.5" y="92.667"/>
      <point x="121.333" y="-2"/>
      <point x="232.667" y="-7" type="curve" smooth="yes"/>
      <point x="348.833" y="-12.833"/>
      <point x="450" y="77.5"/>
      <point x="461.667" y="188.167" type="curve" smooth="yes"/>
      <point x="471.667" y="281.167"/>
      <point x="414.333" y="360.333"/>
      <point x="332.167" y="386.333" type="curve"/>
      <point x="388.333" y="403.667"/>
      <point x="431" y="448.833"/>
      <point x="436.833" y="504.667" type="curve" smooth="yes"/>
      <point x="445.167" y="586.667"/>
      <point x="397" y="653.5"/>
      <point x="307.5" y="658.5" type="curve" smooth="yes"/>
      <point x="217" y="662.667"/>
      <point x="156" y="602.167"/>
      <point x="146.5" y="520.167" type="curve" smooth="yes"/>
      <point x="139.833" y="465.667"/>
      <point x="173" y="414"/>
      <point x="224.667" y="392.667" type="curve"/>
      <point x="135.5" y="374.667"/>
      <point x="62.167" y="299.833"/>
    </contour>
    <contour>
      <point x="72" y="204.333" type="curve" smooth="yes"/>
      <point x="82.833" y="306.833"/>
      <point x="172.333" y="384.667"/>
      <point x="274.833" y="379.667" type="curve" smooth="yes"/>
      <point x="377.167" y="374.667"/>
      <point x="452.833" y="287.667"/>
      <point x="442" y="188.667" type="curve" smooth="yes"/>
      <point x="432" y="87.667"/>
      <point x="336.5" y="5"/>
      <point x="233" y="10.833" type="curve" smooth="yes"/>
      <point x="131.833" y="15.833"/>
      <point x="62" y="105.167"/>
    </contour>
    <contour>
      <point x="165" y="518" type="curve" smooth="yes"/>
      <point x="175.667" y="599.167"/>
      <point x="236.167" y="644.167"/>
      <point x="307.833" y="640.833" type="curve" smooth="yes"/>
      <point x="378.5" y="636.667"/>
      <point x="425.5" y="583.167"/>
      <point x="417.167" y="505.5" type="curve" smooth="yes"/>
      <point x="410.5" y="444"/>
      <point x="355.333" y="394"/>
      <point x="281" y="397.333" type="curve" smooth="yes"/>
      <point x="208.667" y="401.5"/>
      <point x="157.5" y="453.5"/>
    </contour>
  </outline>
</glyph>
<glyph name="colon" format="2">
  <advance width="175.16667"/>
  <unicode hex="003A"/>
  <outline>
    <contour>
      <point x="65" y="20" type="curve" smooth="yes"/>
      <point x="65" y="20" type="line" smooth="yes"/>
      <point x="65" y="8.833"/>
      <point x="74" y="0"/>
      <point x="85.167" y="0" type="curve" smooth="yes"/>
      <point x="98.167" y="0"/>
      <point x="110.5" y="11"/>
      <point x="110.5" y="24.5" type="curve" smooth="yes"/>
      <point x="110.5" y="35.667"/>
      <point x="101.667" y="44.667"/>
      <point x="90.667" y="44.667" type="curve" smooth="yes"/>
      <point x="77.5" y="44.667"/>
      <point x="65" y="33.5"/>
    </contour>
    <contour>
      <point x="96.167" y="271.5" type="curve" smooth="yes"/>
      <point x="96.167" y="271.5" type="line" smooth="yes"/>
      <point x="96.167" y="260.333"/>
      <point x="105.333" y="251.5"/>
      <point x="116.333" y="251.5" type="curve" smooth="yes"/>
      <point x="129.333" y="251.5"/>
      <point x="140.833" y="262.5"/>
      <point x="140.833" y="276" type="curve" smooth="yes"/>
      <point x="140.833" y="287.333"/>
      <point x="132.833" y="296.167"/>
      <point x="121.833" y="296.167" type="curve" smooth="yes"/>
      <point x="108.667" y="296.167"/>
      <point x="96.167" y="285"/>
    </contour>
  </outline>
</glyph>
<glyph name="semicolon" format="2">
  <advance width="201.16667"/>
  <unicode hex="003B"/>
  <outline>
    <contour>
      <point x="119.667" y="270.333" type="curve" smooth="yes"/>
      <point x="119.667" y="270.333" type="line" smooth="yes"/>
      <point x="119.667" y="259"/>
      <point x="127.667" y="250.167"/>
      <point x="138.667" y="250.167" type="curve" smooth="yes"/>
      <point x="151.833" y="250.167"/>
      <point x="164.167" y="261.167"/>
      <point x="164.167" y="274.667" type="curve" smooth="yes"/>
      <point x="164.167" y="286"/>
      <point x="155.333" y="294.833"/>
      <point x="144.333" y="294.833" type="curve" smooth="yes"/>
      <point x="131.167" y="294.833"/>
      <point x="119.667" y="283.833"/>
    </contour>
    <contour>
      <point x="124.833" y="86.167" type="curve"/>
      <point x="97.5" y="86.167" type="line"/>
      <point x="63.333" y="17"/>
      <point x="29.333" y="-51"/>
      <point x="-4.667" y="-120.167" type="curve"/>
      <point x="13.667" y="-120.167" type="line"/>
      <point x="50.667" y="-51"/>
      <point x="87.667" y="17"/>
    </contour>
  </outline>
</glyph>
<glyph name="less" format="2">
  <advance width="675"/>
  <unicode hex="003C"/>
  <outline>
    <contour>
      <point x="546" y="-15" type="curve"/>
      <point x="548.833" y="8" type="line"/>
      <point x="548.833" y="8" type="line"/>
      <point x="425.5" y="84.667"/>
      <point x="300.167" y="161.5"/>
      <point x="176.667" y="238.167" type="curve"/>
      <point x="319.5" y="315"/>
      <point x="462.333" y="391.833"/>
      <point x="605.167" y="468.5" type="curve"/>
      <point x="608" y="491.333" type="line"/>
      <point x="451.833" y="407.333"/>
      <point x="294.833" y="322.333"/>
      <point x="138.667" y="238.167" type="curve"/>
      <point x="274.833" y="154.167"/>
      <point x="409.833" y="69.167"/>
    </contour>
  </outline>
</glyph>
<glyph name="equal" format="2">
  <advance width="708.66667"/>
  <unicode hex="003D"/>
  <outline>
    <contour>
      <point x="120.333" y="166.167" type="line"/>
      <point x="117.833" y="147.5" type="line"/>
      <point x="624.167" y="147.5" type="line"/>
      <point x="626.833" y="166.167" type="line"/>
    </contour>
    <contour>
      <point x="144.333" y="360.333" type="line"/>
      <point x="141.833" y="341.667" type="line"/>
      <point x="648.167" y="341.667" type="line"/>
      <point x="650.833" y="360.333" type="line"/>
    </contour>
  </outline>
</glyph>
<glyph name="greater" format="2">
  <advance width="646"/>
  <unicode hex="003E"/>
  <outline>
    <contour>
      <point x="113.667" y="8" type="curve"/>
      <point x="110.833" y="-15" type="line"/>
      <point x="110.833" y="-15" type="line"/>
      <point x="267" y="69.167"/>
      <point x="424" y="154.167"/>
      <point x="580.167" y="238.167" type="curve"/>
      <point x="444" y="322.333"/>
      <point x="309" y="407.333"/>
      <point x="172.833" y="491.333" type="curve"/>
      <point x="170" y="468.5" type="line"/>
      <point x="293.333" y="391.833"/>
      <point x="418.667" y="315"/>
      <point x="542.167" y="238.167" type="curve"/>
      <point x="399.333" y="161.5"/>
      <point x="256.5" y="84.667"/>
    </contour>
  </outline>
</glyph>
<glyph name="question" format="2">
  <advance width="452"/>
  <unicode hex="003F"/>
  <outline>
    <contour>
      <point x="234.167" y="261.167" type="curve" smooth="yes"/>
      <point x="222.167" y="164.167" type="line"/>
      <point x="241.167" y="164.167" type="line"/>
      <point x="251.167" y="242.167" type="line" smooth="yes"/>
      <point x="262" y="329"/>
      <point x="303.333" y="332.667"/>
      <point x="359.167" y="369.833" type="curve" smooth="yes"/>
      <point x="432.333" y="418.167"/>
      <point x="478.333" y="476.333"/>
      <point x="478.333" y="557.5" type="curve" smooth="yes"/>
      <point x="478.333" y="654.5"/>
      <point x="407.333" y="732.667"/>
      <point x="305.167" y="732.667" type="curve" smooth="yes"/>
      <point x="215.667" y="732.667"/>
      <point x="137.167" y="673.833"/>
      <point x="102.833" y="598.167" type="curve"/>
      <point x="107.167" y="596.5"/>
      <point x="113.5" y="595"/>
      <point x="118.833" y="593.5" type="curve"/>
      <point x="118.833" y="593.5" type="line"/>
      <point x="150.5" y="665.833"/>
      <point x="223.833" y="713.833"/>
      <point x="302.667" y="713.833" type="curve" smooth="yes"/>
      <point x="394.333" y="713.833"/>
      <point x="459.333" y="647.667"/>
      <point x="459.333" y="557" type="curve" smooth="yes"/>
      <point x="459.333" y="500.333"/>
      <point x="435.833" y="450.5"/>
      <point x="382.5" y="408.333" type="curve" smooth="yes"/>
      <point x="310.833" y="352"/>
      <point x="244.333" y="343.5"/>
    </contour>
    <contour>
      <point x="214.333" y="23.333" type="curve" smooth="yes"/>
      <point x="214.333" y="23.333" type="line" smooth="yes"/>
      <point x="226.5" y="23.333"/>
      <point x="239.833" y="34.167"/>
      <point x="239.833" y="47.833" type="curve" smooth="yes"/>
      <point x="239.833" y="59.833"/>
      <point x="229.833" y="67.833"/>
      <point x="219.833" y="67.833" type="curve" smooth="yes"/>
      <point x="208.667" y="67.833"/>
      <point x="195.333" y="57.667"/>
      <point x="195.333" y="43.333" type="curve" smooth="yes"/>
      <point x="195.333" y="32"/>
      <point x="205.167" y="23.333"/>
    </contour>
  </outline>
</glyph>
<glyph name="at" format="2">
  <advance width="963"/>
  <unicode hex="0040"/>
  <outline>
    <contour>
      <point x="397.5" y="-207.833" type="curve"/>
      <point x="484.667" y="-207.833"/>
      <point x="565.667" y="-179.833"/>
      <point x="638" y="-133.833" type="curve"/>
      <point x="628" y="-118" type="line"/>
      <point x="560" y="-160.833"/>
      <point x="482.167" y="-189.667"/>
      <point x="400.333" y="-189.667" type="curve"/>
      <point x="189.333" y="-189.667"/>
      <point x="71" y="-69.333"/>
      <point x="71" y="137" type="curve"/>
      <point x="71" y="289.167"/>
      <point x="205.167" y="571"/>
      <point x="555.5" y="571" type="curve"/>
      <point x="752.833" y="571"/>
      <point x="893.667" y="435.667"/>
      <point x="893.667" y="260.333" type="curve"/>
      <point x="893.667" y="132.833"/>
      <point x="808" y="8.167"/>
      <point x="710.333" y="8.167" type="curve"/>
      <point x="649" y="8.167"/>
      <point x="640" y="58.667"/>
      <point x="645" y="100.333" type="curve"/>
      <point x="684" y="377.667" type="line"/>
      <point x="668.5" y="377.667" type="line"/>
      <point x="648.667" y="265.667" type="line"/>
      <point x="628.5" y="336.167"/>
      <point x="563" y="386.333"/>
      <point x="476" y="386.333" type="curve"/>
      <point x="357.5" y="386.333"/>
      <point x="261.333" y="283.667"/>
      <point x="261.333" y="168" type="curve"/>
      <point x="257.5" y="68.667"/>
      <point x="333.833" y="-6.333"/>
      <point x="441" y="-6.333" type="curve"/>
      <point x="520" y="-6.333"/>
      <point x="599.167" y="50.833"/>
      <point x="635" y="121.5" type="curve"/>
      <point x="631" y="134.833" type="line"/>
      <point x="611.167" y="43.833"/>
      <point x="637" y="-9.833"/>
      <point x="709.667" y="-9.833" type="curve"/>
      <point x="822" y="-9.833"/>
      <point x="914.667" y="119.833"/>
      <point x="914.667" y="260.333" type="curve"/>
      <point x="914.667" y="447.167"/>
      <point x="766" y="589.167"/>
      <point x="558.333" y="589.167" type="curve"/>
      <point x="189.167" y="589.167"/>
      <point x="51" y="305.333"/>
      <point x="51" y="134" type="curve"/>
      <point x="51" y="-80.833"/>
      <point x="178.5" y="-207.833"/>
    </contour>
    <contour>
      <point x="444.333" y="11.167" type="curve"/>
      <point x="347.167" y="11.167"/>
      <point x="280.333" y="79.167"/>
      <point x="282.167" y="168" type="curve"/>
      <point x="282.167" y="279"/>
      <point x="373.5" y="368.833"/>
      <point x="475.167" y="368.833" type="curve"/>
      <point x="568.333" y="368.833"/>
      <point x="637.833" y="303.667"/>
      <point x="642.167" y="221.5" type="curve"/>
      <point x="636.667" y="180.5" type="line"/>
      <point x="623" y="82.833"/>
      <point x="528" y="11.167"/>
    </contour>
  </outline>
</glyph>
<glyph name="A" format="2">
  <advance width="709.33333"/>
  <unicode hex="0041"/>
  <anchor x="332" y="0" name="bottom"/>
  <anchor x="616.5" y="10" name="ogonek"/>
  <anchor x="425.167" y="726.833" name="top"/>
  <outline>
    <contour>
      <point x="60" y="0" type="line"/>
      <point x="425" y="702.667" type="line"/>
      <point x="411.333" y="699.5" type="line"/>
      <point x="601.667" y="0" type="line"/>
      <point x="623.333" y="0" type="line"/>
      <point x="422.667" y="733.5" type="line"/>
      <point x="420.333" y="733.5" type="line"/>
      <point x="39.333" y="0" type="line"/>
    </contour>
    <contour>
      <point x="195.167" y="281" type="line"/>
      <point x="190.5" y="262.5" type="line"/>
      <point x="538.167" y="262.5" type="line"/>
      <point x="538.5" y="281" type="line"/>
    </contour>
  </outline>
</glyph>
<glyph name="B" format="2">
  <advance width="576.66667"/>
  <unicode hex="0042"/>
  <anchor x="263.167" y="0" name="bottom"/>
  <anchor x="326.167" y="700" name="top"/>
  <outline>
    <contour>
      <point x="320.333" y="701.667" type="curve" smooth="yes"/>
      <point x="181.833" y="701.667" type="line"/>
      <point x="95.667" y="0" type="line"/>
      <point x="281.333" y="0" type="line" smooth="yes"/>
      <point x="413.667" y="0"/>
      <point x="499" y="69.667"/>
      <point x="499" y="202.167" type="curve" smooth="yes"/>
      <point x="499" y="286.667"/>
      <point x="435.167" y="342"/>
      <point x="358.833" y="354.167" type="curve"/>
      <point x="358.167" y="350.167" type="line"/>
      <point x="471.333" y="371.333"/>
      <point x="505.167" y="477.667"/>
      <point x="505.167" y="558.5" type="curve" smooth="yes"/>
      <point x="505.167" y="660.333"/>
      <point x="440.167" y="701.667"/>
    </contour>
    <contour>
      <point x="310.667" y="360.5" type="curve" smooth="yes"/>
      <point x="160" y="360.5" type="line"/>
      <point x="199.167" y="683.167" type="line"/>
      <point x="318.833" y="683.167" type="line" smooth="yes"/>
      <point x="426.167" y="683.167"/>
      <point x="485" y="645.833"/>
      <point x="485" y="552" type="curve" smooth="yes"/>
      <point x="485" y="499.333"/>
      <point x="465.333" y="360.5"/>
    </contour>
    <contour>
      <point x="282.5" y="18.333" type="curve" smooth="yes"/>
      <point x="118.333" y="18.333" type="line"/>
      <point x="157.333" y="342.5" type="line"/>
      <point x="309.833" y="342.5" type="line" smooth="yes"/>
      <point x="387.833" y="342.5"/>
      <point x="479.167" y="298.667"/>
      <point x="479.167" y="199.667" type="curve" smooth="yes"/>
      <point x="479.167" y="109.667"/>
      <point x="428" y="18.333"/>
    </contour>
  </outline>
</glyph>
<glyph name="C" format="2">
  <advance width="697"/>
  <unicode hex="0043"/>
  <anchor x="424.333" y="-3.833" name="bottom"/>
  <anchor x="462.333" y="701.167" name="top"/>
  <outline>
    <contour>
      <point x="600.333" y="28.667" type="curve"/>
      <point x="590.667" y="46" type="line"/>
      <point x="542.833" y="23.5"/>
      <point x="488" y="6.667"/>
      <point x="429.833" y="6.667" type="curve" smooth="yes"/>
      <point x="255.833" y="6.667"/>
      <point x="113.833" y="132.833"/>
      <point x="113.833" y="318" type="curve" smooth="yes"/>
      <point x="113.833" y="481.833"/>
      <point x="209" y="685.5"/>
      <point x="474.5" y="685" type="curve" smooth="yes"/>
      <point x="546.333" y="684.833"/>
      <point x="612.833" y="662.167"/>
      <point x="663.833" y="624.667" type="curve"/>
      <point x="675.667" y="641" type="line"/>
      <point x="620" y="679.833"/>
      <point x="551.333" y="703.667"/>
      <point x="475.667" y="703.667" type="curve" smooth="yes"/>
      <point x="194.167" y="703.667"/>
      <point x="93.833" y="481.833"/>
      <point x="93.833" y="317.5" type="curve" smooth="yes"/>
      <point x="93.833" y="134"/>
      <point x="227.167" y="-12"/>
      <point x="430.5" y="-12" type="curve" smooth="yes"/>
      <point x="494.167" y="-12"/>
      <point x="550.5" y="4"/>
    </contour>
  </outline>
</glyph>
<glyph name="D" format="2">
  <advance width="730.5"/>
  <unicode hex="0044"/>
  <anchor x="340.667" y="0" name="bottom"/>
  <anchor x="147" y="350" name="center"/>
  <anchor x="400.833" y="700" name="top"/>
  <outline>
    <contour>
      <point x="95.667" y="0" type="line"/>
      <point x="276" y="0" type="line" smooth="yes"/>
      <point x="501.833" y="0"/>
      <point x="673.667" y="134.167"/>
      <point x="674.667" y="385.667" type="curve" smooth="yes"/>
      <point x="675.833" y="553.333"/>
      <point x="595.5" y="701.667"/>
      <point x="328.167" y="701.667" type="curve" smooth="yes"/>
      <point x="181.833" y="701.667" type="line"/>
    </contour>
    <contour>
      <point x="118" y="19.5" type="line"/>
      <point x="198.833" y="681.167" type="line"/>
      <point x="336" y="681.167" type="line" smooth="yes"/>
      <point x="578" y="681.167"/>
      <point x="655.833" y="543.667"/>
      <point x="654.833" y="384.167" type="curve" smooth="yes"/>
      <point x="654" y="144.333"/>
      <point x="485.833" y="19.5"/>
      <point x="283.333" y="19.5" type="curve"/>
    </contour>
  </outline>
</glyph>
<glyph name="E" format="2">
  <advance width="630.66667"/>
  <unicode hex="0045"/>
  <anchor x="295" y="0" name="bottom"/>
  <anchor x="523.333" y="10" name="ogonek"/>
  <anchor x="378.833" y="701.333" name="top"/>
  <anchor x="79.5" y="700" name="topleft"/>
  <outline>
    <contour>
      <point x="181.833" y="701.667" type="line"/>
      <point x="95.667" y="0" type="line"/>
      <point x="528.5" y="0" type="line"/>
      <point x="531.167" y="19.5" type="line"/>
      <point x="118.333" y="19.5" type="line"/>
      <point x="157.333" y="344" type="line"/>
      <point x="517.167" y="344" type="line"/>
      <point x="519.833" y="363.333" type="line"/>
      <point x="160" y="363.333" type="line"/>
      <point x="199.167" y="682.333" type="line"/>
      <point x="598" y="682.333" type="line"/>
      <point x="600.667" y="701.667" type="line"/>
    </contour>
  </outline>
</glyph>
<glyph name="F" format="2">
  <advance width="571.33333"/>
  <unicode hex="0046"/>
  <anchor x="262.5" y="0" name="bottom"/>
  <anchor x="348.5" y="700" name="top"/>
  <outline>
    <contour>
      <point x="181.833" y="701.667" type="line"/>
      <point x="95.667" y="0" type="line"/>
      <point x="115.667" y="0" type="line"/>
      <point x="156.333" y="334" type="line"/>
      <point x="476" y="334" type="line"/>
      <point x="478.667" y="353.5" type="line"/>
      <point x="159" y="353.5" type="line"/>
      <point x="199.167" y="682.167" type="line"/>
      <point x="557.833" y="682.167" type="line"/>
      <point x="560.5" y="701.667" type="line"/>
    </contour>
  </outline>
</glyph>
<glyph name="G" format="2">
  <advance width="740"/>
  <unicode hex="0047"/>
  <anchor x="377.667" y="0" name="bottom"/>
  <anchor x="453.833" y="701.833" name="top"/>
  <outline>
    <contour>
      <point x="621.333" y="28.333" type="curve"/>
      <point x="654.667" y="298.833" type="line"/>
      <point x="463.667" y="298.833" type="line"/>
      <point x="461" y="280.333" type="line"/>
      <point x="632" y="280.333" type="line"/>
      <point x="602.833" y="40.833" type="line"/>
      <point x="550.167" y="16.5"/>
      <point x="472" y="4.833"/>
      <point x="411" y="7.833" type="curve" smooth="yes"/>
      <point x="224" y="19.667"/>
      <point x="113" y="153.667"/>
      <point x="113.667" y="319.333" type="curve" smooth="yes"/>
      <point x="114.5" y="460.167"/>
      <point x="210.667" y="685.167"/>
      <point x="475.667" y="684.667" type="curve" smooth="yes"/>
      <point x="546.667" y="684.667"/>
      <point x="614" y="662.333"/>
      <point x="665.333" y="625" type="curve"/>
      <point x="676.667" y="641.333" type="line"/>
      <point x="620.833" y="680.167"/>
      <point x="552.5" y="703.333"/>
      <point x="477.667" y="703.667" type="curve" smooth="yes"/>
      <point x="202" y="704.167"/>
      <point x="95.167" y="474.333"/>
      <point x="93.667" y="319.167" type="curve" smooth="yes"/>
      <point x="92.5" y="137.167"/>
      <point x="220.667" y="-11.333"/>
      <point x="433" y="-11.833" type="curve" smooth="yes"/>
      <point x="497.167" y="-12.167"/>
      <point x="570.833" y="2.833"/>
    </contour>
  </outline>
</glyph>
<glyph name="H" format="2">
  <advance width="735.5"/>
  <unicode hex="0048"/>
  <anchor x="344.333" y="0" name="bottom"/>
  <anchor x="387.167" y="350.5" name="center"/>
  <anchor x="430" y="701.833" name="top"/>
  <anchor x="76.833" y="700" name="topleft"/>
  <outline>
    <contour>
      <point x="679.333" y="701.667" type="line"/>
      <point x="659.333" y="701.667" type="line"/>
      <point x="617.667" y="362.667" type="line"/>
      <point x="160" y="362.667" type="line"/>
      <point x="201.833" y="701.667" type="line"/>
      <point x="181.833" y="701.667" type="line"/>
      <point x="95.667" y="0" type="line"/>
      <point x="115.667" y="0" type="line"/>
      <point x="158.333" y="344" type="line"/>
      <point x="616" y="344" type="line"/>
      <point x="573.167" y="0" type="line"/>
      <point x="593.167" y="0" type="line"/>
    </contour>
  </outline>
</glyph>
<glyph name="I" format="2">
  <advance width="258"/>
  <unicode hex="0049"/>
  <anchor x="105.5" y="0" name="bottom"/>
  <anchor x="113.667" y="9.5" name="ogonek"/>
  <anchor x="191.667" y="701.333" name="top"/>
  <anchor x="79" y="700" name="topleft"/>
  <outline>
    <contour>
      <point x="181.833" y="701.667" type="line"/>
      <point x="95.667" y="0" type="line"/>
      <point x="115.667" y="0" type="line"/>
      <point x="201.833" y="701.667" type="line"/>
    </contour>
  </outline>
</glyph>
<glyph name="J" format="2">
  <advance width="309.5"/>
  <unicode hex="004A"/>
  <anchor x="125.333" y="0" name="bottom"/>
  <anchor x="238.333" y="701.667" name="top"/>
  <outline>
    <contour>
      <point x="178.5" y="92.833" type="curve" smooth="yes"/>
      <point x="253.333" y="701.667" type="line"/>
      <point x="234.5" y="701.667" type="line"/>
      <point x="159.667" y="95.833" type="line" smooth="yes"/>
      <point x="143.667" y="-38.5"/>
      <point x="60.333" y="-117.833"/>
      <point x="-37.333" y="-122.833" type="curve"/>
      <point x="-40" y="-142.5" type="line"/>
      <point x="-40" y="-142.5" type="line"/>
      <point x="64.333" y="-138.5"/>
      <point x="160.333" y="-57"/>
    </contour>
  </outline>
</glyph>
<glyph name="N" format="2">
  <advance width="813.16667"/>
  <unicode hex="004E"/>
  <anchor x="384.333" y="0" name="bottom"/>
  <anchor x="469.333" y="700" name="top"/>
  <outline>
    <contour>
      <point x="669.667" y="-12.833" type="line"/>
      <point x="757" y="701.667" type="line"/>
      <point x="737.5" y="701.667" type="line"/>
      <point x="654.833" y="27.5" type="line"/>
      <point x="665.333" y="26" type="line"/>
      <point x="184.167" y="713.333" type="line"/>
      <point x="183" y="713.333" type="line"/>
      <point x="95.667" y="0" type="line"/>
      <point x="115.167" y="0" type="line"/>
      <point x="197.833" y="675.667" type="line"/>
      <point x="191.667" y="666.333" type="line"/>
      <point x="668.5" y="-12.833" type="line"/>
    </contour>
  </outline>
</glyph>
<glyph name="O" format="2">
  <advance width="869"/>
  <unicode hex="004F"/>
  <anchor x="414.333" y="0" name="bottom"/>
  <anchor x="455.333" y="350" name="center"/>
  <anchor x="491.5" y="0.5" name="ogonek"/>
  <anchor x="496.5" y="701.333" name="top"/>
  <anchor x="81.167" y="700" name="topleft"/>
  <anchor x="718.833" y="597.5" name="topright"/>
  <outline>
    <contour>
      <point x="431.5" y="-7" type="curve" smooth="yes"/>
      <point x="677.667" y="-7"/>
      <point x="813.333" y="202.667"/>
      <point x="813.333" y="377.667" type="curve" smooth="yes"/>
      <point x="813.333" y="571.167"/>
      <point x="665.667" y="708.667"/>
      <point x="475.667" y="708.667" type="curve" smooth="yes"/>
      <point x="229.5" y="708.667"/>
      <point x="93.833" y="499"/>
      <point x="93.833" y="323.833" type="curve" smooth="yes"/>
      <point x="93.833" y="130.5"/>
      <point x="241.5" y="-7"/>
    </contour>
    <contour>
      <point x="431.667" y="11.667" type="curve" smooth="yes"/>
      <point x="249.333" y="11.667"/>
      <point x="113.833" y="154.667"/>
      <point x="113.833" y="324.167" type="curve" smooth="yes"/>
      <point x="113.833" y="490.667"/>
      <point x="245.667" y="690"/>
      <point x="474.5" y="690" type="curve" smooth="yes"/>
      <point x="656.667" y="690"/>
      <point x="793.333" y="546.833"/>
      <point x="793.333" y="377.333" type="curve" smooth="yes"/>
      <point x="793.333" y="211"/>
      <point x="660.5" y="11.667"/>
    </contour>
  </outline>
</glyph>
<glyph name="P" format="2">
  <advance width="530"/>
  <unicode hex="0050"/>
  <outline>
    <contour>
      <point x="325.5" y="701.667" type="curve" smooth="yes"/>
      <point x="181.833" y="701.667" type="line"/>
      <point x="95.667" y="0" type="line"/>
      <point x="115.667" y="0" type="line"/>
      <point x="154.167" y="317.167" type="line"/>
      <point x="265.5" y="317.167" type="line" smooth="yes"/>
      <point x="431.833" y="317.167"/>
      <point x="507.833" y="429.333"/>
      <point x="507.833" y="536.167" type="curve" smooth="yes"/>
      <point x="507.833" y="657.667"/>
      <point x="401.667" y="701.667"/>
    </contour>
    <contour>
      <point x="270.833" y="336.667" type="curve" smooth="yes"/>
      <point x="156.833" y="336.667" type="line"/>
      <point x="199.167" y="682" type="line"/>
      <point x="314.167" y="682" type="line" smooth="yes"/>
      <point x="416.333" y="682"/>
      <point x="487.667" y="622.833"/>
      <point x="487.667" y="534.333" type="curve" smooth="yes"/>
      <point x="487.667" y="463.667"/>
      <point x="438.5" y="336.667"/>
    </contour>
  </outline>
</glyph>
<glyph name="Q" format="2">
  <advance width="903.16667"/>
  <unicode hex="0051"/>
  <outline>
    <contour>
      <point x="590.5" y="18" type="line"/>
      <point x="532.667" y="0" type="line"/>
      <point x="802.5" y="0" type="line"/>
      <point x="805.167" y="19.667" type="line"/>
    </contour>
    <contour>
      <point x="475.5" y="-7" type="curve" smooth="yes"/>
      <point x="721.667" y="-7"/>
      <point x="857.333" y="202.667"/>
      <point x="857.333" y="377.667" type="curve" smooth="yes"/>
      <point x="857.333" y="571.167"/>
      <point x="709.667" y="708.667"/>
      <point x="519.667" y="708.667" type="curve" smooth="yes"/>
      <point x="273.5" y="708.667"/>
      <point x="137.833" y="499"/>
      <point x="137.833" y="323.833" type="curve" smooth="yes"/>
      <point x="137.833" y="130.5"/>
      <point x="285.5" y="-7"/>
    </contour>
    <contour>
      <point x="475.667" y="11.667" type="curve" smooth="yes"/>
      <point x="293.5" y="11.667"/>
      <point x="157.833" y="154.667"/>
      <point x="157.833" y="324.167" type="curve" smooth="yes"/>
      <point x="157.833" y="490.667"/>
      <point x="289.667" y="690"/>
      <point x="518.5" y="690" type="curve" smooth="yes"/>
      <point x="700.667" y="690"/>
      <point x="837.333" y="546.833"/>
      <point x="837.333" y="377.333" type="curve" smooth="yes"/>
      <point x="837.333" y="211"/>
      <point x="704.5" y="11.667"/>
    </contour>
  </outline>
</glyph>
<glyph name="S" format="2">
  <advance width="546"/>
  <unicode hex="0053"/>
  <anchor x="251.667" y="0" name="bottom"/>
  <anchor x="335.667" y="700" name="top"/>
  <outline>
    <contour>
      <point x="500.167" y="638.667" type="curve"/>
      <point x="510.833" y="653.833" type="line"/>
      <point x="459.667" y="681.5"/>
      <point x="385.167" y="702.333"/>
      <point x="326.5" y="702.667" type="curve" smooth="yes"/>
      <point x="222" y="702.667"/>
      <point x="133.333" y="641"/>
      <point x="132.667" y="541.667" type="curve" smooth="yes"/>
      <point x="131.833" y="455.333"/>
      <point x="215.167" y="414.667"/>
      <point x="298.333" y="377.5" type="curve" smooth="yes"/>
      <point x="383" y="340.167"/>
      <point x="468.167" y="298.333"/>
      <point x="467.833" y="199.833" type="curve" smooth="yes"/>
      <point x="467.5" y="115.833"/>
      <point x="405.5" y="11"/>
      <point x="268.333" y="11.167" type="curve" smooth="yes"/>
      <point x="177.167" y="11.333"/>
      <point x="94.833" y="53.667"/>
      <point x="55.5" y="93.833" type="curve"/>
      <point x="43.5" y="77.5" type="line"/>
      <point x="81" y="41.5"/>
      <point x="154.667" y="-6.667"/>
      <point x="266.333" y="-7" type="curve" smooth="yes"/>
      <point x="431.333" y="-7.333"/>
      <point x="487.333" y="120"/>
      <point x="488" y="201.5" type="curve" smooth="yes"/>
      <point x="488.667" y="310.833"/>
      <point x="398" y="353.333"/>
      <point x="312.167" y="392.167" type="curve" smooth="yes"/>
      <point x="229" y="430.833"/>
      <point x="152.333" y="467.833"/>
      <point x="152.667" y="544.667" type="curve" smooth="yes"/>
      <point x="153" y="585.167"/>
      <point x="185.333" y="685.5"/>
      <point x="325.833" y="685.5" type="curve" smooth="yes"/>
      <point x="392.167" y="685.333"/>
      <point x="462.5" y="658.333"/>
    </contour>
  </outline>
</glyph>
<glyph name="T" format="2">
  <advance width="575"/>
  <unicode hex="0054"/>
  <anchor x="263.833" y="0" name="bottom"/>
  <anchor x="306.333" y="350" name="center"/>
  <anchor x="350" y="700" name="top"/>
  <outline>
    <contour>
      <point x="122.167" y="701.667" type="line"/>
      <point x="119.5" y="682.833" type="line"/>
      <point x="337.333" y="682.833" type="line"/>
      <point x="253.833" y="0" type="line"/>
      <point x="273.833" y="0" type="line"/>
      <point x="357.333" y="682.833" type="line"/>
      <point x="575.333" y="682.833" type="line"/>
      <point x="578" y="701.667" type="line"/>
    </contour>
  </outline>
</glyph>
<glyph name="U" format="2">
  <advance width="694.5"/>
  <unicode hex="0055"/>
  <anchor x="323.833" y="0" name="bottom"/>
  <anchor x="420" y="10" name="ogonek"/>
  <anchor x="410.167" y="701.333" name="top"/>
  <anchor x="621.167" y="595.667" name="topright"/>
  <outline>
    <contour>
      <point x="144.833" y="230" type="curve" smooth="yes"/>
      <point x="201.833" y="701.667" type="line"/>
      <point x="181.833" y="701.667" type="line"/>
      <point x="123.833" y="227.833" type="line" smooth="yes"/>
      <point x="104.833" y="74.5"/>
      <point x="193.167" y="-8"/>
      <point x="323.667" y="-8" type="curve" smooth="yes"/>
      <point x="323.667" y="-8" type="line" smooth="yes"/>
      <point x="471.5" y="-8"/>
      <point x="561.167" y="74.5"/>
      <point x="580.333" y="227.833" type="curve" smooth="yes"/>
      <point x="638.167" y="701.667" type="line"/>
      <point x="618.167" y="701.667" type="line"/>
      <point x="561.167" y="230" type="line" smooth="yes"/>
      <point x="543.667" y="90.167"/>
      <point x="458.167" y="10.667"/>
      <point x="325.5" y="10.667" type="curve" smooth="yes"/>
      <point x="204.167" y="10.667"/>
      <point x="127.167" y="90.167"/>
    </contour>
  </outline>
</glyph>
<glyph name="V" format="2">
  <advance width="690.66667"/>
  <unicode hex="0056"/>
  <anchor x="322.167" y="0" name="bottom"/>
  <anchor x="404.333" y="700" name="top"/>
  <outline>
    <contour>
      <point x="318.167" y="-29.833" type="line"/>
      <point x="319.333" y="-29.833" type="line"/>
      <point x="700.333" y="701.667" type="line"/>
      <point x="678.5" y="701.667" type="line"/>
      <point x="317.333" y="2.167" type="line"/>
      <point x="328.5" y="1.5" type="line"/>
      <point x="138.333" y="701.667" type="line"/>
      <point x="116.333" y="701.667" type="line"/>
    </contour>
  </outline>
</glyph>
<glyph name="W" format="2">
  <advance width="982.5"/>
  <unicode hex="0057"/>
  <anchor x="491" y="0" name="bottom"/>
  <anchor x="577.333" y="701.667" name="top"/>
  <outline>
    <contour>
      <point x="116.333" y="701.333" type="line"/>
      <point x="302.167" y="-32.167" type="line"/>
      <point x="513.833" y="401" type="line"/>
      <point x="506.167" y="424" type="line"/>
      <point x="304.167" y="10.333" type="line"/>
      <point x="310.833" y="9" type="line"/>
      <point x="138.167" y="701.333" type="line"/>
    </contour>
    <contour>
      <point x="431" y="701.333" type="line"/>
      <point x="617.167" y="-32" type="line"/>
      <point x="992.167" y="701.333" type="line"/>
      <point x="971" y="701.333" type="line"/>
      <point x="617.667" y="8" type="line"/>
      <point x="628.333" y="4" type="line"/>
      <point x="451.667" y="701.333" type="line"/>
    </contour>
  </outline>
</glyph>
<glyph name="X" format="2">
  <advance width="586.33333"/>
  <unicode hex="0058"/>
  <outline>
    <contour>
      <point x="121.167" y="701.667" type="line"/>
      <point x="491" y="0" type="line"/>
      <point x="515.5" y="0" type="line"/>
      <point x="144.5" y="701.667" type="line"/>
    </contour>
    <contour>
      <point x="25" y="0" type="line"/>
      <point x="50" y="0" type="line"/>
      <point x="315.333" y="352" type="line"/>
      <point x="301.5" y="364.167" type="line"/>
    </contour>
    <contour>
      <point x="309.167" y="368.5" type="line"/>
      <point x="322.333" y="355.333" type="line"/>
      <point x="586" y="701.667" type="line"/>
      <point x="561" y="701.667" type="line"/>
    </contour>
  </outline>
</glyph>
<glyph name="Y" format="2">
  <advance width="642.66667"/>
  <unicode hex="0059"/>
  <anchor x="307.5" y="0" name="bottom"/>
  <anchor x="393.667" y="701.667" name="top"/>
  <anchor x="103" y="701.667" name="topleft"/>
  <outline>
    <contour>
      <point x="318.667" y="260.5" type="line"/>
      <point x="286.833" y="0" type="line"/>
      <point x="308.5" y="0" type="line"/>
      <point x="340.333" y="260.5" type="line"/>
      <point x="657.333" y="701.667" type="line"/>
      <point x="632.167" y="701.667" type="line"/>
      <point x="326.5" y="275.5" type="line"/>
      <point x="336" y="276.5" type="line"/>
      <point x="133.667" y="701.667" type="line"/>
      <point x="111.5" y="701.667" type="line"/>
    </contour>
  </outline>
</glyph>
<glyph name="bracketleft" format="2">
  <advance width="352"/>
  <unicode hex="005B"/>
  <outline>
    <contour>
      <point x="187.833" y="746.667" type="line"/>
      <point x="77.667" y="-149.167" type="line"/>
      <point x="243" y="-149.167" type="line"/>
      <point x="245.5" y="-130.333" type="line"/>
      <point x="101" y="-130.333" type="line"/>
      <point x="206" y="727.833" type="line"/>
      <point x="350.5" y="727.833" type="line"/>
      <point x="353" y="746.667" type="line"/>
    </contour>
  </outline>
</glyph>
<glyph name="backslash" format="2">
  <advance width="324.83333"/>
  <unicode hex="005C"/>
  <outline>
    <contour>
      <point x="125.5" y="736.667" type="curve"/>
      <point x="105.833" y="736.667" type="line"/>
      <point x="168" y="484.5"/>
      <point x="229" y="233.167"/>
      <point x="291" y="-19" type="curve"/>
      <point x="310.667" y="-19" type="line"/>
      <point x="248.667" y="233.167"/>
      <point x="187.667" y="484.5"/>
    </contour>
  </outline>
</glyph>
<glyph name="bracketright" format="2">
  <advance width="393"/>
  <unicode hex="005D"/>
  <outline>
    <contour>
      <point x="177" y="746.667" type="line"/>
      <point x="174.5" y="727.833" type="line"/>
      <point x="318.833" y="727.833" type="line"/>
      <point x="214" y="-130.333" type="line"/>
      <point x="69.5" y="-130.333" type="line"/>
      <point x="66.833" y="-149.167" type="line"/>
      <point x="232.167" y="-149.167" type="line"/>
      <point x="342.167" y="746.667" type="line"/>
    </contour>
  </outline>
</glyph>
<glyph name="asciicircum" format="2">
  <advance width="470"/>
  <unicode hex="005E"/>
  <outline>
    <contour>
      <point x="392.333" y="479.5" type="curve"/>
      <point x="411.333" y="479.5" type="line"/>
      <point x="378.333" y="539.5"/>
      <point x="346.333" y="600.5"/>
      <point x="313.333" y="660.5" type="curve"/>
      <point x="313.333" y="660.5" type="line"/>
      <point x="266.167" y="600.5"/>
      <point x="218.167" y="539.5"/>
      <point x="171.167" y="479.5" type="curve"/>
      <point x="190.167" y="479.5" type="line"/>
      <point x="229.333" y="528.167"/>
      <point x="270.5" y="579.833"/>
      <point x="309.667" y="628.667" type="curve"/>
      <point x="337.333" y="579.833"/>
      <point x="364.667" y="528.167"/>
    </contour>
  </outline>
</glyph>
<glyph name="underscore" format="2">
  <advance width="601"/>
  <unicode hex="005F"/>
  <outline>
    <contour>
      <point x="102.667" y="18.667" type="line"/>
      <point x="100.167" y="0" type="line"/>
      <point x="500.5" y="0" type="line"/>
      <point x="503" y="18.667" type="line"/>
    </contour>
  </outline>
</glyph>
<glyph name="grave" format="2">
  <advance width="200.16667"/>
  <unicode hex="0060"/>
  <outline>
    <contour>
      <point x="81.833" y="612.5" type="line"/>
      <point x="59.667" y="612.5" type="line"/>
      <point x="136.167" y="479.5" type="line"/>
      <point x="155.167" y="479.5" type="line"/>
    </contour>
  </outline>
</glyph>
<glyph name="a" format="2">
  <advance width="545.16667"/>
  <unicode hex="0061"/>
  <anchor x="221.333" y="-0.833" name="bottom"/>
  <anchor x="424.833" y="0.5" name="ogonek"/>
  <anchor x="268" y="379.167" name="top"/>
  <outline>
    <contour>
      <point x="237.833" y="-5.167" type="curve" smooth="yes"/>
      <point x="318.167" y="-5.333"/>
      <point x="389.833" y="41.167"/>
      <point x="423.667" y="105.167" type="curve"/>
      <point x="423.333" y="119.833" type="line"/>
      <point x="408.5" y="0" type="line"/>
      <point x="428" y="0" type="line"/>
      <point x="473.333" y="377.667" type="line"/>
      <point x="458.167" y="377.667" type="line"/>
      <point x="437.167" y="242.833" type="line"/>
      <point x="442" y="255.167" type="line"/>
      <point x="420.667" y="331.333"/>
      <point x="350.333" y="386.333"/>
      <point x="261" y="386.333" type="curve" smooth="yes"/>
      <point x="108.333" y="386.333"/>
      <point x="55" y="257.5"/>
      <point x="55" y="177.167" type="curve" smooth="yes"/>
      <point x="55" y="75.5"/>
      <point x="131.833" y="-5.333"/>
    </contour>
    <contour>
      <point x="243.333" y="12.167" type="curve" smooth="yes"/>
      <point x="145.667" y="12.167"/>
      <point x="74.833" y="86.833"/>
      <point x="74.833" y="178.833" type="curve" smooth="yes"/>
      <point x="74.833" y="246.167"/>
      <point x="122.333" y="368"/>
      <point x="262" y="368" type="curve" smooth="yes"/>
      <point x="355.167" y="368"/>
      <point x="428.667" y="298"/>
      <point x="433.833" y="211" type="curve"/>
      <point x="429.5" y="169.833" type="line"/>
      <point x="416.833" y="77.167"/>
      <point x="335.833" y="12.167"/>
    </contour>
  </outline>
</glyph>
<glyph name="b" format="2">
  <advance width="544"/>
  <unicode hex="0062"/>
  <anchor x="268.667" y="0" name="bottom"/>
  <anchor x="315.333" y="380.5" name="top"/>
  <outline>
    <contour>
      <point x="283.167" y="-5.333" type="curve" smooth="yes"/>
      <point x="435.167" y="-5.333"/>
      <point x="489.667" y="102.167"/>
      <point x="489.667" y="202.667" type="curve" smooth="yes"/>
      <point x="489.667" y="310.667"/>
      <point x="417.5" y="385.333"/>
      <point x="305.667" y="385.333" type="curve" smooth="yes"/>
      <point x="228.667" y="385.333"/>
      <point x="158.167" y="341.333"/>
      <point x="123" y="277" type="curve"/>
      <point x="122" y="260.667" type="line"/>
      <point x="182.5" y="751.667" type="line"/>
      <point x="163" y="751.667" type="line"/>
      <point x="70.833" y="0" type="line"/>
      <point x="90.333" y="0" type="line"/>
      <point x="108" y="151" type="line"/>
      <point x="102.5" y="130.5" type="line"/>
      <point x="123.333" y="54.167"/>
      <point x="194.333" y="-5.333"/>
    </contour>
    <contour>
      <point x="285.333" y="12.333" type="curve" smooth="yes"/>
      <point x="144.333" y="12.333"/>
      <point x="112.333" y="131.167"/>
      <point x="111.333" y="174.167" type="curve"/>
      <point x="118.667" y="231.167" type="line"/>
      <point x="141.667" y="310.5"/>
      <point x="216" y="368.167"/>
      <point x="301.5" y="368.167" type="curve" smooth="yes"/>
      <point x="410.5" y="368.167"/>
      <point x="469.833" y="293.667"/>
      <point x="469.833" y="202.167" type="curve" smooth="yes"/>
      <point x="469.833" y="120.667"/>
      <point x="427" y="12.333"/>
    </contour>
  </outline>
</glyph>
<glyph name="c" format="2">
  <advance width="423"/>
  <unicode hex="0063"/>
  <anchor x="187.667" y="0" name="bottom"/>
  <anchor x="234.833" y="378.333" name="top"/>
  <outline>
    <contour>
      <point x="357.833" y="28" type="curve"/>
      <point x="346.667" y="41.667" type="line"/>
      <point x="316.167" y="22"/>
      <point x="281.667" y="10.167"/>
      <point x="243.167" y="10.167" type="curve" smooth="yes"/>
      <point x="145.333" y="10.167"/>
      <point x="74.667" y="84.833"/>
      <point x="74.667" y="176.333" type="curve" smooth="yes"/>
      <point x="74.667" y="281"/>
      <point x="162.167" y="365.5"/>
      <point x="263.167" y="365.5" type="curve" smooth="yes"/>
      <point x="310.167" y="365.5"/>
      <point x="352.833" y="346.333"/>
      <point x="382.167" y="317.833" type="curve"/>
      <point x="395.333" y="332.167" type="line"/>
      <point x="363" y="364.5"/>
      <point x="316.333" y="383"/>
      <point x="261.833" y="383" type="curve" smooth="yes"/>
      <point x="149.333" y="383"/>
      <point x="55" y="289"/>
      <point x="55" y="176" type="curve" smooth="yes"/>
      <point x="55" y="71.833"/>
      <point x="135.667" y="-7.333"/>
      <point x="241.167" y="-7.333" type="curve" smooth="yes"/>
      <point x="283.667" y="-7.333"/>
      <point x="323.5" y="5.833"/>
    </contour>
  </outline>
</glyph>
<glyph name="d" format="2">
  <advance width="547"/>
  <unicode hex="0064"/>
  <anchor x="233" y="0" name="bottom"/>
  <anchor x="484.5" y="571.167" name="center"/>
  <anchor x="277" y="380.5" name="top"/>
  <anchor x="564.333" y="717" name="topright"/>
  <outline>
    <contour>
      <point x="228.833" y="-3.333" type="curve" smooth="yes"/>
      <point x="311" y="-9.167"/>
      <point x="387.167" y="37"/>
      <point x="424.833" y="105.667" type="curve"/>
      <point x="423.5" y="121.333" type="line"/>
      <point x="408.667" y="0" type="line"/>
      <point x="428.167" y="0" type="line"/>
      <point x="521.5" y="751.667" type="line"/>
      <point x="501.833" y="751.667" type="line"/>
      <point x="438.5" y="240.667" type="line"/>
      <point x="444.333" y="251.5" type="line"/>
      <point x="423.667" y="323"/>
      <point x="357.833" y="381.5"/>
      <point x="275.833" y="386.333" type="curve" smooth="yes"/>
      <point x="167.833" y="393"/>
      <point x="70.167" y="318.167"/>
      <point x="56.833" y="201" type="curve" smooth="yes"/>
      <point x="44.333" y="93.667"/>
      <point x="120" y="2.333"/>
    </contour>
    <contour>
      <point x="231.667" y="13.333" type="curve" smooth="yes"/>
      <point x="134" y="20"/>
      <point x="65.167" y="103.167"/>
      <point x="76.5" y="201" type="curve" smooth="yes"/>
      <point x="89" y="307.667"/>
      <point x="175.5" y="375.833"/>
      <point x="275.5" y="369" type="curve" smooth="yes"/>
      <point x="364" y="364.333"/>
      <point x="429.833" y="292.333"/>
      <point x="434.167" y="207.333" type="curve"/>
      <point x="430.667" y="173.833" type="line"/>
      <point x="417.833" y="77.333"/>
      <point x="329.167" y="7.5"/>
    </contour>
  </outline>
</glyph>
<glyph name="e" format="2">
  <advance width="469.66667"/>
  <unicode hex="0065"/>
  <anchor x="213" y="-0.833" name="bottom"/>
  <anchor x="367.833" y="12" name="ogonek"/>
  <anchor x="258.667" y="379.667" name="top"/>
  <outline>
    <contour>
      <point x="242" y="11.333" type="curve" smooth="yes"/>
      <point x="138.667" y="11.333"/>
      <point x="74.5" y="91.833"/>
      <point x="74.5" y="179.333" type="curve" smooth="yes"/>
      <point x="74.5" y="283.333"/>
      <point x="161" y="367.167"/>
      <point x="263" y="367.167" type="curve" smooth="yes"/>
      <point x="338.5" y="367.167"/>
      <point x="389.667" y="314.333"/>
      <point x="410.167" y="251.167" type="curve"/>
      <point x="418.167" y="260.167" type="line"/>
      <point x="69.667" y="148.167" type="line"/>
      <point x="73.5" y="129.667" type="line"/>
      <point x="432.167" y="247.333" type="line"/>
      <point x="411" y="328.167"/>
      <point x="353.833" y="385.333"/>
      <point x="262.333" y="385.333" type="curve" smooth="yes"/>
      <point x="149" y="385.333"/>
      <point x="55" y="291.167"/>
      <point x="55" y="176.833" type="curve" smooth="yes"/>
      <point x="55" y="74.5"/>
      <point x="131.833" y="-6.167"/>
      <point x="240.5" y="-6.167" type="curve" smooth="yes"/>
      <point x="287.333" y="-6.167"/>
      <point x="332.667" y="9.667"/>
      <point x="369" y="37.333" type="curve"/>
      <point x="358.167" y="51.667" type="line"/>
      <point x="326.5" y="26.167"/>
      <point x="285.167" y="11.333"/>
    </contour>
  </outline>
</glyph>
<glyph name="f" format="2">
  <advance width="291"/>
  <unicode hex="0066"/>
  <anchor x="84.333" y="0" name="bottom"/>
  <anchor x="285.167" y="753.333" name="top"/>
  <outline>
    <contour>
      <point x="92.667" y="0" type="line"/>
      <point x="112.167" y="0" type="line"/>
      <point x="155.833" y="357" type="line"/>
      <point x="286" y="357" type="line"/>
      <point x="287.667" y="375" type="line"/>
      <point x="157.5" y="375" type="line"/>
      <point x="184.167" y="588.833" type="line" smooth="yes"/>
      <point x="197.833" y="703.333"/>
      <point x="231.667" y="741.667"/>
      <point x="294.667" y="741.667" type="curve" smooth="yes"/>
      <point x="307.833" y="741.667"/>
      <point x="317.167" y="738.667"/>
      <point x="323.5" y="735" type="curve"/>
      <point x="334.333" y="749" type="line"/>
      <point x="321.333" y="754"/>
      <point x="307.667" y="757.333"/>
      <point x="294.667" y="757.333" type="curve" smooth="yes"/>
      <point x="222.167" y="757.333"/>
      <point x="179.5" y="714.5"/>
      <point x="163.667" y="585.333" type="curve" smooth="yes"/>
      <point x="138" y="375" type="line"/>
      <point x="72.667" y="375" type="line"/>
      <point x="71" y="357" type="line"/>
      <point x="136.333" y="357" type="line"/>
    </contour>
  </outline>
</glyph>
<glyph name="g" format="2">
  <advance width="546"/>
  <unicode hex="0067"/>
  <anchor x="220" y="-170.167" name="bottom"/>
  <anchor x="295.667" y="380.5" name="top"/>
  <outline>
    <contour>
      <point x="230.333" y="-180.833" type="curve" smooth="yes"/>
      <point x="366.167" y="-180.833"/>
      <point x="415.5" y="-102.333"/>
      <point x="425.667" y="-19.167" type="curve" smooth="yes"/>
      <point x="475" y="377.667" type="line"/>
      <point x="459.833" y="377.667" type="line"/>
      <point x="437.5" y="245.5" type="line"/>
      <point x="441" y="255.833" type="line"/>
      <point x="420" y="331.167"/>
      <point x="349.167" y="385.333"/>
      <point x="261.167" y="385.333" type="curve" smooth="yes"/>
      <point x="109.167" y="385.333"/>
      <point x="55" y="250"/>
      <point x="55" y="178.833" type="curve" smooth="yes"/>
      <point x="55" y="75.667"/>
      <point x="132.667" y="-5.333"/>
      <point x="239.333" y="-5.333" type="curve" smooth="yes"/>
      <point x="318" y="-5.333"/>
      <point x="393.667" y="41.833"/>
      <point x="428.833" y="114.167" type="curve"/>
      <point x="423" y="119" type="line"/>
      <point x="405.333" y="-17.167" type="line"/>
      <point x="393.5" y="-96.5"/>
      <point x="352" y="-163"/>
      <point x="230" y="-163" type="curve" smooth="yes"/>
      <point x="183.667" y="-163"/>
      <point x="127.333" y="-158.667"/>
      <point x="60.167" y="-81" type="curve"/>
      <point x="47.333" y="-92.833" type="line"/>
      <point x="116.167" y="-173.833"/>
      <point x="175" y="-180.833"/>
    </contour>
    <contour>
      <point x="74.667" y="241.333"/>
      <point x="118.333" y="368"/>
      <point x="263.333" y="368" type="curve" smooth="yes"/>
      <point x="356.667" y="368"/>
      <point x="429.167" y="298"/>
      <point x="434.5" y="210" type="curve"/>
      <point x="429.167" y="167" type="line"/>
      <point x="417.333" y="82.833"/>
      <point x="335.167" y="12.167"/>
      <point x="241.5" y="12.167" type="curve" smooth="yes"/>
      <point x="144.5" y="12.167"/>
      <point x="74.667" y="87.5"/>
      <point x="74.667" y="178.833" type="curve" smooth="yes"/>
    </contour>
  </outline>
</glyph>
<glyph name="h" format="2">
  <advance width="487"/>
  <unicode hex="0068"/>
  <anchor x="221" y="0" name="bottom"/>
  <anchor x="151.667" y="573.5" name="center"/>
  <anchor x="165.667" y="617.833" name="top"/>
  <outline>
    <contour>
      <point x="123.333" y="286.667" type="curve"/>
      <point x="124.5" y="277.333" type="line"/>
      <point x="182.5" y="751.667" type="line"/>
      <point x="163" y="751.667" type="line"/>
      <point x="70.833" y="0" type="line"/>
      <point x="90.333" y="0" type="line"/>
      <point x="117.167" y="218.167" type="line" smooth="yes"/>
      <point x="128.167" y="304.5"/>
      <point x="212.5" y="366.667"/>
      <point x="301.5" y="366.667" type="curve"/>
      <point x="358.833" y="363.833"/>
      <point x="388.167" y="324.5"/>
      <point x="384.167" y="276.833" type="curve"/>
      <point x="350.333" y="0" type="line"/>
      <point x="369.833" y="0" type="line"/>
      <point x="403.167" y="272.5" type="line"/>
      <point x="409.167" y="339"/>
      <point x="370.5" y="385.333"/>
      <point x="299.833" y="385.333" type="curve" smooth="yes"/>
      <point x="224.333" y="385.333"/>
      <point x="154.833" y="342.667"/>
    </contour>
  </outline>
</glyph>
<glyph name="k" format="2">
  <advance width="423"/>
  <unicode hex="006B"/>
  <anchor x="188.833" y="0" name="bottom"/>
  <anchor x="235.333" y="377.667" name="top"/>
  <outline>
    <contour>
      <point x="70.833" y="0" type="line"/>
      <point x="90.333" y="0" type="line"/>
      <point x="182.667" y="751.667" type="line"/>
      <point x="163" y="751.667" type="line"/>
    </contour>
    <contour>
      <point x="203" y="241.5" type="line"/>
      <point x="187" y="231.333" type="line"/>
      <point x="328.167" y="0" type="line"/>
      <point x="350.667" y="0" type="line"/>
    </contour>
    <contour>
      <point x="99.667" y="147.833" type="line"/>
      <point x="371" y="374" type="line"/>
      <point x="358.167" y="384.833" type="line"/>
      <point x="100.667" y="169.833" type="line"/>
    </contour>
  </outline>
</glyph>
<glyph name="l" format="2">
  <advance width="208"/>
  <unicode hex="006C"/>
  <anchor x="80.833" y="0" name="bottom"/>
  <anchor x="104" y="193.333" name="center"/>
  <anchor x="165.667" y="751.167" name="top"/>
  <anchor x="255.333" y="749.333" name="topright"/>
  <outline>
    <contour>
      <point x="163" y="751.667" type="line"/>
      <point x="70.833" y="0" type="line"/>
      <point x="90.333" y="0" type="line"/>
      <point x="182.667" y="751.667" type="line"/>
    </contour>
  </outline>
</glyph>
<glyph name="m" format="2">
  <advance width="766"/>
  <unicode hex="006D"/>
  <anchor x="361.833" y="0" name="bottom"/>
  <anchor x="405.667" y="380.5" name="top"/>
  <outline>
    <contour>
      <point x="132.333" y="377.667" type="line"/>
      <point x="117.167" y="377.667" type="line"/>
      <point x="70.833" y="0" type="line"/>
      <point x="90.333" y="0" type="line"/>
      <point x="117.167" y="218.333" type="line" smooth="yes"/>
      <point x="128.167" y="303.833"/>
      <point x="212.333" y="366.667"/>
      <point x="301.167" y="366.667" type="curve"/>
      <point x="358.333" y="363.667"/>
      <point x="387.333" y="324.333"/>
      <point x="383.333" y="276.667" type="curve"/>
      <point x="349.333" y="0" type="line"/>
      <point x="369" y="0" type="line"/>
      <point x="396.667" y="224" type="line"/>
      <point x="410.5" y="306.667"/>
      <point x="492.667" y="366.667"/>
      <point x="579.833" y="366.667" type="curve"/>
      <point x="637" y="363.667"/>
      <point x="665.833" y="324.333"/>
      <point x="661.833" y="276.667" type="curve"/>
      <point x="627.833" y="0" type="line"/>
      <point x="647.5" y="0" type="line"/>
      <point x="682.333" y="278.333" type="line" smooth="yes"/>
      <point x="689.333" y="339"/>
      <point x="648.333" y="385.333"/>
      <point x="577.667" y="385.333" type="curve" smooth="yes"/>
      <point x="505" y="385.333"/>
      <point x="438.333" y="345"/>
      <point x="402.667" y="286.333" type="curve"/>
      <point x="404.167" y="285.333" type="line"/>
      <point x="409.167" y="342.167"/>
      <point x="363.5" y="385.333"/>
      <point x="299.5" y="385.333" type="curve" smooth="yes"/>
      <point x="224.333" y="385.333"/>
      <point x="156.667" y="343"/>
      <point x="121.167" y="281.333" type="curve"/>
      <point x="121.833" y="271.833" type="line"/>
    </contour>
  </outline>
</glyph>
<glyph name="n" format="2">
  <advance width="487"/>
  <unicode hex="006E"/>
  <anchor x="220.333" y="0" name="bottom"/>
  <anchor x="267" y="380.5" name="top"/>
  <outline>
    <contour>
      <point x="132.333" y="377.667" type="line"/>
      <point x="117.167" y="377.667" type="line"/>
      <point x="70.833" y="0" type="line"/>
      <point x="90.333" y="0" type="line"/>
      <point x="117.167" y="218.167" type="line" smooth="yes"/>
      <point x="127.167" y="304.5"/>
      <point x="204.833" y="366.667"/>
      <point x="291" y="366.667" type="curve" smooth="yes"/>
      <point x="355" y="366.667"/>
      <point x="391" y="327.333"/>
      <point x="383.333" y="272.167" type="curve" smooth="yes"/>
      <point x="350.333" y="0" type="line"/>
      <point x="369.833" y="0" type="line"/>
      <point x="403.167" y="272.5" type="line" smooth="yes"/>
      <point x="412" y="340"/>
      <point x="370.5" y="385.333"/>
      <point x="294.167" y="385.333" type="curve" smooth="yes"/>
      <point x="216.667" y="385.333"/>
      <point x="152.333" y="342.667"/>
      <point x="120" y="281" type="curve"/>
      <point x="124.833" y="273.5" type="line"/>
    </contour>
  </outline>
</glyph>
<glyph name="p" format="2">
  <advance width="543"/>
  <unicode hex="0070"/>
  <anchor x="247.5" y="0" name="bottom"/>
  <anchor x="293.833" y="377.667" name="top"/>
  <outline>
    <contour>
      <point x="268.333" y="-6.333" type="curve" smooth="yes"/>
      <point x="386.833" y="-6.333"/>
      <point x="489.833" y="93"/>
      <point x="489.833" y="214.167" type="curve" smooth="yes"/>
      <point x="489.833" y="312.167"/>
      <point x="417" y="386.333"/>
      <point x="316.5" y="386.333" type="curve" smooth="yes"/>
      <point x="235.5" y="386.333"/>
      <point x="155.833" y="336.333"/>
      <point x="120.333" y="265.833" type="curve"/>
      <point x="119.667" y="236.833" type="line"/>
      <point x="135.833" y="378.167" type="line"/>
      <point x="117.167" y="378.167" type="line"/>
      <point x="49.5" y="-181.333" type="line"/>
      <point x="69" y="-181.333" type="line"/>
      <point x="97.833" y="63.5" type="line"/>
      <point x="101.5" y="114" type="line"/>
      <point x="120.833" y="43.667"/>
      <point x="186.167" y="-6.333"/>
    </contour>
    <contour>
      <point x="269.167" y="11.333" type="curve" smooth="yes"/>
      <point x="138.833" y="11.333"/>
      <point x="105" y="125.333"/>
      <point x="111.833" y="175" type="curve"/>
      <point x="115.333" y="198.833" type="line"/>
      <point x="128.167" y="296.333"/>
      <point x="215.667" y="369"/>
      <point x="313.333" y="369" type="curve" smooth="yes"/>
      <point x="404.667" y="369"/>
      <point x="470.167" y="301.167"/>
      <point x="470.167" y="211.333" type="curve" smooth="yes"/>
      <point x="470.167" y="103.167"/>
      <point x="375.333" y="11.333"/>
    </contour>
  </outline>
</glyph>
<glyph name="q" format="2">
  <advance width="544"/>
  <unicode hex="0071"/>
  <anchor x="223.167" y="0" name="bottom"/>
  <anchor x="269.5" y="377.667" name="top"/>
  <outline>
    <contour>
      <point x="227.333" y="-6.167" type="curve" smooth="yes"/>
      <point x="312.333" y="-6.333"/>
      <point x="389" y="45.833"/>
      <point x="424.667" y="114.667" type="curve"/>
      <point x="421.167" y="121.833" type="line"/>
      <point x="385.167" y="-181.333" type="line"/>
      <point x="404.667" y="-181.333" type="line"/>
      <point x="472.333" y="377.667" type="line"/>
      <point x="453.167" y="377.667" type="line"/>
      <point x="436.167" y="238.5" type="line"/>
      <point x="442.333" y="262.833" type="line"/>
      <point x="422" y="333.167"/>
      <point x="356.833" y="386.333"/>
      <point x="274.167" y="386.333" type="curve" smooth="yes"/>
      <point x="156.833" y="386.333"/>
      <point x="54" y="285.167"/>
      <point x="54" y="164.833" type="curve" smooth="yes"/>
      <point x="54" y="67"/>
      <point x="128.5" y="-6.333"/>
    </contour>
    <contour>
      <point x="230.167" y="11.167" type="curve" smooth="yes"/>
      <point x="139.667" y="11.167"/>
      <point x="73.333" y="79"/>
      <point x="73.333" y="166" type="curve" smooth="yes"/>
      <point x="73.333" y="276.167"/>
      <point x="167.333" y="368.833"/>
      <point x="274.333" y="368.833" type="curve" smooth="yes"/>
      <point x="405.667" y="368.833"/>
      <point x="438.667" y="257.667"/>
      <point x="431.833" y="201.333" type="curve"/>
      <point x="429.167" y="179.333" type="line"/>
      <point x="412.5" y="85.667"/>
      <point x="324.833" y="11.167"/>
    </contour>
  </outline>
</glyph>
<glyph name="r" format="2">
  <advance width="321.33333"/>
  <unicode hex="0072"/>
  <anchor x="81" y="0" name="bottom"/>
  <anchor x="182.333" y="380.5" name="top"/>
  <outline>
    <contour>
      <point x="132.333" y="377.667" type="line"/>
      <point x="117.167" y="377.667" type="line"/>
      <point x="70.833" y="0" type="line"/>
      <point x="90.333" y="0" type="line"/>
      <point x="117.167" y="217.833" type="line" smooth="yes"/>
      <point x="127" y="304.333"/>
      <point x="209.5" y="364.333"/>
      <point x="297.833" y="366.833" type="curve"/>
      <point x="299.833" y="385.333" type="line"/>
      <point x="226" y="383.5"/>
      <point x="151.333" y="342.5"/>
      <point x="119.667" y="271.167" type="curve"/>
    </contour>
  </outline>
</glyph>
<glyph name="s" format="2">
  <advance width="345.66667"/>
  <unicode hex="0073"/>
  <anchor x="149.167" y="0" name="bottom"/>
  <anchor x="197.333" y="380.5" name="top"/>
  <outline>
    <contour>
      <point x="150" y="-7.167" type="curve" smooth="yes"/>
      <point x="230.5" y="-11.333"/>
      <point x="272.5" y="35"/>
      <point x="279.167" y="95.5" type="curve" smooth="yes"/>
      <point x="286.667" y="164.167"/>
      <point x="228.5" y="183.833"/>
      <point x="175.833" y="206.667" type="curve" smooth="yes"/>
      <point x="134.167" y="224.5"/>
      <point x="97" y="244.667"/>
      <point x="101.833" y="291.833" type="curve" smooth="yes"/>
      <point x="106.833" y="343.167"/>
      <point x="156.167" y="365.833"/>
      <point x="193.5" y="364.167" type="curve" smooth="yes"/>
      <point x="221" y="362.5"/>
      <point x="261.333" y="348.667"/>
      <point x="281.167" y="319.333" type="curve"/>
      <point x="293.5" y="332.167" type="line"/>
      <point x="266.833" y="367.5"/>
      <point x="222" y="379.833"/>
      <point x="195.167" y="381.5" type="curve" smooth="yes"/>
      <point x="141.167" y="384.167"/>
      <point x="87.833" y="351.5"/>
      <point x="81.167" y="290.333" type="curve" smooth="yes"/>
      <point x="75.333" y="232.667"/>
      <point x="117.167" y="209.667"/>
      <point x="163.833" y="190.5" type="curve" smooth="yes"/>
      <point x="213.167" y="169.833"/>
      <point x="265.333" y="152.333"/>
      <point x="259.5" y="92.167" type="curve" smooth="yes"/>
      <point x="252" y="29.5"/>
      <point x="201.833" y="7.667"/>
      <point x="152.5" y="10.167" type="curve" smooth="yes"/>
      <point x="107.333" y="11.833"/>
      <point x="68.333" y="31.5"/>
      <point x="50.333" y="58.833" type="curve"/>
      <point x="37" y="47.333" type="line"/>
      <point x="62.5" y="9.333"/>
      <point x="112.5" y="-5.5"/>
    </contour>
  </outline>
</glyph>
<glyph name="t" format="2">
  <advance width="304"/>
  <unicode hex="0074"/>
  <anchor x="122.333" y="0" name="bottom"/>
  <anchor x="145.667" y="188.5" name="center"/>
  <anchor x="180.167" y="542.167" name="top"/>
  <anchor x="273.333" y="501.833" name="topright"/>
  <outline>
    <contour>
      <point x="176.167" y="543" type="line"/>
      <point x="155.167" y="370.167" type="line"/>
      <point x="67" y="370.167" type="line"/>
      <point x="64.5" y="352" type="line"/>
      <point x="152.667" y="352" type="line"/>
      <point x="109.833" y="0" type="line"/>
      <point x="129.333" y="0" type="line"/>
      <point x="172.167" y="352" type="line"/>
      <point x="298.333" y="352" type="line"/>
      <point x="300.833" y="370.167" type="line"/>
      <point x="174.667" y="370.167" type="line"/>
      <point x="195.833" y="543" type="line"/>
    </contour>
  </outline>
</glyph>
<glyph name="v" format="2">
  <advance width="431"/>
  <unicode hex="0076"/>
  <anchor x="191" y="0" name="bottom"/>
  <anchor x="237.667" y="380.5" name="top"/>
  <outline>
    <contour>
      <point x="187.5" y="-16.667" type="line"/>
      <point x="193.333" y="-16.667" type="line"/>
      <point x="419.833" y="377.667" type="line"/>
      <point x="397.667" y="377.667" type="line"/>
      <point x="186.833" y="7.167" type="line"/>
      <point x="198.167" y="7" type="line"/>
      <point x="77.667" y="377.667" type="line"/>
      <point x="56.833" y="377.667" type="line"/>
    </contour>
  </outline>
</glyph>
<glyph name="w" format="2">
  <advance width="659"/>
  <unicode hex="0077"/>
  <anchor x="299.667" y="0" name="bottom"/>
  <anchor x="346" y="377.667" name="top"/>
  <outline>
    <contour>
      <point x="420" y="-22.5" type="line"/>
      <point x="423.167" y="-22.5" type="line"/>
      <point x="648.333" y="377.667" type="line"/>
      <point x="627.833" y="377.667" type="line"/>
      <point x="422" y="9.5" type="line"/>
      <point x="428.833" y="9.667" type="line"/>
      <point x="309.5" y="377.667" type="line"/>
      <point x="289.833" y="377.667" type="line"/>
      <point x="324.833" y="272" type="line"/>
      <point x="189" y="12" type="line"/>
      <point x="196" y="7.833" type="line"/>
      <point x="77.167" y="377.667" type="line"/>
      <point x="56.833" y="377.667" type="line"/>
      <point x="186.333" y="-22.333" type="line"/>
      <point x="188.667" y="-22.333" type="line"/>
      <point x="332.333" y="252" type="line"/>
    </contour>
  </outline>
</glyph>
<glyph name="x" format="2">
  <advance width="359"/>
  <unicode hex="0078"/>
  <outline>
    <contour>
      <point x="329.333" y="0" type="line"/>
      <point x="99" y="377.667" type="line"/>
      <point x="74.333" y="377.667" type="line"/>
      <point x="306.667" y="0" type="line"/>
    </contour>
    <contour>
      <point x="203.833" y="202.333" type="line"/>
      <point x="212.833" y="186.5" type="line"/>
      <point x="372.833" y="376.833" type="line"/>
      <point x="349.667" y="376.833" type="line"/>
    </contour>
    <contour>
      <point x="202.333" y="176.333" type="line"/>
      <point x="192.833" y="191" type="line"/>
      <point x="32" y="0" type="line"/>
      <point x="55.833" y="0" type="line"/>
    </contour>
  </outline>
</glyph>
<glyph name="y" format="2">
  <advance width="421.5"/>
  <unicode hex="0079"/>
  <anchor x="304.5" y="-8.667" name="bottom"/>
  <anchor x="244.333" y="377.667" name="top"/>
  <outline>
    <contour>
      <point x="97" y="-181.333" type="line"/>
      <point x="119.833" y="-181.333" type="line"/>
      <point x="431.167" y="377.667" type="line"/>
      <point x="408.667" y="377.667" type="line"/>
    </contour>
    <contour>
      <point x="196.667" y="-4.833" type="line"/>
      <point x="214.167" y="6.833" type="line"/>
      <point x="90.333" y="377.667" type="line"/>
      <point x="68.167" y="377.667" type="line"/>
    </contour>
  </outline>
</glyph>
<glyph name="z" format="2">
  <advance width="368.16667"/>
  <unicode hex="007A"/>
  <anchor x="127.833" y="0" name="bottom"/>
  <anchor x="174.333" y="377.667" name="top"/>
  <outline>
    <contour>
      <point x="117.5" y="359.333" type="curve" smooth="yes"/>
      <point x="326.833" y="359.333" type="line"/>
      <point x="322.167" y="366.833" type="line"/>
      <point x="17.833" y="0" type="line"/>
      <point x="304" y="0" type="line"/>
      <point x="306.5" y="18.333" type="line"/>
      <point x="43.5" y="18.333" type="line"/>
      <point x="52" y="13.333" type="line"/>
      <point x="355.167" y="377.667" type="line"/>
      <point x="108.833" y="377.667" type="line" smooth="yes"/>
      <point x="86.667" y="377.667"/>
      <point x="79.667" y="388.333"/>
      <point x="79.833" y="401" type="curve" smooth="yes"/>
      <point x="79.833" y="413" type="line"/>
      <point x="62.833" y="413" type="line"/>
      <point x="62.5" y="406.5" type="line" smooth="yes"/>
      <point x="60.167" y="367.667"/>
      <point x="76.167" y="359.333"/>
    </contour>
  </outline>
</glyph>
<glyph name="braceleft" format="2">
  <advance width="277"/>
  <unicode hex="007B"/>
  <outline>
    <contour>
      <point x="268.667" y="727.833" type="curve" smooth="yes"/>
      <point x="324.833" y="727.833" type="line"/>
      <point x="327.333" y="746.667" type="line"/>
      <point x="288.5" y="746.667" type="line" smooth="yes"/>
      <point x="244" y="746.667"/>
      <point x="200.333" y="749.833"/>
      <point x="185.167" y="628.5" type="curve" smooth="yes"/>
      <point x="163.333" y="448.333" type="line" smooth="yes"/>
      <point x="156.333" y="394.167"/>
      <point x="133.333" y="316.167"/>
      <point x="67.333" y="313.167" type="curve"/>
      <point x="63.833" y="285" type="line"/>
      <point x="63.833" y="285" type="line"/>
      <point x="128.833" y="282"/>
      <point x="133.833" y="204"/>
      <point x="126.833" y="150" type="curve" smooth="yes"/>
      <point x="108.833" y="3.333" type="line" smooth="yes"/>
      <point x="90" y="-152.333"/>
      <point x="124.667" y="-148.167"/>
      <point x="178.333" y="-148.167" type="curve" smooth="yes"/>
      <point x="217.333" y="-148.167" type="line"/>
      <point x="219.833" y="-129.5" type="line"/>
      <point x="163.667" y="-129.5" type="line" smooth="yes"/>
      <point x="122.667" y="-129.5"/>
      <point x="114.5" y="-98.5"/>
      <point x="124.667" y="-18" type="curve" smooth="yes"/>
      <point x="143.333" y="130.667" type="line" smooth="yes"/>
      <point x="158" y="250.667"/>
      <point x="129.5" y="279.5"/>
      <point x="98.167" y="299.167" type="curve"/>
      <point x="134.5" y="318.167"/>
      <point x="170.167" y="345.833"/>
      <point x="184.833" y="467.833" type="curve" smooth="yes"/>
      <point x="202.667" y="616.5" type="line" smooth="yes"/>
      <point x="212.667" y="697"/>
      <point x="227.667" y="727.833"/>
    </contour>
  </outline>
</glyph>
<glyph name="asciitilde" format="2">
  <advance width="487"/>
  <unicode hex="007E"/>
  <outline>
    <contour>
      <point x="259.833" y="453.333" type="curve"/>
      <point x="299.333" y="451.167"/>
      <point x="334.667" y="481.333"/>
      <point x="346.833" y="558.667" type="curve"/>
      <point x="330.667" y="561.667" type="line"/>
      <point x="317.333" y="486.333"/>
      <point x="289.167" y="469.167"/>
      <point x="262" y="471.167" type="curve"/>
      <point x="233.5" y="473"/>
      <point x="218.333" y="494"/>
      <point x="203.167" y="515.833" type="curve"/>
      <point x="186.833" y="540"/>
      <point x="170.333" y="565.167"/>
      <point x="132.167" y="567.167" type="curve"/>
      <point x="96.5" y="569.333"/>
      <point x="55.667" y="538.667"/>
      <point x="43.167" y="461.833" type="curve"/>
      <point x="59.333" y="458.667" type="line"/>
      <point x="72.833" y="534"/>
      <point x="108.667" y="550.167"/>
      <point x="131.167" y="549.167" type="curve"/>
      <point x="158.833" y="547.167"/>
      <point x="172.833" y="525.5"/>
      <point x="187.833" y="503.833" type="curve"/>
      <point x="205.333" y="479.667"/>
      <point x="222.833" y="455.333"/>
    </contour>
  </outline>
</glyph>
<glyph name="exclamdown" format="2">
  <advance width="199"/>
  <unicode hex="00A1"/>
  <outline>
    <contour>
      <point x="83.0" y="-176.66700000000003" type="line"/>
      <point x="154.833" y="406.5" type="line"/>
      <point x="136.0" y="406.5" type="line"/>
      <point x="64.166" y="-176.66700000000003" type="line"/>
    </contour>
    <contour>
      <point x="173.5" y="523.833" type="curve" smooth="yes"/>
      <point x="171.5" y="531.667"/>
      <point x="166.0" y="540.167"/>
      <point x="152.5" y="538.167" type="curve" smooth="yes"/>
      <point x="140.833" y="536.333"/>
      <point x="131.5" y="525.333"/>
      <point x="133.5" y="513.667" type="curve" smooth="yes"/>
      <point x="135.666" y="504.0"/>
      <point x="145.0" y="497.66700000000003"/>
      <point x="154.833" y="499.5" type="curve" smooth="yes"/>
      <point x="166.5" y="501.5"/>
      <point x="175.666" y="512.333"/>
    </contour>
  </outline>
</glyph>
<glyph name="cent" format="2">
  <advance width="423"/>
  <unicode hex="00A2"/>
  <outline>
    <contour>
      <point x="269.167" y="441" type="line"/>
      <point x="206.833" y="-68" type="line"/>
      <point x="224" y="-68" type="line"/>
      <point x="286.333" y="441" type="line"/>
    </contour>
    <component base="c"/>
  </outline>
</glyph>
<glyph name="sterling" format="2">
  <advance width="566"/>
  <unicode hex="00A3"/>
  <outline>
    <contour>
      <point x="289.333" y="329.167" type="line"/>
      <point x="74.833" y="329.167" type="line"/>
      <point x="72.167" y="309.5" type="line"/>
      <point x="286.667" y="309.5" type="line"/>
    </contour>
    <contour>
      <point x="160.667" y="502.667" type="curve" smooth="yes"/>
      <point x="119.667" y="166.167" type="line" smooth="yes"/>
      <point x="105.833" y="53.167"/>
      <point x="97.5" y="19.5"/>
      <point x="50" y="19.5" type="curve" smooth="yes"/>
      <point x="5.833" y="19.5" type="line"/>
      <point x="3.167" y="0" type="line"/>
      <point x="348.667" y="0" type="line" smooth="yes"/>
      <point x="469.5" y="0"/>
      <point x="472.833" y="43.5"/>
      <point x="479" y="88" type="curve" smooth="yes"/>
      <point x="483.167" y="127" type="line"/>
      <point x="464.333" y="127" type="line"/>
      <point x="457.333" y="71" type="line" smooth="yes"/>
      <point x="452.5" y="30.667"/>
      <point x="420.167" y="19.5"/>
      <point x="342.5" y="19.5" type="curve" smooth="yes"/>
      <point x="93.5" y="19.5" type="line"/>
      <point x="98.833" y="19.5" type="line"/>
      <point x="120" y="37.667"/>
      <point x="129" y="79.167"/>
      <point x="133.667" y="113.833" type="curve" smooth="yes"/>
      <point x="137.333" y="151" type="line"/>
      <point x="181.167" y="504" type="line" smooth="yes"/>
      <point x="188.167" y="565.167"/>
      <point x="227" y="619"/>
      <point x="337.833" y="619" type="curve" smooth="yes"/>
      <point x="417.333" y="619"/>
      <point x="447" y="599.5"/>
      <point x="472.167" y="539.667" type="curve"/>
      <point x="487.667" y="548.667" type="line"/>
      <point x="467.333" y="602.333"/>
      <point x="429.833" y="638.5"/>
      <point x="340.333" y="638.5" type="curve" smooth="yes"/>
      <point x="243.333" y="638.5"/>
      <point x="172.667" y="595.833"/>
    </contour>
  </outline>
</glyph>
<glyph name="currency" format="2">
  <advance width="500"/>
  <unicode hex="00A4"/>
  <outline>
    <contour>
      <point x="402.833" y="446.333" type="curve"/>
      <point x="445" y="483.667" type="line"/>
      <point x="434.167" y="495.833" type="line"/>
      <point x="391.833" y="458.667" type="line"/>
      <point x="391.833" y="458.667" type="line"/>
      <point x="371.667" y="481.167"/>
      <point x="341.833" y="495"/>
      <point x="307.167" y="495.167" type="curve" smooth="yes"/>
      <point x="272.5" y="495.167"/>
      <point x="238.833" y="481.5"/>
      <point x="212.833" y="460" type="curve"/>
      <point x="180.333" y="497.333" type="line"/>
      <point x="167" y="485.5" type="line"/>
      <point x="177.833" y="472.667"/>
      <point x="188.5" y="460.833"/>
      <point x="199.333" y="448" type="curve"/>
      <point x="172.833" y="420.167"/>
      <point x="156.167" y="386.667"/>
      <point x="156" y="348" type="curve" smooth="yes"/>
      <point x="156" y="348" type="line" smooth="yes"/>
      <point x="155.833" y="319"/>
      <point x="164.5" y="291"/>
      <point x="180.333" y="270.833" type="curve"/>
      <point x="135.167" y="230.667" type="line"/>
      <point x="146.167" y="218.333" type="line"/>
      <point x="191.333" y="258.5" type="line"/>
      <point x="191.333" y="258.5" type="line"/>
      <point x="211.333" y="238.833"/>
      <point x="241.167" y="227"/>
      <point x="274" y="226.833" type="curve" smooth="yes"/>
      <point x="306.833" y="226.833"/>
      <point x="338.5" y="238.5"/>
      <point x="364.5" y="259" type="curve"/>
      <point x="376.333" y="245.333"/>
      <point x="388.167" y="232.5"/>
      <point x="400" y="218.667" type="curve"/>
      <point x="413.333" y="230.667" type="line"/>
      <point x="378" y="271" type="line"/>
      <point x="405.5" y="298.833"/>
      <point x="424.167" y="332.5"/>
      <point x="424.333" y="373" type="curve" smooth="yes"/>
      <point x="424.5" y="401"/>
      <point x="416.667" y="427"/>
    </contour>
    <contour>
      <point x="173" y="349.667" type="curve" smooth="yes"/>
      <point x="173" y="349.667" type="line" smooth="yes"/>
      <point x="173.167" y="420.5"/>
      <point x="236.167" y="478.167"/>
      <point x="304.833" y="478.167" type="curve" smooth="yes"/>
      <point x="364.167" y="478"/>
      <point x="407.5" y="431.5"/>
      <point x="407.333" y="372.167" type="curve" smooth="yes"/>
      <point x="407.167" y="301.5"/>
      <point x="345.167" y="243.667"/>
      <point x="276.333" y="243.833" type="curve" smooth="yes"/>
      <point x="217.167" y="244"/>
      <point x="172.833" y="290.5"/>
    </contour>
  </outline>
</glyph>
<glyph name="yen" format="2">
  <advance width="642.66667"/>
  <unicode hex="00A5"/>
  <outline>
    <contour>
      <point x="151.667" y="278.667" type="line"/>
      <point x="151" y="260.333" type="line"/>
      <point x="484.5" y="260.333" type="line"/>
      <point x="485.167" y="278.667" type="line"/>
    </contour>
    <contour>
      <point x="151" y="116.833" type="line"/>
      <point x="150.333" y="98.333" type="line"/>
      <point x="482.833" y="98.333" type="line"/>
      <point x="483.5" y="116.833" type="line"/>
    </contour>
    <contour>
      <point x="321" y="277.5" type="line"/>
      <point x="286.833" y="0" type="line"/>
      <point x="308.5" y="0" type="line"/>
      <point x="342.667" y="277.5" type="line"/>
      <point x="657.333" y="701.667" type="line"/>
      <point x="632.167" y="701.667" type="line"/>
      <point x="328.833" y="292.333" type="line"/>
      <point x="338.333" y="293.5" type="line"/>
      <point x="133.667" y="701.667" type="line"/>
      <point x="111.5" y="701.667" type="line"/>
    </contour>
  </outline>
</glyph>
<glyph name="brokenbar" format="2">
  <advance width="215"/>
  <unicode hex="00A6"/>
  <outline>
    <contour>
      <point x="113.833" y="117.167" type="line"/>
      <point x="70.833" y="-233.167" type="line"/>
      <point x="89.667" y="-233.167" type="line"/>
      <point x="132.667" y="117.167" type="line"/>
    </contour>
    <contour>
      <point x="185.833" y="700.667" type="line"/>
      <point x="142.833" y="350.333" type="line"/>
      <point x="161.667" y="350.333" type="line"/>
      <point x="204.833" y="700.667" type="line"/>
    </contour>
  </outline>
</glyph>
<glyph name="section" format="2">
  <advance width="560"/>
  <unicode hex="00A7"/>
  <outline>
    <contour>
      <point x="341.5" y="129.167" type="line"/>
      <point x="436.833" y="140.333"/>
      <point x="510.833" y="196.833"/>
      <point x="520.833" y="278.5" type="curve" smooth="yes"/>
      <point x="534" y="385"/>
      <point x="439.833" y="423.167"/>
      <point x="346.5" y="453" type="curve" smooth="yes"/>
      <point x="244.5" y="485.5"/>
      <point x="171.5" y="514.167"/>
      <point x="182.167" y="597.333" type="curve" smooth="yes"/>
      <point x="189" y="656.833"/>
      <point x="261.833" y="711.333"/>
      <point x="365" y="705.5" type="curve" smooth="yes"/>
      <point x="425.833" y="701.5"/>
      <point x="487.667" y="677.833"/>
      <point x="522.167" y="658.5" type="curve"/>
      <point x="533.167" y="673.667" type="line"/>
      <point x="488.167" y="698.667"/>
      <point x="414.667" y="719.333"/>
      <point x="365" y="722.5" type="curve" smooth="yes"/>
      <point x="259.333" y="728.833"/>
      <point x="171.167" y="669.667"/>
      <point x="162" y="600.5" type="curve" smooth="yes"/>
      <point x="152.167" y="514.333"/>
      <point x="219" y="474.833"/>
      <point x="292.833" y="449" type="curve"/>
      <point x="296.333" y="454.167" type="line"/>
      <point x="197.333" y="459.5"/>
      <point x="105" y="399.5"/>
      <point x="94.833" y="310.333" type="curve" smooth="yes"/>
      <point x="81.833" y="203.5"/>
      <point x="177.833" y="171.5"/>
      <point x="269.333" y="137.833" type="curve"/>
      <point x="358.833" y="110.333"/>
      <point x="443.167" y="80.667"/>
      <point x="432.333" y="-5.333" type="curve" smooth="yes"/>
      <point x="422.667" y="-90.5"/>
      <point x="318.667" y="-135.333"/>
      <point x="222" y="-129.5" type="curve" smooth="yes"/>
      <point x="142.667" y="-124.667"/>
      <point x="67.167" y="-79.833"/>
      <point x="30.167" y="-47.833" type="curve"/>
      <point x="18.667" y="-63.333" type="line"/>
      <point x="41.667" y="-81.5"/>
      <point x="111.333" y="-140.833"/>
      <point x="223.5" y="-147.667" type="curve" smooth="yes"/>
      <point x="342.167" y="-155.667"/>
      <point x="442.333" y="-93.333"/>
      <point x="452.667" y="-7.667" type="curve" smooth="yes"/>
      <point x="462.667" y="72.333"/>
      <point x="406" y="111.333"/>
      <point x="338.5" y="135.5" type="curve"/>
    </contour>
    <contour>
      <point x="500.167" y="278.667" type="curve" smooth="yes"/>
      <point x="489.333" y="190"/>
      <point x="388.5" y="145.167"/>
      <point x="317.833" y="143.167" type="curve"/>
      <point x="187.833" y="187.833"/>
      <point x="102.833" y="214.167"/>
      <point x="115.5" y="310.667" type="curve" smooth="yes"/>
      <point x="125.333" y="391.167"/>
      <point x="206.333" y="446.667"/>
      <point x="324.333" y="439.667" type="curve"/>
      <point x="424.5" y="405.167"/>
      <point x="512" y="369.167"/>
    </contour>
  </outline>
</glyph>
<glyph name="dieresis" format="2">
  <advance width="370.33333"/>
  <unicode hex="00A8"/>
  <outline>
    <contour>
      <point x="138" y="502.333" type="curve" smooth="yes"/>
      <point x="138" y="502.333" type="line" smooth="yes"/>
      <point x="137.833" y="490"/>
      <point x="147.833" y="479.833"/>
      <point x="159.833" y="479.833" type="curve" smooth="yes"/>
      <point x="171.833" y="479.667"/>
      <point x="182.167" y="489.5"/>
      <point x="182.5" y="502" type="curve" smooth="yes"/>
      <point x="182.667" y="514.333"/>
      <point x="172.667" y="524.333"/>
      <point x="160.667" y="524.5" type="curve" smooth="yes"/>
      <point x="148.5" y="524.5"/>
      <point x="138.167" y="514.667"/>
    </contour>
    <contour>
      <point x="304.5" y="502.333" type="curve" smooth="yes"/>
      <point x="304.5" y="502.333" type="line" smooth="yes"/>
      <point x="304.333" y="489.833"/>
      <point x="314.333" y="479.833"/>
      <point x="326.333" y="479.833" type="curve" smooth="yes"/>
      <point x="338.333" y="479.667"/>
      <point x="348.667" y="489.5"/>
      <point x="349" y="502" type="curve" smooth="yes"/>
      <point x="349.167" y="514.333"/>
      <point x="339.167" y="524.333"/>
      <point x="327.167" y="524.5" type="curve" smooth="yes"/>
      <point x="315" y="524.5"/>
      <point x="304.667" y="514.667"/>
    </contour>
  </outline>
</glyph>
<glyph name="copyright" format="2">
  <advance width="796"/>
  <unicode hex="00A9"/>
  <outline>
    <contour>
      <point x="500" y="228.333" type="curve"/>
      <point x="492.833" y="243.167" type="line"/>
      <point x="468.833" y="230.5"/>
      <point x="442.333" y="224.333"/>
      <point x="413.333" y="226.333" type="curve" smooth="yes"/>
      <point x="332" y="231.333"/>
      <point x="279.333" y="298"/>
      <point x="289.167" y="378.333" type="curve" smooth="yes"/>
      <point x="300" y="464.167"/>
      <point x="376.833" y="522.333"/>
      <point x="449.5" y="517.5" type="curve" smooth="yes"/>
      <point x="478.333" y="515.5"/>
      <point x="502.333" y="508.5"/>
      <point x="524.167" y="492.167" type="curve"/>
      <point x="534" y="507.333" type="line"/>
      <point x="510.833" y="524"/>
      <point x="482.167" y="533.333"/>
      <point x="451.667" y="535.333" type="curve" smooth="yes"/>
      <point x="365.667" y="540.5"/>
      <point x="280.667" y="472.833"/>
      <point x="269.5" y="380.333" type="curve" smooth="yes"/>
      <point x="258.333" y="292.5"/>
      <point x="314.167" y="214.5"/>
      <point x="409.833" y="208.333" type="curve" smooth="yes"/>
      <point x="444.667" y="206.167"/>
      <point x="474.333" y="214.5"/>
    </contour>
    <contour>
      <point x="388.833" y="109.667" type="curve" smooth="yes"/>
      <point x="547.167" y="100.5"/>
      <point x="662" y="204.833"/>
      <point x="680.333" y="353" type="curve" smooth="yes"/>
      <point x="697.833" y="503.333"/>
      <point x="598.167" y="620.833"/>
      <point x="452.167" y="630" type="curve" smooth="yes"/>
      <point x="306.167" y="638.167"/>
      <point x="179" y="535"/>
      <point x="160.5" y="385.667" type="curve" smooth="yes"/>
      <point x="143.167" y="236.5"/>
      <point x="242.667" y="118.833"/>
    </contour>
    <contour>
      <point x="390.333" y="129" type="curve" smooth="yes"/>
      <point x="237.333" y="138"/>
      <point x="162.167" y="244.667"/>
      <point x="179.167" y="383.5" type="curve" smooth="yes"/>
      <point x="196.333" y="523.167"/>
      <point x="317.667" y="619.833"/>
      <point x="448.667" y="611.667" type="curve" smooth="yes"/>
      <point x="582.5" y="602.667"/>
      <point x="678.833" y="494"/>
      <point x="660.667" y="353.333" type="curve" smooth="yes"/>
      <point x="644.5" y="217.5"/>
      <point x="523.167" y="120"/>
    </contour>
  </outline>
</glyph>
<glyph name="ordfeminine" format="2">
  <advance width="415.83333"/>
  <unicode hex="00AA"/>
  <outline>
    <contour>
      <point x="216.167" y="413.667" type="curve"/>
      <point x="278" y="413.667"/>
      <point x="334.833" y="451.833"/>
      <point x="360.833" y="503.5" type="curve"/>
      <point x="359.667" y="513.833" type="line"/>
      <point x="347.833" y="417.833" type="line"/>
      <point x="365" y="417.833" type="line"/>
      <point x="399" y="699.167" type="line"/>
      <point x="385" y="699.167" type="line"/>
      <point x="372.333" y="618.667" type="line"/>
      <point x="357.333" y="671.167"/>
      <point x="311.5" y="705.333"/>
      <point x="252" y="705.333" type="curve"/>
      <point x="172.833" y="705.333"/>
      <point x="100" y="652"/>
      <point x="89" y="559" type="curve"/>
      <point x="79" y="476.833"/>
      <point x="135.667" y="413.667"/>
    </contour>
    <contour>
      <point x="220" y="429.833" type="curve"/>
      <point x="148.833" y="429.833"/>
      <point x="98.333" y="487.5"/>
      <point x="107.167" y="559.167" type="curve"/>
      <point x="117" y="638.333"/>
      <point x="180.167" y="689.167"/>
      <point x="251.333" y="689.167" type="curve"/>
      <point x="315.5" y="689.167"/>
      <point x="363" y="641.667"/>
      <point x="368" y="582.333" type="curve"/>
      <point x="363.833" y="552.833" type="line"/>
      <point x="354.667" y="482"/>
      <point x="290.833" y="429.833"/>
    </contour>
  </outline>
</glyph>
<glyph name="guillemetleft" format="2">
  <advance width="601.5"/>
  <unicode hex="00AB"/>
  <outline>
    <contour>
      <point x="146.167" y="239.167" type="curve"/>
      <point x="297" y="75.333" type="line"/>
      <point x="299.667" y="96.833" type="line"/>
      <point x="260.5" y="143.667"/>
      <point x="218.833" y="192.333"/>
      <point x="179.667" y="239.167" type="curve"/>
      <point x="230.333" y="285.167"/>
      <point x="284.167" y="333.667"/>
      <point x="334.833" y="379.667" type="curve"/>
      <point x="337.5" y="402.167" type="line"/>
      <point x="276.333" y="350.5"/>
      <point x="207.333" y="290.833"/>
    </contour>
    <contour>
      <point x="317.333" y="239.167" type="curve"/>
      <point x="468.167" y="75.333" type="line"/>
      <point x="470.833" y="96.833" type="line"/>
      <point x="431.667" y="143.667"/>
      <point x="390" y="192.333"/>
      <point x="350.833" y="239.167" type="curve"/>
      <point x="401.5" y="285.167"/>
      <point x="455.333" y="333.833"/>
      <point x="506" y="379.667" type="curve"/>
      <point x="508.667" y="402.167" type="line"/>
      <point x="447.5" y="350.5"/>
      <point x="378.5" y="290.833"/>
    </contour>
  </outline>
</glyph>
<glyph name="logicalnot" format="2">
  <advance width="555"/>
  <unicode hex="00AC"/>
  <outline>
    <contour>
      <point x="127.167" y="244.833" type="line"/>
      <point x="124.333" y="225.333" type="line"/>
      <point x="464.833" y="225.333" type="line"/>
      <point x="454.833" y="145.5" type="line"/>
      <point x="474.667" y="145.5" type="line"/>
      <point x="487.333" y="244.833" type="line"/>
    </contour>
  </outline>
</glyph>
<glyph name="registered" format="2">
  <advance width="358"/>
  <unicode hex="00AE"/>
  <outline>
    <contour>
      <point x="207.5" y="420.167" type="curve"/>
      <point x="285.5" y="416"/>
      <point x="353.333" y="470.167"/>
      <point x="362.667" y="550.167" type="curve"/>
      <point x="373" y="631.167"/>
      <point x="319.667" y="692.5"/>
      <point x="240.833" y="697.667" type="curve"/>
      <point x="163" y="701.833"/>
      <point x="95.167" y="647.833"/>
      <point x="85.833" y="566.833" type="curve"/>
      <point x="75.5" y="486.833"/>
      <point x="128.833" y="425.333"/>
    </contour>
    <contour>
      <point x="208" y="436" type="curve"/>
      <point x="142.5" y="440"/>
      <point x="93.667" y="496.167"/>
      <point x="102.833" y="565.667" type="curve"/>
      <point x="111" y="636.167"/>
      <point x="172" y="686"/>
      <point x="238.667" y="682" type="curve"/>
      <point x="306" y="677.833"/>
      <point x="354.833" y="621.833"/>
      <point x="345.667" y="551.333" type="curve"/>
      <point x="337.5" y="481.833"/>
      <point x="276.5" y="431.833"/>
    </contour>
    <contour>
      <point x="184.667" y="648.333" type="line"/>
      <point x="164.167" y="483.667" type="line"/>
      <point x="180.833" y="482.833" type="line"/>
      <point x="188.833" y="550" type="line"/>
      <point x="216.833" y="549" type="line"/>
      <point x="254.667" y="546.167"/>
      <point x="273.833" y="563.167"/>
      <point x="276.833" y="594.5" type="curve"/>
      <point x="282" y="630.167"/>
      <point x="255.167" y="644.5"/>
      <point x="231.333" y="645.333" type="curve"/>
    </contour>
    <contour>
      <point x="216.667" y="563" type="curve"/>
      <point x="193" y="564.833" type="line"/>
      <point x="201" y="631.333" type="line"/>
      <point x="229.333" y="629.333" type="line"/>
      <point x="243.667" y="628.333"/>
      <point x="263.833" y="620"/>
      <point x="261" y="595.5" type="curve"/>
      <point x="258" y="575.667"/>
      <point x="244.333" y="562"/>
    </contour>
    <contour>
      <point x="239.333" y="551.5" type="line"/>
      <point x="221.667" y="552.5" type="line"/>
      <point x="252.167" y="479" type="line"/>
      <point x="270.167" y="478" type="line"/>
    </contour>
  </outline>
</glyph>
<glyph name="macron" format="2">
  <advance width="399"/>
  <unicode hex="00AF"/>
  <outline>
    <contour>
      <point x="147.333" y="508.167" type="line"/>
      <point x="145" y="491.5" type="line"/>
      <point x="375.333" y="491.5" type="line"/>
      <point x="377.5" y="508.167" type="line"/>
    </contour>
  </outline>
</glyph>
<glyph name="degree" format="2">
  <advance width="282"/>
  <unicode hex="00B0"/>
  <outline>
    <contour>
      <point x="124.333" y="552.167" type="curve" smooth="yes"/>
      <point x="124.333" y="552.167" type="line" smooth="yes"/>
      <point x="124" y="512.167"/>
      <point x="151.833" y="482.833"/>
      <point x="193.833" y="482.667" type="curve" smooth="yes"/>
      <point x="240.667" y="482.5"/>
      <point x="281.5" y="519.167"/>
      <point x="281.833" y="567.833" type="curve" smooth="yes"/>
      <point x="282.167" y="608"/>
      <point x="254.333" y="638"/>
      <point x="213.333" y="638.333" type="curve" smooth="yes"/>
      <point x="164.5" y="638.5"/>
      <point x="124.667" y="601"/>
    </contour>
    <contour>
      <point x="196.167" y="499.333" type="curve"/>
      <point x="196.167" y="499.333" type="line"/>
      <point x="164.667" y="499.333"/>
      <point x="141" y="523.167"/>
      <point x="141.167" y="554.833" type="curve" smooth="yes"/>
      <point x="141.167" y="592.167"/>
      <point x="173.667" y="621.667"/>
      <point x="211" y="621.5" type="curve" smooth="yes"/>
      <point x="241.667" y="621.5"/>
      <point x="265.333" y="597.667"/>
      <point x="265.167" y="566" type="curve" smooth="yes"/>
      <point x="265" y="528.667"/>
      <point x="232.667" y="499.333"/>
    </contour>
  </outline>
</glyph>
<glyph name="plusminus" format="2">
  <advance width="524.5"/>
  <unicode hex="00B1"/>
  <outline>
    <contour>
      <point x="326.833" y="571.5" type="line"/>
      <point x="306" y="401.667" type="line"/>
      <point x="135.333" y="401.667" type="line"/>
      <point x="133.833" y="382.833" type="line"/>
      <point x="304.5" y="382.833" type="line"/>
      <point x="282.833" y="211.167" type="line"/>
      <point x="301.667" y="211.167" type="line"/>
      <point x="323.5" y="382.833" type="line"/>
      <point x="494.167" y="382.833" type="line"/>
      <point x="495.667" y="401.667" type="line"/>
      <point x="325" y="401.667" type="line"/>
      <point x="345.833" y="571.5" type="line"/>
    </contour>
    <contour>
      <point x="105.167" y="151.5" type="line"/>
      <point x="102.667" y="132.667" type="line"/>
      <point x="463" y="132.667" type="line"/>
      <point x="465.5" y="151.5" type="line"/>
    </contour>
  </outline>
</glyph>
<glyph name="twosuperior" format="2">
  <advance width="396.5"/>
  <unicode hex="00B2"/>
  <outline>
    <contour>
      <point x="162.833" y="655.5" type="curve"/>
      <point x="170.833" y="644.833" type="line"/>
      <point x="187.833" y="665.833"/>
      <point x="209.667" y="682"/>
      <point x="246.333" y="682" type="curve" smooth="yes"/>
      <point x="289" y="682"/>
      <point x="323" y="660.167"/>
      <point x="315.167" y="599.833" type="curve" smooth="yes"/>
      <point x="307.167" y="532.667"/>
      <point x="213.5" y="452.333"/>
      <point x="121" y="374.667" type="curve"/>
      <point x="120.5" y="370.167" type="line"/>
      <point x="321.833" y="370.167" type="line"/>
      <point x="324.333" y="387.667" type="line"/>
      <point x="143.833" y="387.667" type="line"/>
      <point x="146.167" y="374" type="line"/>
      <point x="224.167" y="445.167"/>
      <point x="325.833" y="523.333"/>
      <point x="335.167" y="601.5" type="curve" smooth="yes"/>
      <point x="343.333" y="668.333"/>
      <point x="310.167" y="699.5"/>
      <point x="250.5" y="699.667" type="curve" smooth="yes"/>
      <point x="214.333" y="699.667"/>
      <point x="181.5" y="680.167"/>
    </contour>
  </outline>
</glyph>
<glyph name="micro" format="2">
  <advance width="487"/>
  <unicode hex="00B5"/>
  <outline>
    <contour>
      <point x="187.833" y="-7.667" type="curve" smooth="yes"/>
      <point x="262" y="-7.667"/>
      <point x="339.167" y="44.667"/>
      <point x="364.667" y="107.333" type="curve"/>
      <point x="353.167" y="0" type="line"/>
      <point x="369.333" y="0" type="line"/>
      <point x="415.667" y="377.667" type="line"/>
      <point x="396.167" y="377.667" type="line"/>
      <point x="369.333" y="159.667" type="line" smooth="yes"/>
      <point x="359.333" y="73.333"/>
      <point x="274" y="10"/>
      <point x="192.833" y="10" type="curve"/>
      <point x="128" y="13"/>
      <point x="98.833" y="53.167"/>
      <point x="103.667" y="107.5" type="curve"/>
      <point x="136.667" y="377.667" type="line"/>
      <point x="117.167" y="377.667" type="line"/>
      <point x="84.833" y="108.167" type="line"/>
      <point x="46.833" y="-201" type="line"/>
      <point x="65.333" y="-201" type="line"/>
      <point x="99" y="77.167" type="line"/>
      <point x="85" y="68" type="line"/>
      <point x="94.333" y="21.667"/>
      <point x="130.833" y="-7.667"/>
    </contour>
  </outline>
</glyph>
<glyph name="paragraph" format="2">
  <advance width="494"/>
  <unicode hex="00B6"/>
  <outline>
    <contour>
      <point x="253.167" y="423.333" type="curve"/>
      <point x="201.167" y="0" type="line"/>
      <point x="220" y="0" type="line"/>
      <point x="310.5" y="732" type="line"/>
      <point x="454.833" y="732" type="line"/>
      <point x="364.333" y="0" type="line"/>
      <point x="383.167" y="0" type="line"/>
      <point x="475.333" y="750.667" type="line"/>
      <point x="293.333" y="750.667" type="line" smooth="yes"/>
      <point x="195.167" y="750.667"/>
      <point x="109.167" y="668.667"/>
      <point x="109.167" y="569.5" type="curve" smooth="yes"/>
      <point x="109.167" y="487.5"/>
      <point x="169.167" y="423.333"/>
    </contour>
  </outline>
</glyph>
<glyph name="cedilla" format="2">
  <advance width="452"/>
  <unicode hex="00B8"/>
  <outline>
    <contour>
      <point x="134" y="-175" type="curve"/>
      <point x="123.333" y="-189.667" type="line"/>
      <point x="140.333" y="-207"/>
      <point x="170.5" y="-220.5"/>
      <point x="207.5" y="-222.5" type="curve"/>
      <point x="269.167" y="-226.5"/>
      <point x="318.667" y="-204.167"/>
      <point x="324.833" y="-152.167" type="curve"/>
      <point x="330.833" y="-100.667"/>
      <point x="298.833" y="-68.5"/>
      <point x="233.5" y="-64.667" type="curve"/>
      <point x="203.167" y="-62.667"/>
      <point x="165.333" y="-70.333"/>
      <point x="149.333" y="-79" type="curve"/>
      <point x="163.667" y="-84.5" type="line"/>
      <point x="241.667" y="-3.667" type="line"/>
      <point x="227.333" y="4.833" type="line"/>
      <point x="143.333" y="-78.833" type="line"/>
      <point x="156.167" y="-93.333" type="line"/>
      <point x="172.333" y="-86.333"/>
      <point x="207.667" y="-81.5"/>
      <point x="229.667" y="-82.5" type="curve"/>
      <point x="286" y="-86.333"/>
      <point x="309.333" y="-114.833"/>
      <point x="304.5" y="-151" type="curve"/>
      <point x="299.5" y="-190.167"/>
      <point x="262.667" y="-208.833"/>
      <point x="208.167" y="-206" type="curve"/>
      <point x="172.667" y="-204"/>
      <point x="147.833" y="-191"/>
    </contour>
  </outline>
</glyph>
<glyph name="onesuperior" format="2">
  <advance width="251.5"/>
  <unicode hex="00B9"/>
  <outline>
    <contour>
      <point x="134.5" y="651.333" type="line"/>
      <point x="133" y="633.333" type="line"/>
      <point x="178" y="633.333" type="line"/>
      <point x="143" y="347.167" type="line"/>
      <point x="163.167" y="347.167" type="line"/>
      <point x="199.667" y="651.333" type="line"/>
    </contour>
  </outline>
</glyph>
<glyph name="AE" format="2">
  <advance width="923.16667"/>
  <unicode hex="00C6"/>
  <anchor x="437.333" y="0" name="bottom"/>
  <anchor x="657.333" y="701.667" name="top"/>
  <outline>
    <contour>
      <point x="526" y="701.667" type="line"/>
      <point x="439.833" y="0" type="line"/>
      <point x="821" y="0" type="line"/>
      <point x="823.667" y="19.5" type="line"/>
      <point x="462.333" y="19.5" type="line"/>
      <point x="502.333" y="343.833" type="line"/>
      <point x="810.5" y="343.833" type="line"/>
      <point x="812.333" y="363.333" type="line"/>
      <point x="504" y="363.333" type="line"/>
      <point x="543.167" y="682" type="line"/>
      <point x="890.5" y="682" type="line"/>
      <point x="893.167" y="701.667" type="line"/>
    </contour>
    <contour>
      <point x="538.167" y="694" type="curve"/>
      <point x="526" y="701.667" type="line"/>
      <point x="1" y="0" type="line"/>
      <point x="22.667" y="0" type="line"/>
      <point x="526" y="668.333" type="line"/>
      <point x="529.833" y="676"/>
      <point x="534.167" y="685.667"/>
    </contour>
    <contour>
      <point x="170" y="224.333" type="line"/>
      <point x="166.5" y="206" type="line"/>
      <point x="474" y="206" type="line"/>
      <point x="475.667" y="224.333" type="line"/>
    </contour>
  </outline>
</glyph>
<glyph name="Oslash" format="2">
  <advance width="837"/>
  <unicode hex="00D8"/>
  <anchor x="395.333" y="0" name="bottom"/>
  <anchor x="481.5" y="701.667" name="top"/>
  <outline>
    <contour>
      <point x="801.5" y="706.5" type="line"/>
      <point x="792" y="717" type="line"/>
      <point x="112.5" y="9.333" type="line"/>
      <point x="122" y="-1" type="line"/>
    </contour>
    <component base="O"/>
  </outline>
</glyph>
<glyph name="Thorn" format="2">
  <advance width="530"/>
  <unicode hex="00DE"/>
  <outline>
    <contour>
      <point x="305.833" y="538.5" type="curve" smooth="yes"/>
      <point x="182.167" y="538.5" type="line"/>
      <point x="201.833" y="700.667" type="line"/>
      <point x="181.833" y="700.667" type="line"/>
      <point x="95.667" y="0" type="line"/>
      <point x="115.667" y="0" type="line"/>
      <point x="134.5" y="154.167" type="line"/>
      <point x="246" y="154.167" type="line" smooth="yes"/>
      <point x="411.167" y="154.167"/>
      <point x="488.167" y="266.333"/>
      <point x="488.167" y="373.167" type="curve" smooth="yes"/>
      <point x="488.167" y="494.667"/>
      <point x="382" y="538.5"/>
    </contour>
    <contour>
      <point x="251.167" y="173.667" type="curve" smooth="yes"/>
      <point x="137.167" y="173.667" type="line"/>
      <point x="179.5" y="519" type="line"/>
      <point x="294.5" y="519" type="line" smooth="yes"/>
      <point x="396.667" y="519"/>
      <point x="468" y="459.833"/>
      <point x="468" y="371.333" type="curve" smooth="yes"/>
      <point x="468" y="300.667"/>
      <point x="418.833" y="173.667"/>
    </contour>
  </outline>
</glyph>
<glyph name="germandbls" format="2">
  <advance width="549.16667"/>
  <unicode hex="00DF"/>
  <outline>
    <contour>
      <point x="274.667" y="-4.167" type="curve" smooth="yes"/>
      <point x="383.5" y="-4.333"/>
      <point x="480.333" y="76"/>
      <point x="494.333" y="186.167" type="curve" smooth="yes"/>
      <point x="506.333" y="282.167"/>
      <point x="450.333" y="362.833"/>
      <point x="365.667" y="389.333" type="curve"/>
      <point x="459.667" y="417.833"/>
      <point x="472.333" y="488.333"/>
      <point x="472.333" y="525" type="curve" smooth="yes"/>
      <point x="472.333" y="589.667"/>
      <point x="435" y="653.833"/>
      <point x="335.333" y="661.333" type="curve"/>
      <point x="223.5" y="664.333"/>
      <point x="163.167" y="584.167"/>
      <point x="147" y="448.667" type="curve" smooth="yes"/>
      <point x="139" y="386.5" type="line"/>
      <point x="74" y="386.5" type="line"/>
      <point x="71.167" y="368.167" type="line"/>
      <point x="136.167" y="368.167" type="line"/>
      <point x="90.333" y="0" type="line"/>
      <point x="110" y="0" type="line"/>
      <point x="163.167" y="429.5" type="line" smooth="yes"/>
      <point x="179.167" y="556.667"/>
      <point x="231.167" y="648.667"/>
      <point x="334.5" y="643" type="curve" smooth="yes"/>
      <point x="418.5" y="637.333"/>
      <point x="452.667" y="581"/>
      <point x="452.667" y="521.167" type="curve" smooth="yes"/>
      <point x="452.667" y="478.5"/>
      <point x="418.833" y="395.333"/>
      <point x="315.167" y="401.333" type="curve"/>
      <point x="312.667" y="381.667" type="line"/>
      <point x="316.667" y="381.667" type="line"/>
      <point x="418.667" y="374.833"/>
      <point x="486.667" y="287"/>
      <point x="474.833" y="187.833" type="curve" smooth="yes"/>
      <point x="463.167" y="90.833"/>
      <point x="373.833" y="13"/>
      <point x="275.667" y="13" type="curve" smooth="yes"/>
      <point x="255" y="13"/>
      <point x="213.5" y="16"/>
      <point x="173.667" y="46.333" type="curve"/>
      <point x="164.167" y="32.333" type="line"/>
      <point x="204.667" y="1.833"/>
      <point x="248.667" y="-4.167"/>
    </contour>
  </outline>
</glyph>
<glyph name="ccedilla" format="2">
  <advance width="383"/>
  <unicode hex="00E7"/>
  <outline>
    <contour>
      <point x="350" y="50.5" type="curve"/>
      <point x="350" y="50.5" type="line"/>
      <point x="316.5" y="26.833"/>
      <point x="276.167" y="12.167"/>
      <point x="233.667" y="12.167" type="curve" smooth="yes"/>
      <point x="142.833" y="12.167"/>
      <point x="77" y="82"/>
      <point x="77" y="171.667" type="curve" smooth="yes"/>
      <point x="77" y="278.167"/>
      <point x="171.167" y="367.5"/>
      <point x="278" y="367.5" type="curve" smooth="yes"/>
      <point x="320.333" y="367.5"/>
      <point x="356.833" y="352.833"/>
      <point x="384.333" y="328.167" type="curve"/>
      <point x="388.5" y="333.333"/>
      <point x="394.5" y="337.5"/>
      <point x="398.667" y="342.5" type="curve"/>
      <point x="368.333" y="369.667"/>
      <point x="327" y="385.833"/>
      <point x="279.5" y="385.833" type="curve" smooth="yes"/>
      <point x="162.5" y="385.833"/>
      <point x="58.5" y="287.167"/>
      <point x="58.5" y="169.167" type="curve" smooth="yes"/>
      <point x="58.5" y="70.5"/>
      <point x="131.167" y="-6.333"/>
      <point x="232" y="-6.333" type="curve" smooth="yes"/>
      <point x="279.5" y="-6.333"/>
      <point x="323.833" y="9.833"/>
      <point x="361.167" y="37.167" type="curve"/>
      <point x="357.333" y="41.333"/>
      <point x="353.833" y="46.333"/>
    </contour>
    <contour>
      <point x="229.5" y="-6.167" type="curve" smooth="yes"/>
      <point x="230.5" y="0" type="line"/>
      <point x="213" y="0" type="line"/>
      <point x="210.833" y="-16.333" type="line" smooth="yes"/>
      <point x="204.833" y="-67.333"/>
      <point x="279" y="-64.167"/>
      <point x="279" y="-128" type="curve" smooth="yes"/>
      <point x="279" y="-173.167"/>
      <point x="245" y="-207.667"/>
      <point x="201.5" y="-207.667" type="curve" smooth="yes"/>
      <point x="169" y="-207.667"/>
      <point x="146.333" y="-188"/>
      <point x="142.5" y="-160.5" type="curve"/>
      <point x="136.667" y="-161.833"/>
      <point x="129.833" y="-164.333"/>
      <point x="124" y="-165.833" type="curve"/>
      <point x="132.333" y="-205.667"/>
      <point x="163.833" y="-225.167"/>
      <point x="199.667" y="-225.167" type="curve" smooth="yes"/>
      <point x="250.5" y="-225.167"/>
      <point x="297.333" y="-190.167"/>
      <point x="297.333" y="-122.5" type="curve" smooth="yes"/>
      <point x="297.333" y="-104.833"/>
      <point x="288.333" y="-79"/>
      <point x="263.667" y="-61" type="curve" smooth="yes"/>
      <point x="247.667" y="-49.833"/>
      <point x="223.667" y="-41.333"/>
    </contour>
  </outline>
</glyph>
<glyph name="eth" format="2">
  <advance width="507"/>
  <unicode hex="00F0"/>
  <outline>
    <contour>
      <point x="237.167" y="-5.167" type="curve" smooth="yes"/>
      <point x="380.5" y="-5.667"/>
      <point x="453.833" y="107.5"/>
      <point x="454.833" y="225.5" type="curve" smooth="yes"/>
      <point x="455.667" y="406.333"/>
      <point x="338.167" y="624.833"/>
      <point x="212.167" y="732.667" type="curve"/>
      <point x="200.333" y="721.167" type="line"/>
      <point x="318.5" y="618.667"/>
      <point x="435.167" y="395.5"/>
      <point x="434" y="241.333" type="curve"/>
      <point x="439" y="261" type="line"/>
      <point x="403.333" y="356.833"/>
      <point x="317.833" y="385.167"/>
      <point x="266.5" y="386.333" type="curve" smooth="yes"/>
      <point x="123.5" y="389.5"/>
      <point x="56.667" y="291.833"/>
      <point x="56" y="187.333" type="curve" smooth="yes"/>
      <point x="55.167" y="44.167"/>
      <point x="157.833" y="-4.833"/>
    </contour>
    <contour>
      <point x="239.167" y="12.167" type="curve" smooth="yes"/>
      <point x="165.833" y="13.333"/>
      <point x="75.167" y="61.667"/>
      <point x="75.5" y="188.833" type="curve" smooth="yes"/>
      <point x="76" y="275.167"/>
      <point x="133.667" y="371.833"/>
      <point x="267.167" y="367.833" type="curve" smooth="yes"/>
      <point x="301.667" y="366.833"/>
      <point x="432.333" y="339.5"/>
      <point x="431.833" y="199.833" type="curve" smooth="yes"/>
      <point x="431.5" y="144.167"/>
      <point x="386.333" y="10.167"/>
    </contour>
    <contour>
      <point x="381.333" y="679.833" type="line"/>
      <point x="377" y="692.667" type="line"/>
      <point x="190.833" y="592.167" type="line"/>
      <point x="199" y="579.333" type="line"/>
    </contour>
  </outline>
</glyph>
<glyph name="divide" format="2">
  <advance width="501.33333"/>
  <unicode hex="00F7"/>
  <outline>
    <contour>
      <point x="240" y="89.833" type="curve" smooth="yes"/>
      <point x="240" y="89.833" type="line" smooth="yes"/>
      <point x="240" y="78.5"/>
      <point x="249" y="69.667"/>
      <point x="260.167" y="69.667" type="curve" smooth="yes"/>
      <point x="273.167" y="69.667"/>
      <point x="285.5" y="80.667"/>
      <point x="285.5" y="94.167" type="curve" smooth="yes"/>
      <point x="285.5" y="105.5"/>
      <point x="276.5" y="114.333"/>
      <point x="265.667" y="114.333" type="curve" smooth="yes"/>
      <point x="252.5" y="114.333"/>
      <point x="240" y="103.333"/>
    </contour>
    <contour>
      <point x="271.333" y="342.667" type="curve" smooth="yes"/>
      <point x="271.333" y="342.667" type="line" smooth="yes"/>
      <point x="271.333" y="331.333"/>
      <point x="280.333" y="322.667"/>
      <point x="291.333" y="322.667" type="curve" smooth="yes"/>
      <point x="304.5" y="322.667"/>
      <point x="316" y="333.5"/>
      <point x="316" y="347.167" type="curve" smooth="yes"/>
      <point x="316" y="358.333"/>
      <point x="307.833" y="367.167"/>
      <point x="297" y="367.167" type="curve" smooth="yes"/>
      <point x="283.833" y="367.167"/>
      <point x="271.333" y="356.167"/>
    </contour>
    <contour>
      <point x="96.667" y="228.667" type="line"/>
      <point x="94" y="209.833" type="line"/>
      <point x="454.333" y="209.833" type="line"/>
      <point x="457" y="228.667" type="line"/>
    </contour>
  </outline>
</glyph>
<glyph name="oslash" format="2">
  <advance width="471.5"/>
  <unicode hex="00F8"/>
  <outline>
    <contour>
      <point x="428.833" y="368.667" type="curve"/>
      <point x="418.833" y="379.333" type="line"/>
      <point x="341" y="298.667"/>
      <point x="140.5" y="90.833"/>
      <point x="62.833" y="10.167" type="curve"/>
      <point x="71.833" y="-1.667" type="line"/>
      <point x="149.5" y="80"/>
      <point x="351" y="287"/>
    </contour>
    <component base="o"/>
  </outline>
</glyph>
<glyph name="thorn" format="2">
  <advance width="542"/>
  <unicode hex="00FE"/>
  <outline>
    <contour>
      <point x="181.667" y="751.667" type="line"/>
      <point x="163" y="751.667" type="line"/>
      <point x="48.667" y="-181.333" type="line"/>
      <point x="67.167" y="-181.333" type="line"/>
      <point x="104.333" y="126.167" type="line"/>
      <point x="99.167" y="113.167" type="line"/>
      <point x="119.167" y="43.667"/>
      <point x="183.5" y="-6.333"/>
      <point x="266.833" y="-6.333" type="curve" smooth="yes"/>
      <point x="383.333" y="-6.333"/>
      <point x="488.667" y="71.5"/>
      <point x="488.667" y="209.833" type="curve" smooth="yes"/>
      <point x="488.667" y="309.167"/>
      <point x="416.5" y="385.833"/>
      <point x="315.5" y="385.833" type="curve" smooth="yes"/>
      <point x="231.833" y="385.833"/>
      <point x="152.667" y="335.667"/>
      <point x="117.833" y="267" type="curve"/>
      <point x="120" y="245.667" type="line"/>
    </contour>
    <contour>
      <point x="469.667" y="208.333" type="curve" smooth="yes"/>
      <point x="469.667" y="92"/>
      <point x="376.833" y="12.167"/>
      <point x="269.167" y="12.167" type="curve" smooth="yes"/>
      <point x="178.333" y="12.167"/>
      <point x="111.5" y="73.667"/>
      <point x="111.5" y="171.667" type="curve" smooth="yes"/>
      <point x="111.5" y="278.167"/>
      <point x="205.833" y="367.5"/>
      <point x="312.5" y="367.5" type="curve" smooth="yes"/>
      <point x="403.167" y="367.5"/>
      <point x="469.667" y="296.833"/>
    </contour>
  </outline>
</glyph>
<glyph name="dcroat" format="2">
  <advance width="509"/>
  <unicode hex="0111"/>
  <outline>
    <contour>
      <point x="291.5" y="633.167" type="line"/>
      <point x="289.167" y="615.333" type="line"/>
      <point x="571.333" y="615.333" type="line"/>
      <point x="573.833" y="633.167" type="line"/>
    </contour>
    <component base="d"/>
  </outline>
</glyph>
<glyph name="eogonek" format="2">
  <advance width="452.66667"/>
  <unicode hex="0119"/>
  <outline>
    <contour>
      <point x="300.5" y="-186.833" type="curve"/>
      <point x="334.167" y="-186.833"/>
      <point x="362.667" y="-161.833"/>
      <point x="376.667" y="-133.167" type="curve"/>
      <point x="364.333" y="-124.167" type="line"/>
      <point x="349.833" y="-149.333"/>
      <point x="328.667" y="-169.167"/>
      <point x="302.5" y="-169.167" type="curve"/>
      <point x="274.833" y="-169"/>
      <point x="248.167" y="-145.5"/>
      <point x="248.333" y="-108.833" type="curve"/>
      <point x="248.333" y="-63.833"/>
      <point x="278.167" y="-23.833"/>
      <point x="333.333" y="15.167" type="curve" smooth="yes"/>
      <point x="344.833" y="23.167"/>
      <point x="356.333" y="30.333"/>
      <point x="368.167" y="37.333" type="curve"/>
      <point x="357.333" y="51.667" type="line"/>
      <point x="325.667" y="26.167"/>
      <point x="284.5" y="11.333"/>
      <point x="241.333" y="11.333" type="curve" smooth="yes"/>
      <point x="137.833" y="11.333"/>
      <point x="73.667" y="91.833"/>
      <point x="73.667" y="179.333" type="curve" smooth="yes"/>
      <point x="73.667" y="283.333"/>
      <point x="160.167" y="367.167"/>
      <point x="262.333" y="367.167" type="curve" smooth="yes"/>
      <point x="337.667" y="367.167"/>
      <point x="388.833" y="314.333"/>
      <point x="409.5" y="251.167" type="curve"/>
      <point x="417.333" y="259.5" type="line"/>
      <point x="68.833" y="147.5" type="line"/>
      <point x="72.667" y="129.667" type="line"/>
      <point x="431.333" y="247.333" type="line"/>
      <point x="410.167" y="328.167"/>
      <point x="353" y="385.333"/>
      <point x="261.5" y="385.333" type="curve" smooth="yes"/>
      <point x="148.167" y="385.333"/>
      <point x="54.167" y="291.167"/>
      <point x="54.167" y="176.833" type="curve" smooth="yes"/>
      <point x="54.167" y="74.5"/>
      <point x="131" y="-6.167"/>
      <point x="239.667" y="-6.167" type="curve" smooth="yes"/>
      <point x="271.833" y="-5.833"/>
      <point x="303.333" y="2.333"/>
      <point x="330.833" y="16.167" type="curve"/>
      <point x="340.333" y="36.333" type="line"/>
      <point x="282.333" y="2.667"/>
      <point x="228.833" y="-47.833"/>
      <point x="228.833" y="-109.667" type="curve"/>
      <point x="228.833" y="-155.833"/>
      <point x="262.833" y="-186.5"/>
    </contour>
  </outline>
</glyph>
<glyph name="Hbar" format="2">
  <advance width="894"/>
  <unicode hex="0126"/>
  <outline>
    <contour>
      <point x="158.333" y="510.333" type="line"/>
      <point x="156" y="493.667" type="line"/>
      <point x="811.5" y="493.667" type="line"/>
      <point x="813.833" y="510.333" type="line"/>
    </contour>
    <component base="H" xOffset="74.833"/>
  </outline>
</glyph>
<glyph name="Iogonek" format="2">
  <advance width="257.33333"/>
  <unicode hex="012E"/>
  <outline>
    <contour>
      <point x="77.833" y="-186.167" type="curve"/>
      <point x="111.5" y="-186.333"/>
      <point x="140" y="-161.167"/>
      <point x="154" y="-132.5" type="curve"/>
      <point x="141.667" y="-123.5" type="line"/>
      <point x="127.167" y="-148.833"/>
      <point x="106" y="-168.5"/>
      <point x="80" y="-168.5" type="curve"/>
      <point x="52.167" y="-168.333"/>
      <point x="25.5" y="-145"/>
      <point x="25.667" y="-108.167" type="curve"/>
      <point x="25.833" y="-70"/>
      <point x="59.667" y="-32.667"/>
      <point x="115.667" y="0" type="curve"/>
      <point x="201.833" y="701.667" type="line"/>
      <point x="181.833" y="701.667" type="line"/>
      <point x="95.667" y="0" type="line"/>
      <point x="105.333" y="14.5" type="line"/>
      <point x="52.167" y="-12.5"/>
      <point x="6.167" y="-58.667"/>
      <point x="6.167" y="-109.167" type="curve"/>
      <point x="6.167" y="-155.167"/>
      <point x="40.167" y="-185.833"/>
    </contour>
  </outline>
</glyph>
<glyph name="iogonek" format="2">
  <advance width="178.5"/>
  <unicode hex="012F"/>
  <outline>
    <contour>
      <point x="60.167" y="-186.167" type="curve"/>
      <point x="93.667" y="-186.333"/>
      <point x="122.167" y="-161.167"/>
      <point x="136.167" y="-132.5" type="curve"/>
      <point x="123.833" y="-123.5" type="line"/>
      <point x="109.333" y="-148.833"/>
      <point x="88.167" y="-168.5"/>
      <point x="62.167" y="-168.5" type="curve"/>
      <point x="34.333" y="-168.333"/>
      <point x="7.667" y="-145"/>
      <point x="7.833" y="-108.167" type="curve"/>
      <point x="8" y="-69.167"/>
      <point x="40.5" y="-32.667"/>
      <point x="98.833" y="1" type="curve"/>
      <point x="144.167" y="377.667" type="line"/>
      <point x="124.667" y="377.667" type="line"/>
      <point x="78.333" y="0" type="line"/>
      <point x="88.833" y="6.667" type="line"/>
      <point x="87.333" y="14" type="line"/>
      <point x="34.167" y="-13"/>
      <point x="-11.667" y="-58.833"/>
      <point x="-11.667" y="-109.167" type="curve"/>
      <point x="-11.667" y="-155.167"/>
      <point x="22.333" y="-185.833"/>
    </contour>
    <component base="dotaccentcomb" xOffset="1.5" yOffset="-1.833"/>
  </outline>
</glyph>
<glyph name="idotless" format="2">
  <advance width="208"/>
  <unicode hex="0131"/>
  <anchor x="77.333" y="0" name="bottom"/>
  <anchor x="85.5" y="10" name="ogonek"/>
  <anchor x="129.667" y="377.667" name="top"/>
  <outline>
    <contour>
      <point x="117.167" y="377.667" type="line"/>
      <point x="70.833" y="0" type="line"/>
      <point x="90.333" y="0" type="line"/>
      <point x="136.667" y="377.667" type="line"/>
    </contour>
  </outline>
</glyph>
<glyph name="kgreenlandic" format="2">
  <advance width="420"/>
  <unicode hex="0138"/>
  <outline>
    <contour>
      <point x="102" y="140.833" type="line"/>
      <point x="380" y="377.667" type="line"/>
      <point x="352.5" y="377.667" type="line"/>
      <point x="99" y="159.667" type="line"/>
    </contour>
    <contour>
      <point x="90.333" y="0" type="line"/>
      <point x="136.667" y="377.667" type="line"/>
      <point x="117.167" y="377.667" type="line"/>
      <point x="70.833" y="0" type="line"/>
    </contour>
    <contour>
      <point x="166.667" y="211" type="line"/>
      <point x="154" y="197.833" type="line"/>
      <point x="317.833" y="0" type="line"/>
      <point x="342.167" y="0" type="line"/>
    </contour>
  </outline>
</glyph>
<glyph name="Lslash" format="2">
  <advance width="554"/>
  <unicode hex="0141"/>
  <outline>
    <contour>
      <point x="392" y="410.833" type="line"/>
      <point x="59" y="295.333" type="line"/>
      <point x="56.333" y="276.667" type="line"/>
      <point x="389.333" y="392.167" type="line"/>
    </contour>
    <component base="L"/>
  </outline>
</glyph>
<glyph name="lslash" format="2">
  <advance width="180.33333"/>
  <unicode hex="0142"/>
  <anchor x="81.333" y="0.0" name="bottom"/>
  <anchor x="104.5" y="193.333" name="center"/>
  <anchor x="166.167" y="751.167" name="top"/>
  <anchor x="255.833" y="749.333" name="topright"/>
  <outline>
    <contour>
      <point x="221.667" y="351.833" type="line"/>
      <point x="57.833" y="295.333" type="line"/>
      <point x="55.167" y="276.667" type="line"/>
      <point x="219.167" y="333.167" type="line"/>
    </contour>
    <component base="l" xOffset="0.5"/>
  </outline>
</glyph>
<glyph name="Eng" format="2">
  <advance width="810.66667"/>
  <unicode hex="014A"/>
  <anchor x="383.333" y="0" name="bottom"/>
  <anchor x="468.333" y="700" name="top"/>
  <outline>
    <contour>
      <point x="588.5" y="-181.333" type="line"/>
      <point x="633.667" y="-147"/>
      <point x="660.5" y="-85.5"/>
      <point x="669.667" y="-6.667" type="curve" smooth="yes"/>
      <point x="755.833" y="701.667" type="line"/>
      <point x="736" y="701.667" type="line"/>
      <point x="653.333" y="27.5" type="line"/>
      <point x="664.333" y="25" type="line"/>
      <point x="183.167" y="713.333" type="line"/>
      <point x="182" y="713.333" type="line"/>
      <point x="94.667" y="0" type="line"/>
      <point x="114.5" y="0" type="line"/>
      <point x="197" y="675.667" type="line"/>
      <point x="190.5" y="667.167" type="line"/>
      <point x="659.833" y="-1.333" type="line"/>
      <point x="652.833" y="18.667" type="line"/>
      <point x="650.167" y="-10.167" type="line" smooth="yes"/>
      <point x="644.167" y="-77.833"/>
      <point x="619" y="-137"/>
      <point x="575" y="-169" type="curve"/>
    </contour>
  </outline>
</glyph>
<glyph name="eng" format="2">
  <advance width="487"/>
  <unicode hex="014B"/>
  <outline>
    <contour>
      <point x="368.833" y="-6.333" type="curve" smooth="yes"/>
      <point x="403.167" y="272.5" type="line" smooth="yes"/>
      <point x="411.167" y="340"/>
      <point x="370.5" y="385.333"/>
      <point x="294.167" y="385.333" type="curve" smooth="yes"/>
      <point x="217" y="385.333"/>
      <point x="153.167" y="342.667"/>
      <point x="121" y="281" type="curve"/>
      <point x="124.833" y="273.333" type="line"/>
      <point x="132.333" y="377.667" type="line"/>
      <point x="117.167" y="377.667" type="line"/>
      <point x="70.833" y="0" type="line"/>
      <point x="90.333" y="0" type="line"/>
      <point x="117.167" y="218.167" type="line" smooth="yes"/>
      <point x="127.167" y="304.5"/>
      <point x="204.833" y="366.667"/>
      <point x="291" y="366.667" type="curve" smooth="yes"/>
      <point x="355" y="366.667"/>
      <point x="390.167" y="327.333"/>
      <point x="383.333" y="272.167" type="curve" smooth="yes"/>
      <point x="349.333" y="-10.167" type="line" smooth="yes"/>
      <point x="341.333" y="-77.833"/>
      <point x="318.167" y="-137"/>
      <point x="274.167" y="-169" type="curve"/>
      <point x="287.833" y="-181.333" type="line"/>
      <point x="332.833" y="-147"/>
      <point x="359.833" y="-85.167"/>
    </contour>
  </outline>
</glyph>
<glyph name="OE" format="2">
  <advance width="989.5"/>
  <unicode hex="0152"/>
  <outline>
    <contour>
      <point x="584.667" y="682" type="curve"/>
      <point x="603.667" y="697.5" type="line"/>
      <point x="575.667" y="705.5"/>
      <point x="546.5" y="709.667"/>
      <point x="514.5" y="709.667" type="curve" smooth="yes"/>
      <point x="302" y="709.667"/>
      <point x="109.667" y="529"/>
      <point x="109.667" y="313.667" type="curve" smooth="yes"/>
      <point x="109.667" y="134.333"/>
      <point x="243.833" y="-8"/>
      <point x="426.333" y="-8" type="curve" smooth="yes"/>
      <point x="457.333" y="-8"/>
      <point x="487.333" y="-4"/>
      <point x="516.5" y="3" type="curve"/>
      <point x="503.167" y="20.5" type="line"/>
      <point x="477.5" y="14.5"/>
      <point x="452.833" y="11.667"/>
      <point x="426.333" y="11.667" type="curve" smooth="yes"/>
      <point x="255.833" y="11.667"/>
      <point x="129.667" y="145.667"/>
      <point x="129.667" y="314.333" type="curve" smooth="yes"/>
      <point x="129.667" y="517.333"/>
      <point x="311.833" y="689.833"/>
      <point x="511.833" y="689.833" type="curve" smooth="yes"/>
      <point x="537.5" y="689.833"/>
      <point x="562" y="686.833"/>
    </contour>
    <contour>
      <point x="581.333" y="701.667" type="line"/>
      <point x="495.167" y="0" type="line"/>
      <point x="898" y="0" type="line"/>
      <point x="900.667" y="19.5" type="line"/>
      <point x="517.833" y="19.5" type="line"/>
      <point x="557" y="344" type="line"/>
      <point x="886.667" y="344" type="line"/>
      <point x="889.333" y="363.333" type="line"/>
      <point x="559.5" y="363.333" type="line"/>
      <point x="598.667" y="682.333" type="line"/>
      <point x="967.5" y="682.333" type="line"/>
      <point x="970.167" y="701.667" type="line"/>
    </contour>
  </outline>
</glyph>
<glyph name="oe" format="2">
  <advance width="696"/>
  <unicode hex="0153"/>
  <anchor x="323.167" y="0" name="bottom"/>
  <anchor x="369.5" y="377.667" name="top"/>
  <outline>
    <contour>
      <point x="241.167" y="-7.333" type="curve" smooth="yes"/>
      <point x="283.667" y="-7.333"/>
      <point x="323.5" y="5.833"/>
      <point x="357.833" y="28" type="curve"/>
      <point x="346.667" y="41.667" type="line"/>
      <point x="316.167" y="22"/>
      <point x="281.667" y="10.167"/>
      <point x="243.167" y="10.167" type="curve" smooth="yes"/>
      <point x="145.333" y="10.167"/>
      <point x="74.667" y="84.833"/>
      <point x="74.667" y="176.333" type="curve" smooth="yes"/>
      <point x="74.667" y="281"/>
      <point x="162.167" y="365.5"/>
      <point x="263.167" y="365.5" type="curve" smooth="yes"/>
      <point x="302.5" y="365.5"/>
      <point x="338.333" y="352"/>
      <point x="366" y="331.167" type="curve"/>
      <point x="382.833" y="343.667" type="line"/>
      <point x="351.5" y="368.333"/>
      <point x="309.667" y="383"/>
      <point x="261.833" y="383" type="curve" smooth="yes"/>
      <point x="149.333" y="383"/>
      <point x="55" y="289"/>
      <point x="55" y="176" type="curve" smooth="yes"/>
      <point x="55" y="71.833"/>
      <point x="135.667" y="-7.333"/>
    </contour>
    <component base="e" xOffset="226"/>
  </outline>
</glyph>
<glyph name="uring" format="2">
  <advance width="458.33333"/>
  <unicode hex="016F"/>
  <outline>
    <contour>
      <point x="227.167" y="466.667" type="curve" smooth="yes"/>
      <point x="227.167" y="466.667" type="line" smooth="yes"/>
      <point x="227.167" y="434"/>
      <point x="250.833" y="409.333"/>
      <point x="284.333" y="409.333" type="curve" smooth="yes"/>
      <point x="324" y="409.333"/>
      <point x="357" y="441.167"/>
      <point x="357" y="480.833" type="curve" smooth="yes"/>
      <point x="357" y="513.5"/>
      <point x="333.333" y="538.167"/>
      <point x="299.833" y="538.167" type="curve" smooth="yes"/>
      <point x="260.167" y="538.167"/>
      <point x="227.167" y="506.333"/>
    </contour>
    <contour>
      <point x="243.5" y="469.667" type="curve" smooth="yes"/>
      <point x="243.5" y="469.667" type="line" smooth="yes"/>
      <point x="243.5" y="497.333"/>
      <point x="270.833" y="521.833"/>
      <point x="298.5" y="521.833" type="curve" smooth="yes"/>
      <point x="322.167" y="521.833"/>
      <point x="340.667" y="501.333"/>
      <point x="340.667" y="477.667" type="curve" smooth="yes"/>
      <point x="340.667" y="450"/>
      <point x="314.167" y="425.5"/>
      <point x="286.667" y="425.5" type="curve" smooth="yes"/>
      <point x="263" y="425.5"/>
      <point x="243.5" y="446.167"/>
    </contour>
    <component base="u"/>
  </outline>
</glyph>
<glyph name="Uogonek" format="2">
  <advance width="694.33333"/>
  <unicode hex="0172"/>
  <anchor x="420" y="10" name="_ogonek"/>
  <anchor x="323.833" y="0" name="bottom"/>
  <anchor x="420" y="10" name="ogonek"/>
  <anchor x="410.167" y="701.333" name="top"/>
  <anchor x="733" y="696.833" name="topright"/>
  <outline>
    <contour>
      <point x="323.667" y="-8" type="curve" smooth="yes"/>
      <point x="371.667" y="-8"/>
      <point x="392" y="-2.833"/>
      <point x="422.5" y="7.5" type="curve"/>
      <point x="412.833" y="19.833" type="line"/>
      <point x="359.667" y="-8.333"/>
      <point x="313.333" y="-55.333"/>
      <point x="313.333" y="-108.5" type="curve"/>
      <point x="313.333" y="-154.5"/>
      <point x="346.667" y="-185.833"/>
      <point x="385" y="-185.833" type="curve"/>
      <point x="418.667" y="-185.833"/>
      <point x="447.167" y="-160.833"/>
      <point x="461.167" y="-132.167" type="curve"/>
      <point x="448.833" y="-123.167" type="line"/>
      <point x="434.333" y="-148.5"/>
      <point x="413.167" y="-168.333"/>
      <point x="387.167" y="-168.167" type="curve"/>
      <point x="359.333" y="-168.167"/>
      <point x="332.833" y="-144.167"/>
      <point x="332.833" y="-107.833" type="curve"/>
      <point x="332.833" y="-66.833"/>
      <point x="369.833" y="-12.833"/>
      <point x="428.667" y="9.167" type="curve" smooth="yes"/>
      <point x="509.5" y="39"/>
      <point x="566.167" y="112.833"/>
      <point x="580.333" y="227.833" type="curve" smooth="yes"/>
      <point x="638.167" y="701.667" type="line"/>
      <point x="618.167" y="701.667" type="line"/>
      <point x="561.167" y="230" type="line" smooth="yes"/>
      <point x="543.667" y="90.167"/>
      <point x="458.167" y="10.667"/>
      <point x="325.5" y="10.667" type="curve" smooth="yes"/>
      <point x="204.167" y="10.667"/>
      <point x="127.167" y="90.167"/>
      <point x="144.833" y="230" type="curve" smooth="yes"/>
      <point x="201.833" y="701.667" type="line"/>
      <point x="181.833" y="701.667" type="line"/>
      <point x="123.833" y="227.833" type="line" smooth="yes"/>
      <point x="104.833" y="74.667"/>
      <point x="192.833" y="-8"/>
    </contour>
  </outline>
</glyph>
<glyph name="uogonek" format="2">
  <advance width="487"/>
  <unicode hex="0173"/>
  <outline>
    <contour>
      <point x="331.5" y="-195.333" type="curve"/>
      <point x="365" y="-195.5"/>
      <point x="393.667" y="-170.333"/>
      <point x="407.667" y="-141.833" type="curve"/>
      <point x="395.333" y="-132.833" type="line"/>
      <point x="380.833" y="-158"/>
      <point x="359.667" y="-177.833"/>
      <point x="333.5" y="-177.667" type="curve"/>
      <point x="305.833" y="-177.667"/>
      <point x="279" y="-154.333"/>
      <point x="279.333" y="-117.333" type="curve"/>
      <point x="279.333" y="-75.667"/>
      <point x="310.667" y="-36.333"/>
      <point x="369.167" y="0" type="curve"/>
      <point x="415.5" y="377.667" type="line"/>
      <point x="396" y="377.667" type="line"/>
      <point x="369.167" y="159.667" type="line" smooth="yes"/>
      <point x="359.167" y="73.333"/>
      <point x="273.833" y="10"/>
      <point x="192.667" y="10" type="curve"/>
      <point x="128.833" y="13"/>
      <point x="96.667" y="52.333"/>
      <point x="102.5" y="100.833" type="curve" smooth="yes"/>
      <point x="136.5" y="377.667" type="line"/>
      <point x="117" y="377.667" type="line"/>
      <point x="83.667" y="101.333" type="line" smooth="yes"/>
      <point x="75.667" y="34.833"/>
      <point x="117.333" y="-7.667"/>
      <point x="187.667" y="-7.667" type="curve" smooth="yes"/>
      <point x="261.833" y="-7.667"/>
      <point x="339" y="44.667"/>
      <point x="364.5" y="107.333" type="curve"/>
      <point x="353" y="0" type="line"/>
      <point x="369" y="2.833" type="line"/>
      <point x="358.833" y="13.333" type="line"/>
      <point x="305.667" y="-15.667"/>
      <point x="259.833" y="-63.833"/>
      <point x="259.833" y="-118.333" type="curve"/>
      <point x="259.833" y="-164.333"/>
      <point x="293.833" y="-195.167"/>
    </contour>
  </outline>
</glyph>
<glyph name="Schwa" format="2">
  <advance width="818.33333"/>
  <unicode hex="018F"/>
  <outline>
    <contour>
      <point x="420" y="710.5" type="curve" smooth="yes"/>
      <point x="333.333" y="710.667"/>
      <point x="246.333" y="677.333"/>
      <point x="179.5" y="624.167" type="curve"/>
      <point x="190.667" y="608.333" type="line"/>
      <point x="250.833" y="655.333"/>
      <point x="337.833" y="691"/>
      <point x="419.167" y="690.833" type="curve" smooth="yes"/>
      <point x="522.5" y="690.667"/>
      <point x="741.667" y="618.333"/>
      <point x="741.667" y="370.167" type="curve" smooth="yes"/>
      <point x="741.667" y="255.667"/>
      <point x="637.667" y="12"/>
      <point x="375.833" y="12.5" type="curve" smooth="yes"/>
      <point x="308.667" y="12.667"/>
      <point x="147" y="41.833"/>
      <point x="90" y="235.167" type="curve"/>
      <point x="81.167" y="224.833" type="line"/>
      <point x="740.333" y="440" type="line"/>
      <point x="735.833" y="458" type="line"/>
      <point x="65.667" y="239.333" type="line"/>
      <point x="121.5" y="30.833"/>
      <point x="289.333" y="-5.667"/>
      <point x="374.667" y="-5.667" type="curve" smooth="yes"/>
      <point x="658.667" y="-5.667"/>
      <point x="761.833" y="245.333"/>
      <point x="761.833" y="372.167" type="curve" smooth="yes"/>
      <point x="761.833" y="635.167"/>
      <point x="533.167" y="710"/>
    </contour>
  </outline>
</glyph>
<glyph name="florin" format="2">
  <advance width="284"/>
  <unicode hex="0192"/>
  <outline>
    <contour>
      <point x="157.333" y="518" type="curve" smooth="yes"/>
      <point x="139.833" y="375.167" type="line"/>
      <point x="74.333" y="375.333" type="line"/>
      <point x="71.833" y="356" type="line"/>
      <point x="137.167" y="355.833" type="line"/>
      <point x="100.667" y="57.833" type="line" smooth="yes"/>
      <point x="85" y="-71"/>
      <point x="-2.667" y="-152.5"/>
      <point x="-94.5" y="-152.5" type="curve"/>
      <point x="-97.167" y="-172" type="line"/>
      <point x="8.167" y="-168.5"/>
      <point x="102.333" y="-88.667"/>
      <point x="120.5" y="61" type="curve" smooth="yes"/>
      <point x="157" y="355.5" type="line"/>
      <point x="287" y="355.167" type="line"/>
      <point x="289.667" y="374.333" type="line"/>
      <point x="159.5" y="374.667" type="line"/>
      <point x="177.167" y="521.333" type="line" smooth="yes"/>
      <point x="192.833" y="650.167"/>
      <point x="281.5" y="731.5"/>
      <point x="373.333" y="731.667" type="curve"/>
      <point x="375" y="751.167" type="line"/>
      <point x="271" y="747.5"/>
      <point x="175.667" y="667.667"/>
    </contour>
  </outline>
</glyph>
<glyph name="Nhookleft" format="2">
  <advance width="749.66667"/>
  <unicode hex="019D"/>
  <outline>
    <contour>
      <point x="605" y="-12.833" type="line"/>
      <point x="606.333" y="-11.333" type="line"/>
      <point x="693.5" y="701.667" type="line"/>
      <point x="674" y="701.667" type="line"/>
      <point x="591.333" y="27.5" type="line"/>
      <point x="602.167" y="26.5" type="line"/>
      <point x="121.667" y="713.333" type="line"/>
      <point x="120.5" y="713.333" type="line"/>
      <point x="32.333" y="0" type="line"/>
      <point x="51.833" y="0" type="line"/>
      <point x="135.333" y="675.667" type="line"/>
      <point x="128.167" y="666" type="line"/>
    </contour>
    <contour>
      <point x="59.667" y="60.667" type="line"/>
      <point x="40.833" y="66.5" type="line"/>
      <point x="31.333" y="-10.167" type="line" smooth="yes"/>
      <point x="23.333" y="-77.833"/>
      <point x="-5.5" y="-132.333"/>
      <point x="-43.667" y="-169" type="curve"/>
      <point x="-29.833" y="-181.333" type="line"/>
      <point x="12.333" y="-142.167"/>
      <point x="41.667" y="-83.5"/>
      <point x="51.667" y="-6.667" type="curve" smooth="yes"/>
    </contour>
  </outline>
</glyph>
<glyph name="ohorn" format="2">
  <advance width="504"/>
  <unicode hex="01A1"/>
  <anchor x="334.833" y="371.667" name="_topright"/>
  <anchor x="219.5" y="0" name="bottom"/>
  <anchor x="241.5" y="190.667" name="center"/>
  <anchor x="276" y="-4.333" name="ogonek"/>
  <anchor x="264.333" y="378.333" name="top"/>
  <anchor x="334.667" y="365.833" name="topright"/>
  <outline>
    <contour>
      <point x="239.667" y="-6.333" type="curve" smooth="yes"/>
      <point x="382.667" y="-6.333"/>
      <point x="448" y="105.333"/>
      <point x="448" y="202.833" type="curve" smooth="yes"/>
      <point x="448" y="307.5"/>
      <point x="369.833" y="385.333"/>
      <point x="263.333" y="385.333" type="curve" smooth="yes"/>
      <point x="121" y="385.333"/>
      <point x="55" y="274.667"/>
      <point x="55" y="176.333" type="curve" smooth="yes"/>
      <point x="55" y="71"/>
      <point x="133.833" y="-6.333"/>
    </contour>
    <contour>
      <point x="240.833" y="11.167" type="curve" smooth="yes"/>
      <point x="144.5" y="11.167"/>
      <point x="74.667" y="85.667"/>
      <point x="74.667" y="177.5" type="curve" smooth="yes"/>
      <point x="74.667" y="269.833"/>
      <point x="134.333" y="367.833"/>
      <point x="262.167" y="367.833" type="curve" smooth="yes"/>
      <point x="358.167" y="367.833"/>
      <point x="428.333" y="293.667"/>
      <point x="428.333" y="201.5" type="curve" smooth="yes"/>
      <point x="428.333" y="109.333"/>
      <point x="368.833" y="11.167"/>
    </contour>
    <contour>
      <point x="409.5" y="310.333" type="curve"/>
      <point x="407.167" y="294.167" type="line"/>
      <point x="447.5" y="290.167"/>
      <point x="479.667" y="300.167"/>
      <point x="488" y="388.333" type="curve"/>
      <point x="470.167" y="389.333" type="line"/>
      <point x="464.5" y="323.833"/>
      <point x="443.167" y="306.333"/>
    </contour>
  </outline>
</glyph>
<glyph name="Oogonek" format="2">
  <advance width="869"/>
  <unicode hex="01EA"/>
  <anchor x="414.333" y="0" name="bottom"/>
  <anchor x="455.333" y="350" name="center"/>
  <anchor x="491.5" y="0.5" name="ogonek"/>
  <anchor x="496.5" y="701.333" name="top"/>
  <anchor x="81.167" y="700" name="topleft"/>
  <anchor x="718.833" y="597.5" name="topright"/>
  <outline>
    <contour>
      <point x="495.833" y="-1.333" type="curve"/>
      <point x="483.833" y="10.333" type="line"/>
      <point x="430.667" y="-17.5"/>
      <point x="384.833" y="-66.167"/>
      <point x="384.833" y="-118.333" type="curve"/>
      <point x="384.833" y="-164.5"/>
      <point x="418.833" y="-195.167"/>
      <point x="456.5" y="-195.333" type="curve"/>
      <point x="490.167" y="-195.5"/>
      <point x="518.667" y="-170.5"/>
      <point x="532.667" y="-141.833" type="curve"/>
      <point x="520.333" y="-132.833" type="line"/>
      <point x="505.833" y="-158"/>
      <point x="484.667" y="-177.833"/>
      <point x="458.5" y="-177.833" type="curve"/>
      <point x="430.833" y="-177.667"/>
      <point x="404.167" y="-154.167"/>
      <point x="404.333" y="-117.167" type="curve"/>
      <point x="404.5" y="-76"/>
      <point x="437.5" y="-37.167"/>
      <point x="496.333" y="-1.667" type="curve"/>
      <point x="701.833" y="31"/>
      <point x="813.333" y="219"/>
      <point x="813.333" y="377.667" type="curve" smooth="yes"/>
      <point x="813.333" y="571.167"/>
      <point x="665.667" y="708.667"/>
      <point x="475.667" y="708.667" type="curve" smooth="yes"/>
      <point x="229.5" y="708.667"/>
      <point x="93.833" y="499"/>
      <point x="93.833" y="323.833" type="curve" smooth="yes"/>
      <point x="93.833" y="130.5"/>
      <point x="241.5" y="-7"/>
      <point x="431.5" y="-7" type="curve" smooth="yes"/>
      <point x="454.833" y="-7"/>
      <point x="475.333" y="-5.333"/>
    </contour>
    <contour>
      <point x="431.667" y="11.667" type="curve" smooth="yes"/>
      <point x="249.333" y="11.667"/>
      <point x="113.833" y="154.667"/>
      <point x="113.833" y="324.167" type="curve" smooth="yes"/>
      <point x="113.833" y="490.667"/>
      <point x="245.667" y="690"/>
      <point x="474.5" y="690" type="curve" smooth="yes"/>
      <point x="656.667" y="690"/>
      <point x="793.333" y="546.833"/>
      <point x="793.333" y="377.333" type="curve" smooth="yes"/>
      <point x="793.333" y="211"/>
      <point x="660.5" y="11.667"/>
    </contour>
  </outline>
</glyph>
<glyph name="oogonek" format="2">
  <advance width="502.33333"/>
  <unicode hex="01EB"/>
  <anchor x="276" y="-4.333" name="ogonek"/>
  <outline>
    <contour>
      <point x="300.167" y="3.5" type="curve"/>
      <point x="276.5" y="6.333" type="line"/>
      <point x="228.167" y="-14.167"/>
      <point x="188.5" y="-61"/>
      <point x="188.5" y="-123.167" type="curve"/>
      <point x="188.5" y="-169.167"/>
      <point x="222.5" y="-200"/>
      <point x="260.167" y="-200.167" type="curve"/>
      <point x="293.667" y="-200.333"/>
      <point x="322.333" y="-175.167"/>
      <point x="336.333" y="-146.5" type="curve"/>
      <point x="324" y="-137.5" type="line"/>
      <point x="309.5" y="-162.833"/>
      <point x="288.333" y="-182.667"/>
      <point x="262.167" y="-182.5" type="curve"/>
      <point x="234.5" y="-182.5"/>
      <point x="207.833" y="-158.833"/>
      <point x="208" y="-122.167" type="curve"/>
      <point x="208.167" y="-59.667"/>
      <point x="256" y="-10.333"/>
      <point x="301.167" y="2.333" type="curve" smooth="yes"/>
      <point x="394.5" y="26.833"/>
      <point x="448" y="101.833"/>
      <point x="448" y="202.833" type="curve" smooth="yes"/>
      <point x="448" y="307.5"/>
      <point x="369.833" y="385.333"/>
      <point x="263.333" y="385.333" type="curve" smooth="yes"/>
      <point x="121" y="385.333"/>
      <point x="55" y="274.667"/>
      <point x="55" y="176.333" type="curve" smooth="yes"/>
      <point x="55" y="71"/>
      <point x="133.833" y="-6.333"/>
      <point x="239.667" y="-6.333" type="curve" smooth="yes"/>
      <point x="262.833" y="-6.333"/>
      <point x="281.333" y="-2.5"/>
    </contour>
    <contour>
      <point x="240.833" y="11.167" type="curve" smooth="yes"/>
      <point x="144.5" y="11.167"/>
      <point x="74.667" y="85.667"/>
      <point x="74.667" y="177.5" type="curve" smooth="yes"/>
      <point x="74.667" y="269.833"/>
      <point x="134.333" y="367.833"/>
      <point x="262.167" y="367.833" type="curve" smooth="yes"/>
      <point x="358.167" y="367.833"/>
      <point x="428.333" y="293.667"/>
      <point x="428.333" y="201.5" type="curve" smooth="yes"/>
      <point x="428.333" y="109.333"/>
      <point x="368.833" y="11.167"/>
    </contour>
  </outline>
</glyph>
<glyph name="nhookleft" format="2">
  <advance width="501.16667"/>
  <unicode hex="0272"/>
  <outline>
    <contour>
      <point x="21.833" y="-181.333" type="line"/>
      <point x="63.167" y="-141.5"/>
      <point x="93.667" y="-84"/>
      <point x="103.667" y="-6.667" type="curve" smooth="yes"/>
      <point x="111.5" y="56.167" type="line"/>
      <point x="92" y="56.167" type="line"/>
      <point x="83.333" y="-10.167" type="line" smooth="yes"/>
      <point x="75.333" y="-77.833"/>
      <point x="46.5" y="-132.333"/>
      <point x="9" y="-169" type="curve"/>
    </contour>
    <contour>
      <point x="146.5" y="377.667" type="line"/>
      <point x="131.333" y="377.667" type="line"/>
      <point x="85" y="0" type="line"/>
      <point x="104.5" y="0" type="line"/>
      <point x="131.333" y="219.167" type="line" smooth="yes"/>
      <point x="142.333" y="308.333"/>
      <point x="226.667" y="367.667"/>
      <point x="309.833" y="367.667" type="curve"/>
      <point x="373" y="364.833"/>
      <point x="402.167" y="324.5"/>
      <point x="397.333" y="271.167" type="curve"/>
      <point x="364.333" y="0" type="line"/>
      <point x="384" y="0" type="line"/>
      <point x="417.333" y="272.5" type="line"/>
      <point x="423.333" y="339"/>
      <point x="384.5" y="385.333"/>
      <point x="314" y="385.333" type="curve" smooth="yes"/>
      <point x="238.667" y="385.333"/>
      <point x="163.667" y="341.667"/>
      <point x="133.5" y="270.333" type="curve"/>
      <point x="134.833" y="256.333" type="line"/>
    </contour>
  </outline>
</glyph>
<glyph name="caron" format="2">
  <advance width="446.33333"/>
  <unicode hex="02C7"/>
  <outline>
    <contour>
      <point x="210.5" y="660.5" type="line"/>
      <point x="189.667" y="660.5" type="line"/>
      <point x="289.667" y="479.5" type="line"/>
      <point x="290.667" y="479.5" type="line"/>
      <point x="435.667" y="660.5" type="line"/>
      <point x="414.833" y="660.5" type="line"/>
      <point x="286.5" y="504" type="line"/>
      <point x="297.667" y="504.333" type="line"/>
    </contour>
  </outline>
</glyph>
<glyph name="dotaccent" format="2">
  <advance width="188.66667"/>
  <unicode hex="02D9"/>
  <outline>
    <contour>
      <point x="127.333" y="503.333" type="curve" smooth="yes"/>
      <point x="127.167" y="493.833"/>
      <point x="134.5" y="482.833"/>
      <point x="147.5" y="482.667" type="curve" smooth="yes"/>
      <point x="160.667" y="482.667"/>
      <point x="173" y="493.333"/>
      <point x="173.167" y="506.667" type="curve" smooth="yes"/>
      <point x="173.5" y="518"/>
      <point x="164.333" y="527.167"/>
      <point x="153.167" y="527.167" type="curve" smooth="yes"/>
      <point x="140" y="527.333"/>
      <point x="127.5" y="516.5"/>
    </contour>
  </outline>
</glyph>
<glyph name="ring" format="2">
  <advance width="418.66667"/>
  <unicode hex="02DA"/>
  <outline>
    <contour>
      <point x="219.167" y="468.833" type="curve" smooth="yes"/>
      <point x="218.833" y="433.5"/>
      <point x="244.667" y="408.667"/>
      <point x="281.833" y="408.5" type="curve" smooth="yes"/>
      <point x="320" y="408.333"/>
      <point x="351" y="434.833"/>
      <point x="351.333" y="477.833" type="curve" smooth="yes"/>
      <point x="351.667" y="512.167"/>
      <point x="325" y="537.833"/>
      <point x="287.833" y="538.167" type="curve" smooth="yes"/>
      <point x="250.5" y="538.333"/>
      <point x="219.5" y="511.833"/>
    </contour>
    <contour>
      <point x="236.667" y="471.333" type="curve" smooth="yes"/>
      <point x="236.833" y="503.167"/>
      <point x="262.5" y="522"/>
      <point x="289.333" y="521.833" type="curve" smooth="yes"/>
      <point x="314.333" y="521.833"/>
      <point x="334" y="502"/>
      <point x="333.833" y="475" type="curve" smooth="yes"/>
      <point x="333.667" y="444.333"/>
      <point x="308.167" y="424.5"/>
      <point x="281.333" y="424.5" type="curve" smooth="yes"/>
      <point x="256.333" y="424.667"/>
      <point x="236.667" y="444.5"/>
    </contour>
  </outline>
</glyph>
<glyph name="hungarumlaut" format="2">
  <advance width="441"/>
  <unicode hex="02DD"/>
  <outline>
    <contour>
      <point x="283.833" y="612.5" type="curve"/>
      <point x="263" y="612.5" type="line"/>
      <point x="228" y="568.5"/>
      <point x="192" y="523.5"/>
      <point x="157" y="479.5" type="curve"/>
      <point x="176" y="479.5" type="line"/>
      <point x="211.667" y="523.5"/>
      <point x="248.333" y="568.5"/>
    </contour>
    <contour>
      <point x="396.833" y="612.5" type="curve"/>
      <point x="376.167" y="612.5" type="line"/>
      <point x="341" y="568.5"/>
      <point x="305" y="523.5"/>
      <point x="270" y="479.5" type="curve"/>
      <point x="289" y="479.5" type="line"/>
      <point x="324.667" y="523.5"/>
      <point x="361.333" y="568.5"/>
    </contour>
  </outline>
</glyph>
<glyph name="tildecomb" format="2">
  <unicode hex="0303"/>
  <anchor x="356.5" y="377.667" name="_top"/>
  <anchor x="376.5" y="533.667" name="top"/>
  <outline>
    <contour>
      <point x="443.499" y="443.5" type="curve"/>
      <point x="482.999" y="441.33399999999995"/>
      <point x="518.333" y="471.5"/>
      <point x="530.499" y="548.8340000000001" type="curve"/>
      <point x="514.333" y="551.8340000000001" type="line"/>
      <point x="500.999" y="476.5"/>
      <point x="472.83299999999997" y="459.33399999999995"/>
      <point x="445.666" y="461.33399999999995" type="curve"/>
      <point x="417.166" y="463.167"/>
      <point x="401.999" y="484.167"/>
      <point x="386.83299999999997" y="505.99999999999994" type="curve"/>
      <point x="370.499" y="530.167"/>
      <point x="353.999" y="555.3340000000001"/>
      <point x="315.83299999999997" y="557.3340000000001" type="curve"/>
      <point x="280.166" y="559.5"/>
      <point x="239.333" y="528.8340000000001"/>
      <point x="226.833" y="452.0" type="curve"/>
      <point x="242.999" y="448.83399999999995" type="line"/>
      <point x="256.499" y="524.167"/>
      <point x="292.33299999999997" y="540.3340000000001"/>
      <point x="314.83299999999997" y="539.3340000000001" type="curve"/>
      <point x="342.499" y="537.3340000000001"/>
      <point x="356.499" y="515.667"/>
      <point x="371.499" y="494.0" type="curve"/>
      <point x="388.999" y="469.83399999999995"/>
      <point x="406.499" y="445.5"/>
    </contour>
  </outline>
</glyph>
<glyph name="hookabovecomb" format="2">
  <unicode hex="0309"/>
  <anchor x="136.667" y="471.833" name="_top"/>
  <anchor x="155.833" y="667.833" name="top"/>
  <outline>
    <contour>
      <point x="130.167" y="532.833" type="curve"/>
      <point x="138" y="524.333" type="line"/>
      <point x="175.833" y="549.833"/>
      <point x="205.5" y="568.167"/>
      <point x="209.333" y="603.167" type="curve" smooth="yes"/>
      <point x="215.167" y="649.833"/>
      <point x="188.333" y="666.833"/>
      <point x="160.667" y="667.833" type="curve" smooth="yes"/>
      <point x="131.167" y="669.833"/>
      <point x="108.333" y="657.333"/>
      <point x="84.167" y="626.833" type="curve"/>
      <point x="94.833" y="618.667" type="line"/>
      <point x="118.167" y="645"/>
      <point x="132.167" y="654"/>
      <point x="157.667" y="652.167" type="curve" smooth="yes"/>
      <point x="188.333" y="651.167"/>
      <point x="197.333" y="629.5"/>
      <point x="194.333" y="601.833" type="curve"/>
      <point x="190.333" y="574.167"/>
      <point x="163.833" y="558.333"/>
    </contour>
  </outline>
</glyph>
<glyph name="horncomb" format="2">
  <unicode hex="031B"/>
  <anchor x="151.167" y="700.167" name="_topright"/>
  <anchor x="111.833" y="434.333" name="topright"/>
  <outline>
    <contour>
      <point x="153.167" y="705.667" type="curve"/>
      <point x="150.833" y="689.667" type="line"/>
      <point x="221.833" y="684.5"/>
      <point x="271.167" y="696.667"/>
      <point x="285.167" y="802.833" type="curve"/>
      <point x="267.333" y="802.833" type="line"/>
      <point x="256.833" y="721"/>
      <point x="221.167" y="700.833"/>
    </contour>
  </outline>
</glyph>
<glyph name="strokeshortcomb" format="2">
  <unicode hex="0335"/>
  <anchor x="179.5" y="218.667" name="_center"/>
  <outline>
    <contour>
      <point x="64.667" y="228.5" type="line"/>
      <point x="62" y="208.833" type="line"/>
      <point x="294" y="208.833" type="line"/>
      <point x="296.667" y="228.5" type="line"/>
    </contour>
  </outline>
</glyph>
<glyph name="mu" format="2">
  <advance width="486.5"/>
  <unicode hex="03BC"/>
  <anchor x="212" y="-0.833" name="bottom"/>
  <anchor x="368.167" y="0.5" name="ogonek"/>
  <anchor x="266.833" y="380.5" name="top"/>
  <anchor x="393" y="270.333" name="topright"/>
  <outline>
    <contour>
      <point x="187.833" y="-7.667" type="curve" smooth="yes"/>
      <point x="262.5" y="-7.667"/>
      <point x="341.667" y="45.5"/>
      <point x="367.333" y="108.167" type="curve"/>
      <point x="365.667" y="115" type="line"/>
      <point x="353.167" y="0" type="line"/>
      <point x="369.333" y="0" type="line"/>
      <point x="415.667" y="377.667" type="line"/>
      <point x="396.167" y="377.667" type="line"/>
      <point x="369.333" y="159.667" type="line" smooth="yes"/>
      <point x="359.333" y="73.333"/>
      <point x="274" y="10"/>
      <point x="192.833" y="10" type="curve"/>
      <point x="129" y="13"/>
      <point x="96.833" y="52.333"/>
      <point x="102.667" y="100.833" type="curve" smooth="yes"/>
      <point x="136.667" y="377.667" type="line"/>
      <point x="117.167" y="377.667" type="line"/>
      <point x="83.833" y="101.333" type="line" smooth="yes"/>
      <point x="75.833" y="34.833"/>
      <point x="117.5" y="-7.667"/>
    </contour>
    <contour>
      <point x="115.667" y="361.667" type="line"/>
      <point x="42.667" y="-232.167" type="line"/>
      <point x="60.833" y="-232.167" type="line"/>
      <point x="133.833" y="361.667" type="line"/>
    </contour>
  </outline>
</glyph>
<glyph name="pi" format="2">
  <advance width="273.83333"/>
  <unicode hex="03C0"/>
  <outline>
    <contour>
      <point x="40.667" y="322.167" type="line"/>
      <point x="38" y="303.333" type="line"/>
      <point x="89.333" y="303.333" type="line"/>
      <point x="51.667" y="0" type="line"/>
      <point x="70.667" y="0" type="line"/>
      <point x="108.333" y="303.333" type="line"/>
      <point x="253" y="303.333" type="line"/>
      <point x="215.333" y="0" type="line"/>
      <point x="234.167" y="0" type="line"/>
      <point x="271.833" y="303.333" type="line"/>
      <point x="311" y="303.333" type="line"/>
      <point x="313.5" y="322.167" type="line"/>
    </contour>
  </outline>
</glyph>
<glyph name="Germandbls" format="2">
  <advance width="833.83333"/>
  <unicode hex="1E9E"/>
  <outline>
    <contour>
      <point x="556.167" y="-8" type="curve"/>
      <point x="661.333" y="-8"/>
      <point x="743.833" y="64.167"/>
      <point x="754" y="148.5" type="curve"/>
      <point x="765.167" y="236.5"/>
      <point x="689.833" y="271"/>
      <point x="616" y="313" type="curve"/>
      <point x="538.667" y="357.333"/>
      <point x="463.833" y="398.667"/>
      <point x="474.667" y="487" type="curve"/>
      <point x="483.5" y="564.167"/>
      <point x="560" y="624.667"/>
      <point x="637.167" y="624.667" type="curve"/>
      <point x="693.5" y="624.667"/>
      <point x="729.5" y="594.667"/>
      <point x="739.333" y="585.667" type="curve"/>
      <point x="751.167" y="600" type="line"/>
      <point x="709.333" y="656.667"/>
      <point x="614.167" y="711.5"/>
      <point x="491" y="711.5" type="curve"/>
      <point x="276" y="711.5"/>
      <point x="165.167" y="562.5"/>
      <point x="138.167" y="346.5" type="curve"/>
      <point x="95.667" y="0" type="line"/>
      <point x="115.5" y="0" type="line"/>
      <point x="158" y="342.5" type="line"/>
      <point x="187.5" y="586.333"/>
      <point x="316.167" y="694"/>
      <point x="491" y="694" type="curve"/>
      <point x="576" y="694"/>
      <point x="662.833" y="662.333"/>
      <point x="715.5" y="610.333" type="curve"/>
      <point x="722.5" y="616.5" type="line"/>
      <point x="706.667" y="626.667"/>
      <point x="687.667" y="642.333"/>
      <point x="637.667" y="642.333" type="curve"/>
      <point x="519" y="635.333"/>
      <point x="462" y="556"/>
      <point x="452.833" y="480.167" type="curve"/>
      <point x="441.833" y="389.5"/>
      <point x="519.833" y="339"/>
      <point x="602.167" y="297.167" type="curve"/>
      <point x="670.167" y="253"/>
      <point x="743.833" y="226"/>
      <point x="734" y="146.667" type="curve"/>
      <point x="723" y="59.667"/>
      <point x="626" y="10"/>
      <point x="559.167" y="10" type="curve"/>
      <point x="492.833" y="10"/>
      <point x="434.333" y="30.333"/>
      <point x="392.167" y="55" type="curve"/>
      <point x="383" y="37.5" type="line"/>
      <point x="415.667" y="17"/>
      <point x="471.167" y="-8"/>
    </contour>
  </outline>
</glyph>
<glyph name="endash" format="2">
  <advance width="510"/>
  <unicode hex="2013"/>
  <outline>
    <contour>
      <point x="124.5" y="197.167" type="line"/>
      <point x="122" y="178.333" type="line"/>
      <point x="423.333" y="178.333" type="line"/>
      <point x="425.833" y="197.167" type="line"/>
    </contour>
  </outline>
</glyph>
<glyph name="quoteleft" format="2">
  <advance width="164"/>
  <unicode hex="2018"/>
  <outline>
    <contour>
      <point x="165.833" y="590.5" type="curve"/>
      <point x="165.833" y="590.5" type="line"/>
      <point x="141.833" y="617.5"/>
      <point x="132.833" y="658.5"/>
      <point x="146.833" y="704.667" type="curve"/>
      <point x="141" y="706.667"/>
      <point x="133.333" y="709.667"/>
      <point x="126.5" y="711.667" type="curve"/>
      <point x="109.5" y="658.5"/>
      <point x="121.333" y="607.333"/>
      <point x="155.333" y="572.167" type="curve"/>
      <point x="159.167" y="578.167"/>
      <point x="163" y="584.333"/>
    </contour>
  </outline>
</glyph>
<glyph name="quoteright" format="2">
  <advance width="164.16667"/>
  <unicode hex="2019"/>
  <outline>
    <contour>
      <point x="135.833" y="572.167" type="curve"/>
      <point x="135.833" y="572.167" type="line"/>
      <point x="179.833" y="607.333"/>
      <point x="203.833" y="658.5"/>
      <point x="198.833" y="711.667" type="curve"/>
      <point x="192" y="709.667"/>
      <point x="184.167" y="706.667"/>
      <point x="176.5" y="704.667" type="curve"/>
      <point x="180.5" y="658.5"/>
      <point x="161.5" y="617.5"/>
      <point x="129.5" y="590.5" type="curve"/>
      <point x="132.333" y="584.333"/>
      <point x="134" y="578.167"/>
    </contour>
  </outline>
</glyph>
<glyph name="quotesinglbase" format="2">
  <advance width="146"/>
  <unicode hex="201A"/>
  <outline>
    <contour>
      <point x="22.333" y="-47.5" type="curve"/>
      <point x="22.333" y="-47.5" type="line"/>
      <point x="65.333" y="-12.333"/>
      <point x="89.333" y="38.833"/>
      <point x="85.333" y="92.167" type="curve"/>
      <point x="78.5" y="90.167"/>
      <point x="69.833" y="87.167"/>
      <point x="63" y="85.167" type="curve"/>
      <point x="66" y="39"/>
      <point x="47" y="-2"/>
      <point x="16" y="-29" type="curve"/>
      <point x="17.833" y="-35.167"/>
      <point x="20.5" y="-41.333"/>
    </contour>
  </outline>
</glyph>
<glyph name="quotedblleft" format="2">
  <advance width="249.16667"/>
  <unicode hex="201C"/>
  <outline>
    <contour>
      <point x="157.5" y="590.5" type="curve"/>
      <point x="157.5" y="590.5" type="line"/>
      <point x="133.5" y="617.5"/>
      <point x="124.333" y="658.5"/>
      <point x="138.5" y="704.667" type="curve"/>
      <point x="132.667" y="706.667"/>
      <point x="124.833" y="709.667"/>
      <point x="118.167" y="711.667" type="curve"/>
      <point x="101" y="658.5"/>
      <point x="113" y="607.333"/>
      <point x="146.833" y="572.167" type="curve"/>
      <point x="150.833" y="578.167"/>
      <point x="154.667" y="584.333"/>
    </contour>
    <contour>
      <point x="261.5" y="590.5" type="curve"/>
      <point x="261.5" y="590.5" type="line"/>
      <point x="237.5" y="617.5"/>
      <point x="228.5" y="658.5"/>
      <point x="242.5" y="704.667" type="curve"/>
      <point x="236.667" y="706.667"/>
      <point x="229" y="709.667"/>
      <point x="222.167" y="711.667" type="curve"/>
      <point x="205.167" y="658.5"/>
      <point x="217.167" y="607.333"/>
      <point x="251" y="572.167" type="curve"/>
      <point x="254.833" y="578.167"/>
      <point x="258.667" y="584.333"/>
    </contour>
  </outline>
</glyph>
<glyph name="quotedblright" format="2">
  <advance width="248.16667"/>
  <unicode hex="201D"/>
  <outline>
    <contour>
      <point x="120.167" y="572.167" type="curve"/>
      <point x="120.167" y="572.167" type="line"/>
      <point x="164.167" y="607.333"/>
      <point x="188.167" y="658.5"/>
      <point x="183.167" y="711.667" type="curve"/>
      <point x="176.333" y="709.667"/>
      <point x="168.5" y="706.667"/>
      <point x="160.833" y="704.667" type="curve"/>
      <point x="164.833" y="658.5"/>
      <point x="145.833" y="617.5"/>
      <point x="113.833" y="590.5" type="curve"/>
      <point x="116.667" y="584.333"/>
      <point x="118.333" y="578.167"/>
    </contour>
    <contour>
      <point x="224.333" y="572.167" type="curve"/>
      <point x="224.333" y="572.167" type="line"/>
      <point x="268.167" y="607.333"/>
      <point x="292.167" y="658.5"/>
      <point x="287.333" y="711.667" type="curve"/>
      <point x="280.5" y="709.667"/>
      <point x="272.667" y="706.667"/>
      <point x="265" y="704.667" type="curve"/>
      <point x="268.833" y="658.5"/>
      <point x="249.833" y="617.5"/>
      <point x="217.833" y="590.5" type="curve"/>
      <point x="220.667" y="584.333"/>
      <point x="222.5" y="578.167"/>
    </contour>
  </outline>
</glyph>
<glyph name="dagger" format="2">
  <advance width="300"/>
  <unicode hex="2020"/>
  <outline>
    <contour>
      <point x="110.5" y="440" type="line"/>
      <point x="107.833" y="421.167" type="line"/>
      <point x="295.333" y="421.167" type="line"/>
      <point x="298" y="440" type="line"/>
    </contour>
    <contour>
      <point x="210.833" y="573.833" type="line"/>
      <point x="149" y="68.5" type="line"/>
      <point x="167.833" y="68.5" type="line"/>
      <point x="229.833" y="573.833" type="line"/>
    </contour>
  </outline>
</glyph>
<glyph name="daggerdbl" format="2">
  <advance width="300"/>
  <unicode hex="2021"/>
  <outline>
    <contour>
      <point x="36" y="294.5" type="line"/>
      <point x="33.5" y="275.667" type="line"/>
      <point x="334.5" y="275.667" type="line"/>
      <point x="337" y="294.5" type="line"/>
    </contour>
    <contour>
      <point x="109.5" y="440" type="line"/>
      <point x="107.833" y="421.167" type="line"/>
      <point x="295.333" y="421.167" type="line"/>
      <point x="297" y="440" type="line"/>
    </contour>
    <contour>
      <point x="210.833" y="573.833" type="line"/>
      <point x="149" y="68.5" type="line"/>
      <point x="167.833" y="68.5" type="line"/>
      <point x="229.833" y="573.833" type="line"/>
    </contour>
  </outline>
</glyph>
<glyph name="bullet" format="2">
  <advance width="479.33333"/>
  <unicode hex="2022"/>
  <outline>
    <contour>
      <point x="205.833" y="292.833" type="curve" smooth="yes"/>
      <point x="205.833" y="292.833" type="line" smooth="yes"/>
      <point x="205.833" y="258.5"/>
      <point x="232.5" y="230.833"/>
      <point x="267.667" y="230.833" type="curve" smooth="yes"/>
      <point x="310.333" y="230.833"/>
      <point x="346.667" y="265"/>
      <point x="346.667" y="307.667" type="curve" smooth="yes"/>
      <point x="346.667" y="342.833"/>
      <point x="321" y="370.667"/>
      <point x="284.833" y="370.667" type="curve" smooth="yes"/>
      <point x="243.167" y="370.667"/>
      <point x="205.833" y="335.5"/>
    </contour>
  </outline>
</glyph>
<glyph name="perthousand" format="2">
  <advance width="1029"/>
  <unicode hex="2030"/>
  <outline>
    <contour>
      <point x="233.833" y="223.333" type="curve" smooth="yes"/>
      <point x="311.333" y="227.333"/>
      <point x="353.667" y="305.667"/>
      <point x="353.667" y="384" type="curve" smooth="yes"/>
      <point x="353.667" y="489.833"/>
      <point x="276.333" y="504.833"/>
      <point x="248.667" y="504.833" type="curve" smooth="yes"/>
      <point x="169.833" y="503.667"/>
      <point x="127.167" y="424.5"/>
      <point x="127.167" y="344.333" type="curve" smooth="yes"/>
      <point x="127.167" y="234.5"/>
      <point x="206.167" y="223.333"/>
    </contour>
    <contour>
      <point x="234.667" y="240" type="curve" smooth="yes"/>
      <point x="210.5" y="240"/>
      <point x="146" y="249.167"/>
      <point x="146" y="346.167" type="curve" smooth="yes"/>
      <point x="146" y="414"/>
      <point x="180.333" y="487.667"/>
      <point x="248.167" y="488" type="curve" smooth="yes"/>
      <point x="271" y="488"/>
      <point x="335" y="475.5"/>
      <point x="335" y="382.833" type="curve" smooth="yes"/>
      <point x="335" y="316.167"/>
      <point x="302" y="243"/>
    </contour>
    <contour>
      <point x="540.667" y="2.667" type="curve" smooth="yes"/>
      <point x="616" y="5.667"/>
      <point x="661.833" y="81.667"/>
      <point x="661.833" y="163" type="curve" smooth="yes"/>
      <point x="661.833" y="269.167"/>
      <point x="585.333" y="284.167"/>
      <point x="557.5" y="284.167" type="curve" smooth="yes"/>
      <point x="477.5" y="282.833"/>
      <point x="435.333" y="202.667"/>
      <point x="435.333" y="123.333" type="curve" smooth="yes"/>
      <point x="435.333" y="14.667"/>
      <point x="512.667" y="2.667"/>
    </contour>
    <contour>
      <point x="541.667" y="19.333" type="curve"/>
      <point x="488.333" y="21.833"/>
      <point x="454" y="55.333"/>
      <point x="454" y="125.5" type="curve" smooth="yes"/>
      <point x="454" y="193.833"/>
      <point x="487.333" y="266.333"/>
      <point x="555.333" y="267.333" type="curve" smooth="yes"/>
      <point x="573.5" y="267.333"/>
      <point x="643" y="259.667"/>
      <point x="643" y="162.5" type="curve" smooth="yes"/>
      <point x="643" y="97.833"/>
      <point x="610.667" y="20.667"/>
    </contour>
    <contour>
      <point x="586" y="507.667" type="line"/>
      <point x="564.5" y="507.667" type="line"/>
      <point x="195.5" y="0" type="line"/>
      <point x="216.833" y="-0.167" type="line"/>
    </contour>
    <contour>
      <point x="818.333" y="2.667" type="curve" smooth="yes"/>
      <point x="892.667" y="6.5"/>
      <point x="937.667" y="82.5"/>
      <point x="937.667" y="163" type="curve" smooth="yes"/>
      <point x="937.667" y="269.167"/>
      <point x="860.333" y="284.167"/>
      <point x="832.5" y="284.167" type="curve" smooth="yes"/>
      <point x="752.5" y="281.167"/>
      <point x="711.167" y="203.5"/>
      <point x="711.167" y="123.333" type="curve" smooth="yes"/>
      <point x="711.167" y="16.833"/>
      <point x="786.167" y="2.667"/>
    </contour>
    <contour>
      <point x="818" y="19.333" type="curve" smooth="yes"/>
      <point x="794.333" y="19.333"/>
      <point x="729.833" y="28.667"/>
      <point x="729.833" y="125.5" type="curve" smooth="yes"/>
      <point x="729.833" y="193"/>
      <point x="763.333" y="264.667"/>
      <point x="830.5" y="267.333" type="curve" smooth="yes"/>
      <point x="853.667" y="267.333"/>
      <point x="918.833" y="256"/>
      <point x="918.833" y="162.5" type="curve" smooth="yes"/>
      <point x="918.833" y="96.167"/>
      <point x="886.5" y="22"/>
    </contour>
  </outline>
</glyph>
<glyph name="guilsinglright" format="2">
  <advance width="392"/>
  <unicode hex="203A"/>
  <outline>
    <contour>
      <point x="259.16600000000005" y="239.167" type="curve"/>
      <point x="108.33300000000003" y="75.333" type="line"/>
      <point x="105.66600000000005" y="96.833" type="line"/>
      <point x="144.83300000000003" y="143.667"/>
      <point x="186.50000000000003" y="192.333"/>
      <point x="225.66600000000003" y="239.167" type="curve"/>
      <point x="175.00000000000003" y="285.167"/>
      <point x="121.16600000000005" y="333.667"/>
      <point x="70.5" y="379.667" type="curve"/>
      <point x="67.83300000000003" y="402.167" type="line"/>
      <point x="129.0" y="350.5"/>
      <point x="198.00000000000003" y="290.833"/>
    </contour>
  </outline>
</glyph>
<glyph name="fraction" format="2">
  <advance width="300"/>
  <unicode hex="2044"/>
  <outline>
    <contour>
      <point x="391.667" y="755.667" type="curve"/>
      <point x="372.833" y="755.667" type="line"/>
      <point x="248.667" y="503.5"/>
      <point x="125.5" y="252.167"/>
      <point x="1.333" y="0" type="curve"/>
      <point x="20.333" y="0" type="line"/>
      <point x="144.5" y="252.167"/>
      <point x="267.5" y="503.5"/>
    </contour>
  </outline>
</glyph>
<glyph name="foursuperior" format="2">
  <advance width="350.66667"/>
  <unicode hex="2074"/>
  <outline>
    <contour>
      <point x="298" y="471.333" type="line"/>
      <point x="95" y="471.333" type="line"/>
      <point x="99.333" y="465.333" type="line"/>
      <point x="266.667" y="629.333" type="line"/>
      <point x="262.5" y="636.667" type="line"/>
      <point x="226.5" y="347.167" type="line"/>
      <point x="245.167" y="347.167" type="line"/>
      <point x="283.833" y="661.167" type="line"/>
      <point x="276.167" y="661.167" type="line"/>
      <point x="77.833" y="464.667" type="line"/>
      <point x="76.667" y="455.5" type="line"/>
      <point x="295.667" y="455.5" type="line"/>
    </contour>
  </outline>
</glyph>
<glyph name="colonsign" format="2">
  <advance width="697.16667"/>
  <unicode hex="20A1"/>
  <outline>
    <contour>
      <point x="548.667" y="720.5" type="line"/>
      <point x="529.5" y="720.5" type="line"/>
      <point x="156.333" y="-40.667" type="line"/>
      <point x="175.5" y="-40.667" type="line"/>
    </contour>
    <contour>
      <point x="669.667" y="720.5" type="line"/>
      <point x="650.333" y="720.5" type="line"/>
      <point x="277.333" y="-40.667" type="line"/>
      <point x="296.5" y="-40.667" type="line"/>
    </contour>
    <component base="C"/>
  </outline>
</glyph>
<glyph name="lira" format="2">
  <advance width="599.16667"/>
  <unicode hex="20A4"/>
  <outline>
    <contour>
      <point x="290.833" y="332.667" type="line"/>
      <point x="75.833" y="332.667" type="line"/>
      <point x="73.167" y="313.5" type="line"/>
      <point x="288.167" y="313.5" type="line"/>
    </contour>
    <contour>
      <point x="277.333" y="220" type="line"/>
      <point x="62.5" y="220" type="line"/>
      <point x="59.833" y="201" type="line"/>
      <point x="274.833" y="201" type="line"/>
    </contour>
    <contour>
      <point x="161.5" y="502.667" type="curve" smooth="yes"/>
      <point x="120.333" y="166.167" type="line" smooth="yes"/>
      <point x="106.667" y="53.167"/>
      <point x="98.333" y="19.5"/>
      <point x="50.667" y="19.5" type="curve" smooth="yes"/>
      <point x="6.667" y="19.5" type="line"/>
      <point x="4" y="0" type="line"/>
      <point x="349.5" y="0" type="line" smooth="yes"/>
      <point x="470.167" y="0"/>
      <point x="473.5" y="43.5"/>
      <point x="479.833" y="88" type="curve" smooth="yes"/>
      <point x="484" y="127" type="line"/>
      <point x="465" y="127" type="line"/>
      <point x="458.167" y="71" type="line" smooth="yes"/>
      <point x="453.333" y="30.667"/>
      <point x="421" y="19.5"/>
      <point x="343.333" y="19.5" type="curve" smooth="yes"/>
      <point x="99.667" y="19.5" type="line"/>
      <point x="99.667" y="19.5" type="line"/>
      <point x="120.833" y="37.667"/>
      <point x="129.833" y="79.167"/>
      <point x="134.5" y="113.833" type="curve" smooth="yes"/>
      <point x="138.167" y="151" type="line"/>
      <point x="181.833" y="504" type="line" smooth="yes"/>
      <point x="189" y="565.167"/>
      <point x="227.667" y="619"/>
      <point x="338.667" y="619" type="curve" smooth="yes"/>
      <point x="418.167" y="619"/>
      <point x="447.833" y="599.5"/>
      <point x="472.833" y="539.667" type="curve"/>
      <point x="488.5" y="548.667" type="line"/>
      <point x="468" y="602.333"/>
      <point x="430.5" y="638.5"/>
      <point x="341.167" y="638.5" type="curve" smooth="yes"/>
      <point x="244" y="638.5"/>
      <point x="173.5" y="595.833"/>
    </contour>
  </outline>
</glyph>
<glyph name="naira" format="2">
  <advance width="817.5"/>
  <unicode hex="20A6"/>
  <anchor x="403.333" y="0" name="bottom"/>
  <anchor x="488.167" y="700" name="top"/>
  <outline>
    <contour>
      <point x="453.333" y="347.333" type="line"/>
      <point x="452.833" y="329.833" type="line"/>
      <point x="809.833" y="329.833" type="line"/>
      <point x="810.333" y="347.333" type="line"/>
    </contour>
    <contour>
      <point x="452.333" y="329.833" type="line"/>
      <point x="452.833" y="347.333" type="line"/>
      <point x="34.333" y="347.333" type="line"/>
      <point x="33.833" y="329.833" type="line"/>
    </contour>
    <contour>
      <point x="688.5" y="-12.833" type="line"/>
      <point x="775.833" y="701.667" type="line"/>
      <point x="756" y="701.667" type="line"/>
      <point x="673.333" y="27.5" type="line"/>
      <point x="684.333" y="25" type="line"/>
      <point x="203.167" y="713.333" type="line"/>
      <point x="201.833" y="713.333" type="line"/>
      <point x="114.667" y="0" type="line"/>
      <point x="134.5" y="0" type="line"/>
      <point x="217" y="675.667" type="line"/>
      <point x="210.5" y="667.167" type="line"/>
      <point x="687.333" y="-12.833" type="line"/>
    </contour>
  </outline>
</glyph>
<glyph name="peseta" format="2">
  <advance width="542.5"/>
  <unicode hex="20A7"/>
  <outline>
    <contour>
      <point x="496.833" y="515" type="line"/>
      <point x="494.833" y="497.333" type="line"/>
      <point x="569.833" y="497.333" type="line"/>
      <point x="571.667" y="515" type="line"/>
    </contour>
    <contour>
      <point x="161.5" y="497.333" type="line"/>
      <point x="163.333" y="515" type="line"/>
      <point x="83.667" y="515" type="line"/>
      <point x="81.667" y="497.333" type="line"/>
    </contour>
    <component base="P" xOffset="-3.333"/>
  </outline>
</glyph>
<glyph name="won" format="2">
  <advance width="992.33333"/>
  <unicode hex="20A9"/>
  <anchor x="491.667" y="0" name="bottom"/>
  <anchor x="578.0" y="701.667" name="top"/>
  <outline>
    <contour>
      <point x="66" y="415.667" type="line"/>
      <point x="65.5" y="398" type="line"/>
      <point x="959.333" y="398" type="line"/>
      <point x="959.833" y="415.667" type="line"/>
    </contour>
    <component base="W" xOffset="0.667"/>
  </outline>
</glyph>
<glyph name="euro" format="2">
  <advance width="743"/>
  <unicode hex="20AC"/>
  <outline>
    <contour>
      <point x="99.333" y="397.833" type="line"/>
      <point x="97.833" y="379.333" type="line"/>
      <point x="427.5" y="379.333" type="line"/>
      <point x="429" y="397.833" type="line"/>
    </contour>
    <contour>
      <point x="87" y="289.5" type="line"/>
      <point x="85.5" y="271.167" type="line"/>
      <point x="414.167" y="271.167" type="line"/>
      <point x="415.833" y="289.5" type="line"/>
    </contour>
    <component base="C" xOffset="48.833"/>
  </outline>
</glyph>
<glyph name="kip" format="2">
  <advance width="579.16667"/>
  <unicode hex="20AD"/>
  <outline>
    <contour>
      <point x="38.167" y="420.333" type="line"/>
      <point x="35.333" y="400.833" type="line"/>
      <point x="526.5" y="400.833" type="line"/>
      <point x="529.167" y="420.333" type="line"/>
    </contour>
    <component base="K"/>
  </outline>
</glyph>
<glyph name="rupeeIndian" format="2">
  <advance width="608.33333"/>
  <unicode hex="20B9"/>
  <outline>
    <contour>
      <point x="165" y="317.167" type="line"/>
      <point x="257.5" y="317.167" type="line" smooth="yes"/>
      <point x="416.333" y="317.167"/>
      <point x="485.833" y="413.833"/>
      <point x="498" y="514.833" type="curve" smooth="yes"/>
      <point x="515" y="653.333"/>
      <point x="399" y="697.833"/>
      <point x="317.167" y="697.833" type="curve"/>
      <point x="365.5" y="683" type="line"/>
      <point x="591.667" y="683" type="line"/>
      <point x="594.333" y="701.667" type="line"/>
      <point x="212.667" y="701.667" type="line"/>
      <point x="210" y="683" type="line"/>
      <point x="315.833" y="683" type="line"/>
      <point x="417" y="683"/>
      <point x="490.5" y="614.333"/>
      <point x="478" y="513.667" type="curve" smooth="yes"/>
      <point x="468.167" y="431.5"/>
      <point x="415" y="335.833"/>
      <point x="257.333" y="335.833" type="curve" smooth="yes"/>
      <point x="167.667" y="335.833" type="line"/>
    </contour>
    <contour>
      <point x="485.5" y="0" type="line"/>
      <point x="508.333" y="0" type="line"/>
      <point x="347.833" y="334.667" type="line"/>
      <point x="324.833" y="334.5" type="line"/>
    </contour>
    <contour>
      <point x="181.667" y="492.167" type="line"/>
      <point x="582.833" y="492.167" type="line"/>
      <point x="584.5" y="509.833" type="line"/>
      <point x="183.167" y="509.833" type="line"/>
    </contour>
  </outline>
</glyph>
<glyph name="liraTurkish" format="2">
  <advance width="620.66667"/>
  <unicode hex="20BA"/>
  <outline>
    <contour>
      <point x="557.5" y="313.5" type="curve"/>
      <point x="537.167" y="309.833" type="line"/>
      <point x="537.167" y="300.667"/>
      <point x="536.333" y="291.5"/>
      <point x="535.167" y="282.167" type="curve" smooth="yes"/>
      <point x="510.833" y="81"/>
      <point x="349.167" y="18.667"/>
      <point x="169.833" y="18.667" type="curve"/>
      <point x="169" y="9.333" type="line"/>
      <point x="254" y="701.667" type="line"/>
      <point x="234.167" y="701.667" type="line"/>
      <point x="148" y="0" type="line"/>
      <point x="167.833" y="0" type="line" smooth="yes"/>
      <point x="359.167" y="0"/>
      <point x="529.333" y="71.667"/>
      <point x="555.5" y="282" type="curve" smooth="yes"/>
      <point x="556.667" y="292.833"/>
      <point x="557.5" y="303.667"/>
    </contour>
    <contour>
      <point x="452.667" y="360.333" type="line"/>
      <point x="52.667" y="151.333" type="line"/>
      <point x="59.5" y="137.833" type="line"/>
      <point x="459.5" y="346.833" type="line"/>
    </contour>
    <contour>
      <point x="443.333" y="487.333" type="line"/>
      <point x="44.333" y="280.333" type="line"/>
      <point x="50.167" y="266.833" type="line"/>
      <point x="450.167" y="473.833" type="line"/>
    </contour>
  </outline>
</glyph>
<glyph name="manat" format="2">
  <advance width="694.33333"/>
  <unicode hex="20BC"/>
  <outline>
    <contour>
      <point x="417.333" y="831" type="line"/>
      <point x="316.333" y="0" type="line"/>
      <point x="334.167" y="0" type="line"/>
      <point x="435.333" y="831" type="line"/>
    </contour>
    <contour>
      <point x="588.333" y="464" type="curve" smooth="yes"/>
      <point x="531.333" y="-7.667" type="line"/>
      <point x="551" y="-7.667" type="line"/>
      <point x="609" y="466" type="line" smooth="yes"/>
      <point x="627.167" y="619.5"/>
      <point x="539.667" y="702"/>
      <point x="409.167" y="702" type="curve" smooth="yes"/>
      <point x="409.167" y="702" type="line" smooth="yes"/>
      <point x="280.333" y="702"/>
      <point x="170.667" y="619.5"/>
      <point x="152.667" y="466" type="curve" smooth="yes"/>
      <point x="94.667" y="-7.667" type="line"/>
      <point x="114.333" y="-7.667" type="line"/>
      <point x="171.333" y="464" type="line" smooth="yes"/>
      <point x="188.833" y="603.833"/>
      <point x="287.833" y="683.333"/>
      <point x="407.333" y="683.333" type="curve" smooth="yes"/>
      <point x="528.667" y="683.333"/>
      <point x="605.833" y="603.833"/>
    </contour>
  </outline>
</glyph>
<glyph name="numero" format="2">
  <advance width="1288.5"/>
  <unicode hex="2116"/>
  <outline>
    <contour>
      <point x="871.667" y="235.833" type="line"/>
      <point x="869.167" y="217.167" type="line"/>
      <point x="1236" y="217.167" type="line"/>
      <point x="1238.5" y="235.833" type="line"/>
    </contour>
    <component base="N"/>
    <component base="o" xOffset="823.667" yOffset="327.5"/>
  </outline>
</glyph>
